<svg xmlns="http://www.w3.org/2000/svg" viewBox="0 0 151.41 151.41"><defs><style>.cls-1{fill:#4dace1;}</style></defs><title>facebook</title><g id="Vrstva_2" data-name="Vrstva 2"><g id="Objects"><path class="cls-1" d="M108.88,151.41a1.2,1.2,0,0,1-.61-2.23c6.71-3.94,22.91-14.44,41.27-26.75a1.2,1.2,0,0,1,1.34,2c-18.4,12.33-34.65,22.86-41.39,26.83A1.2,1.2,0,0,1,108.88,151.41Zm-49.64,0a1.2,1.2,0,0,1-.63-2.22c5.2-3.21,10-6.19,13.43-8.37,6.29-4,46.83-31.26,77.5-52.09a1.2,1.2,0,1,1,1.35,2c-30.69,20.84-71.26,48.15-77.57,52.13-3.47,2.19-8.24,5.17-13.45,8.39A1.19,1.19,0,0,1,59.23,151.41Zm56.33,0a1.2,1.2,0,0,1-.63-2.22c8-5,21-13.31,34.61-22.32a1.2,1.2,0,1,1,1.32,2c-13.65,9-26.61,17.38-34.67,22.36A1.19,1.19,0,0,1,115.56,151.41Zm-63.92,0a1.2,1.2,0,0,1-.63-2.22c5.76-3.53,12.1-7.37,15.52-9.09,3-1.51,21.21-13.84,42.29-28.12,13.08-8.86,27.91-18.9,40.72-27.45a1.2,1.2,0,0,1,1.33,2c-12.81,8.54-27.63,18.58-40.71,27.44-22,14.92-39.42,26.7-42.56,28.28-3.34,1.68-9.63,5.49-15.34,9A1.2,1.2,0,0,1,51.63,151.41Zm-7.45,0a1.2,1.2,0,0,1-.63-2.22c8.49-5.24,15-9.43,19.45-12.44,1.75-1.19,6.51-4.41,13.17-8.9a1.2,1.2,0,0,1,1.34,2c-6.66,4.48-11.41,7.69-13.16,8.89-4.45,3-11,7.24-19.54,12.5A1.2,1.2,0,0,1,44.18,151.41Zm77.88,0a1.2,1.2,0,0,1-.64-2.21c6.76-4.28,10.89-6.82,12.3-7.55,1.22-.64,4.85-2.88,15.19-9.91a1.2,1.2,0,0,1,1.35,2c-8.38,5.7-13.57,9.08-15.43,10.06-1.34.7-5.42,3.21-12.12,7.46A1.2,1.2,0,0,1,122.06,151.41Zm-55.87,0a1.2,1.2,0,0,1-.65-2.21c19.68-12.53,32.7-21.26,35.71-24,4-3.59,27.92-19.39,48.29-32.75a1.2,1.2,0,1,1,1.32,2c-20.3,13.31-44.11,29-48,32.53-4.25,3.8-24.39,16.79-36,24.19A1.2,1.2,0,0,1,66.19,151.41Zm4.86,0a1.2,1.2,0,0,1-.65-2.21c12.26-7.83,24.85-15.75,35-22.12s17.68-11.13,19.32-12.28c2.59-1.82,12.66-8.95,24.82-17.61a1.2,1.2,0,1,1,1.39,2c-12.17,8.67-22.24,15.8-24.84,17.62-1.69,1.18-9.12,5.87-19.42,12.34-10.11,6.37-22.7,14.29-35,22.11A1.2,1.2,0,0,1,71.05,151.41Zm13.62,0A1.2,1.2,0,0,1,84,149.2c14.85-9.59,23.56-14.87,26.62-16.14,3.76-1.57,16.84-10.4,38.87-26.26a1.2,1.2,0,1,1,1.4,1.95c-22.49,16.19-35.36,24.86-39.35,26.52-2.89,1.2-11.72,6.57-26.24,15.94A1.19,1.19,0,0,1,84.67,151.41Zm-6.08,0a1.2,1.2,0,0,1-.64-2.21c10.24-6.51,20.5-13,28.75-18.16,10.26-6.46,17.68-11.13,19.31-12.27,2.54-1.78,12.12-8.57,23.5-16.67a1.2,1.2,0,1,1,1.39,2c-11.38,8.11-21,14.9-23.51,16.68-1.69,1.18-9.12,5.86-19.42,12.34-8.25,5.19-18.51,11.65-28.74,18.16A1.19,1.19,0,0,1,78.59,151.41Zm23.22,0a1.2,1.2,0,0,1-.66-2.21c16.29-10.65,27.7-17.76,30.52-19,2.35-1.05,10.34-6.59,17.84-11.86a1.2,1.2,0,1,1,1.38,2C140,128,134.7,131.46,132.65,132.37c-2.67,1.19-14.24,8.41-30.19,18.84A1.2,1.2,0,0,1,101.81,151.41Zm-11.25,0a1.2,1.2,0,0,1-.66-2.2c11.87-7.82,19-12.18,21.67-13.3,3.75-1.56,16.87-10.17,37.95-24.9a1.2,1.2,0,0,1,1.38,2l-2,1.4.64-.43a1.2,1.2,0,1,1,1.34,2c-19,12.83-38,25.29-42.16,27.86-1.84,1.13-5.73,3.63-11.55,7.44a1.2,1.2,0,1,1-1.31-2c5.84-3.82,9.75-6.34,11.61-7.48,1.33-.81,4.16-2.63,8-5.14a29.11,29.11,0,0,1-3,1.54c-2.53,1.06-9.69,5.46-21.27,13.09A1.2,1.2,0,0,1,90.56,151.41Zm-52.67,0a1.2,1.2,0,0,1-.67-2.2c12.06-8.11,23.41-15.08,33.89-21.4a1.2,1.2,0,0,1,1.24,2.05c-10.45,6.31-21.77,13.25-33.79,21.33A1.2,1.2,0,0,1,37.9,151.41Zm-7.13,0a1.2,1.2,0,0,1-.68-2.19c9.86-6.82,20.09-13.42,33.17-21.4a1.2,1.2,0,0,1,1.25,2c-13,8-23.24,14.54-33.06,21.33A1.2,1.2,0,0,1,30.77,151.41Zm-7.9,0a1.2,1.2,0,0,1-.62-2.23C27,146.29,32.6,143,38.57,139.42c7.53-4.46,15.32-9.06,21.87-13.08a1.2,1.2,0,0,1,1.25,2c-6.57,4-14.36,8.64-21.9,13.1-6,3.53-11.6,6.86-16.3,9.71A1.19,1.19,0,0,1,22.87,151.38Zm106.74-.08a1.2,1.2,0,0,1-.65-2.21c2.22-1.42,3.81-2.42,4.58-2.88,2-1.2,7.58-5.11,13.33-9.15a1.2,1.2,0,1,1,1.38,2c-5.79,4.07-11.43,8-13.47,9.24-.76.46-2.33,1.45-4.53,2.85A1.19,1.19,0,0,1,129.61,151.3Zm-111.44-.65a1.2,1.2,0,0,1-.66-2.21c8.82-5.77,24.86-16.08,42.91-27.58a1.2,1.2,0,0,1,1.29,2c-18,11.5-34.07,21.8-42.89,27.56A1.2,1.2,0,0,1,18.17,150.65Zm-3.89-1.43a1.2,1.2,0,0,1-.68-2.19c6.19-4.26,12.34-8.07,17.76-11.44,7.48-4.65,13.94-8.66,17.34-11.88,1.16-1.1,4.89-3.69,11.72-8.15a1.2,1.2,0,1,1,1.31,2c-6.53,4.26-10.36,6.91-11.38,7.88-3.57,3.39-9.82,7.27-17.72,12.18C27.22,141,21.1,144.78,15,149A1.2,1.2,0,0,1,14.27,149.22ZM10.5,147a1.2,1.2,0,0,1-.7-2.18c9-6.4,18.39-12.27,25.94-17,5.86-3.66,10.49-6.55,13.08-8.52,1.08-.82,4.66-3.17,11.59-7.62a1.2,1.2,0,0,1,1.29,2c-4.27,2.74-10.1,6.49-11.44,7.51-2.68,2-7.35,5-13.26,8.65-7.51,4.7-16.87,10.54-25.82,16.9A1.2,1.2,0,0,1,10.5,147Zm-2.8-2.44a1.2,1.2,0,0,1-.7-2.18c11-7.87,35.76-23.7,53.42-34.92a1.2,1.2,0,1,1,1.29,2c-17.63,11.21-42.35,27-53.31,34.85A1.19,1.19,0,0,1,7.7,144.51ZM4.89,141a1.2,1.2,0,0,1-.69-2.18c11-7.74,34.8-22.63,56.23-36a1.2,1.2,0,1,1,1.27,2c-21.4,13.33-45.15,28.19-56.12,35.9A1.19,1.19,0,0,1,4.89,141Zm-2.22-4.36a1.2,1.2,0,0,1-.6-2.24c14.9-8.52,43.06-25.68,58.36-35.13a1.2,1.2,0,1,1,1.26,2C46.39,110.78,18.2,128,3.27,136.49A1.19,1.19,0,0,1,2.67,136.65ZM1.85,134a1.2,1.2,0,0,1-.61-2.23c11.8-7,31.27-19.61,46.91-29.77,4.45-2.89,8.62-5.6,12.27-8a1.2,1.2,0,0,1,1.3,2c-3.64,2.35-7.81,5.06-12.26,7.95-15.66,10.17-35.15,22.83-47,29.82A1.19,1.19,0,0,1,1.85,134Zm-.58-3.73A1.2,1.2,0,0,1,.66,128c17.93-10.42,47.52-28.88,59.73-37.27a1.2,1.2,0,1,1,1.36,2c-12.47,8.58-41.58,26.74-59.88,37.37A1.2,1.2,0,0,1,1.26,130.24Zm-.06-4.69a1.2,1.2,0,0,1-.61-2.24c17.16-10,47.65-29,59.78-37.45a1.2,1.2,0,1,1,1.38,2C49.57,96.35,19,115.34,1.81,125.39A1.19,1.19,0,0,1,1.2,125.55ZM84,125.25a1.2,1.2,0,0,1-.67-2.2l.56-.38a1.2,1.2,0,0,1-.51-2.22c9.95-6,20.48-12.38,30.25-19l9.09-6.14c7.18-4.85,17-11.47,26.84-18.15a1.2,1.2,0,1,1,1.35,2l0,0a1.2,1.2,0,0,1,0,2c-23,14.93-51.36,33.89-66.23,43.87A1.19,1.19,0,0,1,84,125.25ZM1.2,121.71a1.2,1.2,0,0,1-.64-2.21c13.74-8.71,38.1-24.41,59.86-38.44a1.2,1.2,0,0,1,1.3,2C40,97.11,15.59,112.81,1.84,121.53A1.2,1.2,0,0,1,1.2,121.71ZM84,117.93a1.2,1.2,0,0,1-.62-2.23c9-5.4,19.33-11.7,28.93-18.21l9.15-6.18c7.5-5.06,17.86-12,28.11-19a1.2,1.2,0,1,1,1.35,2c-10.25,7-20.61,13.95-28.11,19l-9.14,6.17c-9.66,6.55-20.06,12.87-29,18.28A1.2,1.2,0,0,1,84,117.93ZM1.2,116.8a1.2,1.2,0,0,1-.66-2.21C6,111,13.06,106.42,20.68,101.42,33,93.36,46.89,84.22,58.45,76.78a1.2,1.2,0,1,1,1.3,2C48.2,86.24,34.28,95.37,22,103.43c-7.63,5-14.65,9.61-20.14,13.18A1.19,1.19,0,0,1,1.2,116.8ZM84,112.75a1.2,1.2,0,0,1-.69-2.18c14.76-10.32,44.52-29.93,66.28-44a1.2,1.2,0,1,1,1.3,2c-21.74,14-51.47,33.62-66.21,43.92A1.19,1.19,0,0,1,84,112.75ZM1.2,111.5a1.2,1.2,0,0,1-.61-2.23c18.67-11,34.74-21.74,50.28-32.15l.48-.32a1.2,1.2,0,0,1,1.34,2l-.48.32c-15.57,10.43-31.66,21.21-50.4,32.23A1.2,1.2,0,0,1,1.2,111.5Zm82.76-3a1.2,1.2,0,0,1-.64-2.21c6.77-4.28,15.31-9.65,17.55-10.94,2.75-1.58,12.75-8.45,24.33-16.41,7.62-5.23,16.25-11.16,24.33-16.63a1.2,1.2,0,0,1,1.35,2c-8.07,5.46-16.7,11.39-24.32,16.62-12.1,8.31-21.66,14.88-24.49,16.51-1.74,1-7.78,4.77-17.47,10.89A1.19,1.19,0,0,1,84,108.54ZM1.2,106.76a1.2,1.2,0,0,1-.61-2.23C18.73,93.8,34.94,82.94,49.25,73.35a1.2,1.2,0,0,1,1.34,2C36.25,85,20,95.83,1.81,106.6A1.19,1.19,0,0,1,1.2,106.76ZM84,103.14a1.2,1.2,0,0,1-.64-2.21c6.14-3.87,12.72-8,19.43-12.23C119.24,78.34,136.29,67.62,149.56,59a1.2,1.2,0,0,1,1.3,2C137.58,69.65,120.52,80.37,104,90.74,97.32,95,90.74,99.09,84.6,103A1.19,1.19,0,0,1,84,103.14Zm-82.76-1a1.2,1.2,0,0,1-.67-2.2C16.82,89,37.32,75.49,49.27,67.8a1.2,1.2,0,0,1,1.3,2C38.63,77.5,18.15,91,1.87,101.91A1.19,1.19,0,0,1,1.2,102.11ZM84,99.27a1.2,1.2,0,0,1-.64-2.21C104.58,83.54,131,66.72,149.54,54.48a1.2,1.2,0,0,1,1.32,2c-18.53,12.25-45,29.08-66.26,42.6A1.19,1.19,0,0,1,84,99.27Zm-82.76-2a1.2,1.2,0,0,1-.67-2.2C17.44,83.75,37.94,70.26,49.27,63a1.2,1.2,0,1,1,1.29,2c-11.32,7.26-31.8,20.73-48.7,32A1.19,1.19,0,0,1,1.2,97.26ZM84,95.1a1.2,1.2,0,0,1-.64-2.21c4.51-2.86,8.95-5.68,10.87-7,6.57-4.33,36.33-23.64,55.36-36a1.2,1.2,0,0,1,1.3,2c-19,12.32-48.78,31.63-55.34,36-1.94,1.28-6.39,4.11-10.91,7A1.2,1.2,0,0,1,84,95.1ZM1.2,93a1.2,1.2,0,0,1-.67-2.19c12.8-8.69,36.16-24.41,48.77-32.08a1.2,1.2,0,0,1,.56-.17,1.19,1.19,0,0,1,.42-.42,63.61,63.61,0,0,1,6.1-3.38c.77-.34,2.15-1.07,4.1-2.16a1.2,1.2,0,0,1,1.17,2.09c-2,1.15-3.46,1.89-4.31,2.26a63,63,0,0,0-5.83,3.24,1.19,1.19,0,0,1-.56.17,1.2,1.2,0,0,1-.41.41C38,68.44,14.66,84.14,1.87,92.81A1.2,1.2,0,0,1,1.2,93ZM84,90.79a1.2,1.2,0,0,1-.64-2.22c5.05-3.18,7.92-5,9-5.83,3.09-2.24,16.39-11,29.75-19.71-7,4.37-14.36,9-21.82,13.74a1.2,1.2,0,0,1-1.28-2c19.38-12.27,38.29-24.07,50.59-31.58a1.2,1.2,0,0,1,1.3,2,1.2,1.2,0,0,1,0,2c-24.7,16-52.67,34.29-57.11,37.5-1.14.83-4,2.71-9.15,5.92A1.2,1.2,0,0,1,84,90.79ZM1.2,88.49a1.2,1.2,0,0,1-.66-2.2C23.18,71.42,50.26,54.22,56.22,51.61c.79-.35,2.23-1.11,4.26-2.26a1.2,1.2,0,0,1,1.18,2.09c-2.13,1.21-3.6,2-4.47,2.37C51.61,56.25,25.13,73,1.86,88.3A1.2,1.2,0,0,1,1.2,88.49ZM84,86.93a1.2,1.2,0,0,1-.65-2.21c3.39-2.17,7.66-4.89,12.47-7.94a1.2,1.2,0,1,1,1.29,2c-4.81,3-9.08,5.77-12.46,7.94A1.19,1.19,0,0,1,84,86.93ZM1.2,85a1.2,1.2,0,0,1-.64-2.21C17.42,72.09,38.21,58.41,53.39,48.42l7-4.62a1.2,1.2,0,1,1,1.32,2l-7,4.62c-15.19,10-36,23.68-52.86,34.38A1.2,1.2,0,0,1,1.2,85ZM84,82.14a1.2,1.2,0,0,1-.62-2.23l5.15-3.15a1.2,1.2,0,0,1,1.25,2L84.59,82A1.2,1.2,0,0,1,84,82.14ZM1.2,81a1.2,1.2,0,0,1-.65-2.21c11.56-7.39,24.87-16.11,36.84-24C27.79,60.87,15,68.6,1.82,76.5A1.2,1.2,0,1,1,.58,74.44c15-9,46.1-27.64,50.78-32a91.5,91.5,0,0,1,10-7.09,1.2,1.2,0,1,1,1.31,2A91.9,91.9,0,0,0,53,44.2,27.06,27.06,0,0,1,50.75,46l1-.66,8.81-5.82a1.2,1.2,0,1,1,1.32,2l-8.81,5.82C38.42,57,18.36,70.3,1.85,80.85A1.19,1.19,0,0,1,1.2,81Zm0-8.4A1.2,1.2,0,0,1,.59,70.4c28.47-16.81,46-27.81,49.45-31,1.74-1.62,6.53-5,14.25-10a1.2,1.2,0,1,1,1.3,2c-9.46,6.12-12.79,8.65-13.92,9.69-4.79,4.45-33.3,21.52-49.87,31.31A1.19,1.19,0,0,1,1.2,72.64Zm99.08-.5a1.2,1.2,0,0,1-.63-2.22c15.63-9.61,35.69-22,49.92-30.91a1.2,1.2,0,1,1,1.27,2c-14.23,8.88-34.3,21.31-49.93,30.92A1.2,1.2,0,0,1,100.28,72.14ZM1.2,69.22A1.2,1.2,0,0,1,.59,67C23.06,53.76,37.12,44.68,41.26,40.74c5.63-5.37,35.5-23,65.62-40.57a1.2,1.2,0,0,1,1.21,2.07C85.92,15.18,48.81,36.85,42.91,42.47,38.59,46.6,24.76,55.55,1.81,69.06A1.19,1.19,0,0,1,1.2,69.22Zm99.72-2.7a1.2,1.2,0,0,1-.64-2.22c18.67-11.67,37.58-23.1,49.33-29.82a1.2,1.2,0,1,1,1.19,2.08c-11.73,6.71-30.6,18.12-49.25,29.77A1.19,1.19,0,0,1,100.92,66.53ZM1.2,65a1.2,1.2,0,0,1-.64-2.22c17.92-11.3,36-23,40.92-26.18,4-2.61,22.87-14.23,42.83-26.53L100.43.18a1.2,1.2,0,1,1,1.26,2L85.58,12.15c-20,12.29-38.79,23.9-42.78,26.5-4.92,3.2-23,14.89-41,26.2A1.19,1.19,0,0,1,1.2,65ZM101.34,62a1.2,1.2,0,0,1-.62-2.23c18.6-11.33,37.34-22.38,48.91-28.82a1.2,1.2,0,0,1,1.17,2.1C139.25,39.45,120.54,50.48,102,61.8A1.19,1.19,0,0,1,101.34,62ZM1.2,61.83a1.2,1.2,0,0,1-.63-2.22C17.31,49.33,29.32,41.54,32.69,38.75,37.51,34.76,68.3,15.1,92.6.18a1.2,1.2,0,0,1,1.26,2C67.47,18.42,38.48,37.08,34.22,40.6c-5,4.11-24.31,16.09-32.39,21A1.2,1.2,0,0,1,1.2,61.83Zm56.42-1.45A1.2,1.2,0,0,1,57,58.15l3.46-2a1.2,1.2,0,0,1,1.21,2.07l-3.44,2A1.19,1.19,0,0,1,57.62,60.38Zm33.1-.07a1.2,1.2,0,0,1-.58-2.25c14-7.71,42.36-24.61,59.41-35.67a1.2,1.2,0,0,1,1.31,2c-17.1,11.09-45.54,28-59.56,35.76A1.19,1.19,0,0,1,90.72,60.31Zm7,0a1.2,1.2,0,0,1-.61-2.23l7.47-4.41c14.41-8.5,32.35-19.09,45-26.85a1.2,1.2,0,0,1,1.25,2c-12.71,7.77-30.66,18.36-45.08,26.87l-7.47,4.41A1.19,1.19,0,0,1,97.67,60.31ZM84.05,58.14a1.2,1.2,0,0,1-.63-2.22l.67-.41c5.29-3.23,19.89-11.56,35.35-20.39,10.58-6,21.52-12.29,29.64-17a1.2,1.2,0,1,1,1.2,2.08c-8.13,4.71-19.07,11-29.66,17C105.19,46,90.6,54.34,85.35,57.55l-.67.41A1.2,1.2,0,0,1,84.05,58.14ZM1.2,57.08a1.2,1.2,0,0,1-.63-2.22c16.29-10,27.51-17.35,30.79-20.06C35.85,31.08,62.62,13.94,84.85.18a1.2,1.2,0,0,1,1.26,2c-25,15.46-49.36,31.22-53.22,34.42-4.78,4-23.32,15.48-31.06,20.26A1.19,1.19,0,0,1,1.2,57.08Zm82.85-3.71a1.2,1.2,0,0,1-.62-2.23c5.77-3.48,19.84-11.51,34.73-20,10.59-6,21.54-12.3,29.65-17a1.2,1.2,0,0,1,1.2,2.08c-8.12,4.71-19.07,11-29.67,17-14.88,8.5-28.94,16.52-34.69,20A1.19,1.19,0,0,1,84.05,53.37ZM1.2,51.91A1.2,1.2,0,0,1,.55,49.7l10-6.42C30.31,30.6,49,18.62,52.3,16.65c3-1.77,14.13-8.41,27.59-16.48a1.2,1.2,0,1,1,1.23,2.06C67.66,10.3,56.51,17,53.52,18.72,50.23,20.67,31.59,32.63,11.86,45.3l-10,6.42A1.2,1.2,0,0,1,1.2,51.91Zm82.85-2.16a1.2,1.2,0,0,1-.6-2.24L94.8,40.9A1.2,1.2,0,0,1,96,43L84.65,49.59A1.19,1.19,0,0,1,84.05,49.75ZM1.2,47.54a1.2,1.2,0,0,1-.64-2.21C22.19,31.66,46.77,16,50.89,13,53.44,11.19,60.75,6.51,70.95.18a1.2,1.2,0,0,1,1.27,2C62.06,8.52,54.8,13.17,52.29,15,48.13,18,23.5,33.67,1.84,47.35A1.19,1.19,0,0,1,1.2,47.54Zm0-5.38a1.2,1.2,0,0,1-.63-2.22c11-6.83,22.17-13.75,31.18-19.35S47.6,10.73,50.15,9.17L65,.18A1.2,1.2,0,1,1,66.2,2.23l-14.8,9c-2.54,1.55-9.53,5.9-18.38,11.4C24,28.22,12.88,35.14,1.83,42A1.2,1.2,0,0,1,1.2,42.15Zm100.29-2.58a1.2,1.2,0,0,1-.61-2.23c23-13.51,37.54-22.47,44.48-27.4a1.2,1.2,0,1,1,1.39,2c-7,5-21.6,14-44.65,27.51A1.19,1.19,0,0,1,101.49,39.57ZM1.2,37.88a1.2,1.2,0,0,1-.62-2.23c18.88-11.46,37.88-23.06,46-28l3.08-1.88c1.88-1.15,5-3.1,9-5.58a1.2,1.2,0,0,1,1.27,2c-4,2.48-7.13,4.44-9,5.59L47.82,9.69c-8.11,5-27.11,16.56-46,28A1.19,1.19,0,0,1,1.2,37.88Zm100.29-3a1.2,1.2,0,0,1-.61-2.23c20.95-12.32,34.65-20.74,41.9-25.74a1.2,1.2,0,0,1,1.36,2c-7.29,5-21,13.49-42,25.84A1.19,1.19,0,0,1,101.49,34.84ZM1.2,34.45A1.2,1.2,0,0,1,.6,32.22L9,27.33c6.24-3.63,11.18-6.5,13.72-8C26.62,16.92,39.39,8.94,53.2.19a1.2,1.2,0,1,1,1.29,2C40.66,11,27.88,19,24,21.34c-2.56,1.55-7.5,4.43-13.76,8.06l-8.4,4.89A1.2,1.2,0,0,1,1.2,34.45Zm0-3.73a1.2,1.2,0,0,1-.59-2.25l4-2.21c8-4.48,14.36-8,17.37-9.84,3.34-2,13.54-8.55,25.38-16.23a1.2,1.2,0,1,1,1.31,2C36.77,9.9,26.55,16.44,23.19,18.47c-3,1.84-9.39,5.39-17.44,9.88l-4,2.21A1.2,1.2,0,0,1,1.2,30.72Zm100.29-.24a1.2,1.2,0,0,1-.63-2.22c9-5.57,18-11.16,25.58-15.85l13.25-8.21a1.2,1.2,0,1,1,1.26,2L127.7,14.46c-7.54,4.68-16.55,10.28-25.59,15.85A1.19,1.19,0,0,1,101.49,30.49Zm0-3.5a1.2,1.2,0,0,1-.64-2.22c7.92-4.94,15.83-9.88,22.74-14.21l13-8.14a1.2,1.2,0,1,1,1.27,2l-13,8.14C118,16.92,110,21.87,102.12,26.8A1.19,1.19,0,0,1,101.49,27ZM1.2,26a1.2,1.2,0,0,1-.59-2.24c10.68-6,18.84-10.43,21.82-11.74,2-.9,8.36-4.88,18.78-11.84a1.2,1.2,0,0,1,1.33,2c-10.83,7.23-16.91,11.06-19.15,12-2.91,1.28-11,5.62-21.6,11.63A1.2,1.2,0,0,1,1.2,26Zm74.59-1.25a1.2,1.2,0,0,1-.64-2.22C85.61,16,99,7.85,111.89.17a1.2,1.2,0,1,1,1.23,2.06C100.24,9.9,86.87,18.05,76.43,24.59A1.19,1.19,0,0,1,75.79,24.77Zm8.43-1a1.2,1.2,0,0,1-.62-2.23C98.2,12.7,112.48,4.35,119.7.16a1.2,1.2,0,1,1,1.21,2.08C113.7,6.42,99.43,14.77,84.84,23.6A1.2,1.2,0,0,1,84.22,23.77Zm13.69,0a1.2,1.2,0,0,1-.6-2.24C107.38,15.69,121.75,7.39,133,1a1.2,1.2,0,0,1,1.19,2.09C122.95,9.48,108.58,17.77,98.5,23.61A1.2,1.2,0,0,1,97.9,23.77Zm-7.41,0a1.2,1.2,0,0,1-.61-2.23c15.2-9,27.12-16,36.43-21.37a1.2,1.2,0,0,1,1.2,2.08C118.21,7.63,106.3,14.62,91.11,23.6A1.19,1.19,0,0,1,90.5,23.77ZM1.39,22.3A1.2,1.2,0,0,1,.81,20c9.45-5.09,17.12-9,20-10.32,1.77-.78,6.81-4,15-9.52a1.2,1.2,0,1,1,1.35,2C28.64,8,23.76,11.06,21.8,11.92,19,13.17,11.35,17.09,2,22.16A1.2,1.2,0,0,1,1.39,22.3Zm.89-4a1.2,1.2,0,0,1-.61-2.24C12.15,9.95,21.38,4.46,28.38.18a1.2,1.2,0,1,1,1.25,2C22.62,6.51,13.37,12,2.88,18.13A1.2,1.2,0,0,1,2.28,18.29Zm3.53-6.8A1.2,1.2,0,0,1,5.2,9.26C10.62,6.08,15.64,3.1,20.14.4a1.2,1.2,0,1,1,1.23,2.06c-4.5,2.7-9.54,5.69-15,8.87A1.2,1.2,0,0,1,5.81,11.5Z"/></g></g></svg>