<svg xmlns="http://www.w3.org/2000/svg" viewBox="0 0 151.41 151.41"><defs><style>.cls-1{fill:#4dace1;}</style></defs><title>linkedin</title><g id="Vrstva_2" data-name="Vrstva 2"><g id="Objects"><path class="cls-1" d="M106.27,151.41a1.2,1.2,0,0,1-.61-2.24c7.14-4.16,24.77-15.47,43.87-28.15a1.2,1.2,0,0,1,1.33,2c-19.14,12.7-36.81,24-44,28.22A1.2,1.2,0,0,1,106.27,151.41Zm-7.09,0a1.2,1.2,0,0,1-.63-2.22c1.4-.86,2.46-1.45,3.22-1.82,4.07-2,24.6-15.23,47.75-30.81a1.2,1.2,0,1,1,1.34,2c-20.25,13.63-43.25,28.65-48,31-.69.34-1.68.9-3,1.71A1.19,1.19,0,0,1,99.19,151.41Zm-64.21,0a1.2,1.2,0,0,1-.63-2.22c11.08-6.77,19.38-12,24.68-15.65,2.09-1.43,8.35-5.66,17-11.48C61.37,130.86,46.18,140,29.88,151.19a1.2,1.2,0,1,1-1.36-2C45,137.9,60.27,128.72,75.06,119.84L79.86,117a1.17,1.17,0,0,1,.31-.13,1.23,1.23,0,0,1,.26-.21c6.56-3.95,13.56-8.2,20.32-12.53a1.2,1.2,0,0,1,1.61,1.73l0,.05a1.2,1.2,0,0,1-.33,1.66c-20.57,13.71-37.91,25.41-41.67,28-5.33,3.64-13.67,8.93-24.78,15.72A1.2,1.2,0,0,1,35,151.41Zm7.47,0a1.2,1.2,0,0,1-.63-2.22c8.64-5.33,16.73-10.29,20.74-12.31,2.77-1.39,18.23-11.83,38.17-25.33a1.2,1.2,0,1,1,1.35,2c-20.68,14-35.54,24-38.43,25.48-3.92,2-12,6.9-20.55,12.21A1.2,1.2,0,0,1,42.45,151.41Zm7.61,0a1.2,1.2,0,0,1-.63-2.22c7.2-4.43,14-8.65,18.64-11.59,3.09-2,15-9.89,32.66-21.78a1.2,1.2,0,0,1,1.34,2c-17.68,11.9-29.61,19.85-32.72,21.82-4.65,2.94-11.46,7.17-18.66,11.6A1.2,1.2,0,0,1,50.06,151.41Zm7.11,0a1.2,1.2,0,0,1-.64-2.21C78.79,135.1,94,124.95,97.29,122c1-.91,3.22-2.55,6.76-5a1.2,1.2,0,1,1,1.38,2c-3.41,2.38-5.61,4-6.53,4.85-4.84,4.33-30.35,20.61-41.09,27.4A1.19,1.19,0,0,1,57.16,151.41Zm63.29,0a1.2,1.2,0,0,1-.65-2.21c5.27-3.39,8.56-5.47,9.77-6.21,2.5-1.52,10.88-7.42,19.76-13.68a1.2,1.2,0,1,1,1.38,2c-10.46,7.38-17.5,12.32-19.9,13.77-1.19.72-4.46,2.8-9.72,6.17A1.2,1.2,0,0,1,120.45,151.41Zm-7.41,0a1.2,1.2,0,0,1-.65-2.21c9.79-6.25,15.63-9.87,17.35-10.77,2.08-1.09,8.92-5.6,19.78-13a1.2,1.2,0,0,1,1.36,2c-11.1,7.61-17.83,12.05-20,13.2-1.14.6-5,2.93-17.17,10.67A1.19,1.19,0,0,1,113,151.41Zm-43.47,0a1.2,1.2,0,0,1-.65-2.21c11.89-7.59,24-15.23,33.79-21.37,7.76-4.89,13.9-8.75,17.16-10.85a1.22,1.22,0,0,1,.74-.19,1.19,1.19,0,0,1,.47-.6l1-.64c3-2.08,14.45-10.22,27.47-19.5a1.2,1.2,0,0,1,1.39,2c-13,9.28-24.52,17.43-27.48,19.51l-1,.69a1.22,1.22,0,0,1-.75.19,1.2,1.2,0,0,1-.48.61c-3.27,2.11-9.41,6-17.18,10.86C94.24,136,82.1,143.64,70.22,151.22A1.19,1.19,0,0,1,69.57,151.41Zm-7.51,0a1.2,1.2,0,0,1-.65-2.21c13.8-8.86,28.38-18,40.1-25.41L112.34,117a1.2,1.2,0,0,1,1.28,2l-10.83,6.82c-11.71,7.37-26.29,16.55-40.08,25.4A1.2,1.2,0,0,1,62.06,151.41Zm25.59,0a1.2,1.2,0,0,1-.66-2.2c8.61-5.66,14.17-9.26,16.51-10.69,1.35-.82,4.19-2.65,8-5.17a29.74,29.74,0,0,1-3,1.56c-2.86,1.19-11.64,6.68-26.12,16.3a1.2,1.2,0,0,1-1.33-2c14.81-9.85,23.48-15.25,26.52-16.52,3.95-1.64,18.83-11.47,41.91-27.68a1.2,1.2,0,1,1,1.38,2l-6,4.19,4.62-3.12a1.2,1.2,0,0,1,1.34,2c-20,13.51-41.57,27.75-46.12,30.53-2.32,1.42-7.85,5-16.44,10.65A1.19,1.19,0,0,1,87.65,151.41Zm-11.91,0a1.2,1.2,0,0,1-.66-2.21c17.87-11.62,28.2-17.95,31.58-19.36,4-1.66,18.4-11.46,42.83-29.12a1.2,1.2,0,1,1,1.41,1.95c-24.93,18-39.1,27.63-43.32,29.39-3.2,1.33-13.69,7.78-31.2,19.15A1.19,1.19,0,0,1,75.74,151.41Zm17.2,0a1.2,1.2,0,0,1-.66-2.2C107,139.55,124,128.64,127.71,127c2.65-1.18,12.23-7.89,21.81-14.66a1.2,1.2,0,1,1,1.38,2c-12.11,8.56-19.63,13.74-22.21,14.89-3,1.33-16.75,10-35.09,22A1.19,1.19,0,0,1,92.94,151.41Zm33.49,0a1.2,1.2,0,0,1-.67-2.2l10.86-7.31c2.26-1.53,6.38-4.3,11.57-7.79a1.2,1.2,0,0,1,1.34,2c-5.18,3.48-9.3,6.25-11.56,7.78L127.1,151.2A1.2,1.2,0,0,1,126.44,151.41ZM22.3,151.34a1.2,1.2,0,0,1-.69-2.18C40.1,136.08,57.76,125.47,71.95,117A1.2,1.2,0,1,1,73.18,119C59,127.51,41.42,138.09,23,151.12A1.19,1.19,0,0,1,22.3,151.34Zm112.44-1.15a1.2,1.2,0,0,1-.67-2.19l2.74-1.86c1.55-1,4-2.68,7.08-4.73a1.2,1.2,0,1,1,1.33,2c-3.07,2-5.52,3.68-7.06,4.72L135.41,150A1.2,1.2,0,0,1,134.73,150.19ZM16,149.94a1.2,1.2,0,0,1-.63-2.22c5.18-3.18,12-7.23,19.26-11.52,12-7.1,24.4-14.44,31.58-19.22a1.2,1.2,0,0,1,1.33,2c-7.23,4.81-19.66,12.17-31.69,19.29-7.23,4.28-14.07,8.32-19.22,11.5A1.2,1.2,0,0,1,16,149.94Zm-3.27-1.54a1.2,1.2,0,0,1-.66-2.2c9-5.92,27.94-18.08,48.19-31a1.2,1.2,0,0,1,1.29,2c-20.24,12.88-39.15,25-48.17,31A1.19,1.19,0,0,1,12.72,148.4Zm-3-2a1.2,1.2,0,0,1-.68-2.19c6.38-4.41,12.72-8.35,18.31-11.82,7.48-4.65,13.94-8.66,17.34-11.88,1.35-1.28,6.29-4.66,15.55-10.63a1.2,1.2,0,0,1,1.3,2c-8.88,5.73-14,9.21-15.2,10.36-3.57,3.39-9.82,7.27-17.72,12.18-5.57,3.46-11.87,7.38-18.21,11.75A1.2,1.2,0,0,1,9.76,146.38Zm-2.95-2.83a1.2,1.2,0,0,1-.7-2.18C15,135,24.33,129.24,31.79,124.58c4.86-3,9.05-5.66,11.78-7.57a1.2,1.2,0,1,1,1.38,2c-2.78,2-7,4.59-11.89,7.65C25.62,131.26,16.37,137,7.5,143.33A1.2,1.2,0,0,1,6.81,143.55Zm-2.15-2.91A1.2,1.2,0,0,1,4,138.46C10.31,134,20.94,127,36.45,117a1.2,1.2,0,0,1,1.3,2c-15.49,10-26.09,17-32.4,21.43A1.2,1.2,0,0,1,4.66,140.64Zm-2-4A1.2,1.2,0,0,1,2,134.41c6.07-4.18,15.68-10.41,29.37-19a1.2,1.2,0,1,1,1.28,2C19,126,9.38,132.22,3.33,136.38A1.19,1.19,0,0,1,2.65,136.6Zm-1.22-4.73a1.2,1.2,0,0,1-.6-2.24c9.29-5.38,21.73-12.87,30.52-18.2a1.2,1.2,0,0,1,1.24,2.05C23.8,118.81,11.35,126.31,2,131.7A1.19,1.19,0,0,1,1.44,131.86Zm-.23-3.09a1.2,1.2,0,0,1-.62-2.23c9.3-5.63,22-13.8,30.74-19.45a1.2,1.2,0,0,1,1.3,2C23.87,114.78,11.15,123,1.82,128.6A1.19,1.19,0,0,1,1.2,128.78Zm0-4a1.2,1.2,0,0,1-.61-2.23c8.87-5.23,20.08-12.07,30.75-18.76a1.2,1.2,0,1,1,1.28,2c-10.69,6.7-21.92,13.55-30.8,18.79A1.19,1.19,0,0,1,1.2,124.74Zm0-4.74a1.2,1.2,0,0,1-.61-2.23c9-5.32,20.18-12.17,30.75-18.81a1.2,1.2,0,1,1,1.28,2C22,107.64,10.81,114.51,1.81,119.83A1.19,1.19,0,0,1,1.2,120Zm0-4a1.2,1.2,0,0,1-.65-2.21C7.94,109.06,18.29,102.42,31.33,94a1.2,1.2,0,0,1,1.3,2c-13,8.39-23.39,15-30.78,19.74A1.19,1.19,0,0,1,1.2,116Zm48.73-.7a1.2,1.2,0,0,1-.66-2.2c2.44-1.59,5.94-3.85,11-7.1a1.2,1.2,0,1,1,1.29,2c-5.07,3.24-8.57,5.49-11,7.08A1.19,1.19,0,0,1,49.93,115.28ZM81,114.08a1.2,1.2,0,0,1-.62-2.23c6.16-3.71,13.38-8.11,20.31-12.58a1.2,1.2,0,0,1,1.3,2c-7,4.49-14.2,8.9-20.38,12.62A1.19,1.19,0,0,1,81,114.08Zm40.69-.55a1.2,1.2,0,0,1-.69-2.18c3.65-2.56,15.56-11,28.46-20.21a1.2,1.2,0,1,1,1.39,2c-12.9,9.2-24.82,17.66-28.47,20.22A1.2,1.2,0,0,1,121.74,113.53ZM1.2,111a1.2,1.2,0,0,1-.66-2.21c4.66-3,10.09-6.6,15.86-10.39l14.91-9.78a1.2,1.2,0,1,1,1.31,2l-14.91,9.77c-5.78,3.79-11.21,7.35-15.87,10.4A1.2,1.2,0,0,1,1.2,111Zm48.73,0a1.2,1.2,0,0,1-.65-2.21l11-7a1.2,1.2,0,1,1,1.29,2l-11,7A1.19,1.19,0,0,1,49.93,111ZM81,108.8a1.2,1.2,0,0,1-.69-2.19c5-3.47,11.85-8.12,20.37-13.81a1.2,1.2,0,1,1,1.33,2c-8.5,5.68-15.34,10.32-20.33,13.78A1.19,1.19,0,0,1,81,108.8Zm40.69-1.15a1.2,1.2,0,0,1-.67-2.2c7.47-5,16.52-10.95,28.47-18.77a1.2,1.2,0,1,1,1.31,2c-11.94,7.82-21,13.78-28.46,18.76A1.2,1.2,0,0,1,121.74,107.65Zm-71.81-1.32a1.2,1.2,0,0,1-.64-2.22l11-6.88a1.2,1.2,0,1,1,1.27,2l-11,6.88A1.2,1.2,0,0,1,49.93,106.33ZM1.2,105.94a1.2,1.2,0,0,1-.62-2.23C10,98.07,19.78,91.9,31.32,84.29a1.2,1.2,0,0,1,1.32,2c-11.57,7.63-21.36,13.82-30.82,19.48A1.2,1.2,0,0,1,1.2,105.94ZM81,104.66a1.2,1.2,0,0,1-.64-2.21c6.33-4,14.33-9,16.5-10.27.72-.42,2-1.24,3.83-2.44a1.2,1.2,0,0,1,1.32,2c-1.88,1.24-3.17,2.07-3.95,2.52-1.67,1-7.5,4.59-16.42,10.22A1.19,1.19,0,0,1,81,104.66Zm40.69-.37a1.2,1.2,0,0,1-.67-2.19c9.72-6.57,19.57-13.25,28.46-19.29a1.2,1.2,0,0,1,1.35,2c-8.89,6-18.75,12.72-28.47,19.29A1.19,1.19,0,0,1,121.74,104.29ZM49.93,102.7a1.2,1.2,0,0,1-.63-2.22c4.06-2.49,7.81-4.81,11-6.81a1.2,1.2,0,1,1,1.27,2c-3.23,2-7,4.32-11.05,6.82A1.2,1.2,0,0,1,49.93,102.7ZM1.2,101.19A1.2,1.2,0,0,1,.58,99c9.47-5.69,18.95-11.71,30.73-19.5a1.2,1.2,0,1,1,1.32,2C20.82,89.27,11.32,95.3,1.82,101A1.19,1.19,0,0,1,1.2,101.19ZM121.74,100a1.2,1.2,0,0,1-.67-2.19c11.78-8,20.83-14,28.47-19.12a1.2,1.2,0,0,1,1.33,2c-7.64,5.07-16.68,11.14-28.46,19.1A1.19,1.19,0,0,1,121.74,100ZM81,99.27a1.2,1.2,0,0,1-.64-2.21l18-11.3,2.23-1.4a1.2,1.2,0,0,1,1.28,2l-2.23,1.4-18,11.3A1.19,1.19,0,0,1,81,99.27ZM49.93,97.66a1.2,1.2,0,0,1-.65-2.21c4.13-2.68,7.9-5.12,11.07-7.15a1.2,1.2,0,1,1,1.29,2c-3.16,2-6.93,4.46-11.05,7.14A1.2,1.2,0,0,1,49.93,97.66ZM1.2,96.24A1.2,1.2,0,0,1,.53,94c9.73-6.5,20.95-13.92,30.79-20.36a1.2,1.2,0,1,1,1.31,2C22.8,82.13,11.59,89.55,1.87,96A1.2,1.2,0,0,1,1.2,96.24ZM81,95.39a1.2,1.2,0,0,1-.65-2.21l2.34-1.49L99.81,80.82a1.2,1.2,0,1,1,1.29,2L84,93.71,81.69,95.2A1.2,1.2,0,0,1,81,95.39ZM49.93,94.5a1.2,1.2,0,0,1-.66-2.2c5.08-3.33,8.78-5.86,11-7.52a1.2,1.2,0,0,1,1.44,1.92c-2.26,1.69-6,4.25-11.13,7.61A1.2,1.2,0,0,1,49.93,94.5Zm71.81-.27a1.2,1.2,0,0,1-.93-2l-.07-.09a1.2,1.2,0,0,1,.32-1.67c7.94-5.36,18.37-12.4,28.46-19.26a1.2,1.2,0,0,1,1.35,2l-.13.09a1.2,1.2,0,0,1,.1,2.08C142.74,80.65,133.17,86.91,122.4,94A1.19,1.19,0,0,1,121.74,94.23ZM1.2,91.4a1.2,1.2,0,0,1-.67-2.2c10-6.68,21.22-14.09,30.79-20.35a1.2,1.2,0,0,1,1.31,2C23.08,77.11,11.86,84.53,1.87,91.2A1.19,1.19,0,0,1,1.2,91.4ZM81,91.22A1.2,1.2,0,0,1,80.41,89c4-2.56,8-5.09,9.82-6.28l7.88-5.16a1.2,1.2,0,0,1,1.31,2l-7.87,5.15c-1.47,1-4.33,2.8-9.86,6.31A1.2,1.2,0,0,1,81,91.22ZM49.93,89.67a1.2,1.2,0,0,1-.66-2.2c5.51-3.63,9.3-6.28,11-7.65a1.2,1.2,0,0,1,1.53,1.85c-1.75,1.45-5.51,4.07-11.18,7.8A1.2,1.2,0,0,1,49.93,89.67Zm71.81-1.81a1.2,1.2,0,0,1-.67-2.2c8.11-5.47,18.52-12.5,28.46-19.26a1.2,1.2,0,0,1,1.35,2c-9.94,6.76-20.35,13.79-28.47,19.27A1.19,1.19,0,0,1,121.74,87.86ZM1.2,87.12a1.2,1.2,0,0,1-.67-2.19c8.23-5.57,20.26-13.65,30.79-20.5a1.2,1.2,0,0,1,1.31,2C22.11,73.28,10.1,81.35,1.87,86.91A1.19,1.19,0,0,1,1.2,87.12ZM81,86.91a1.2,1.2,0,0,1-.64-2.21c4.36-2.75,7-4.44,8-5.17S91.6,77.29,95,75.06a1.2,1.2,0,1,1,1.33,2c-3.32,2.21-5.51,3.7-6.5,4.42s-3.64,2.44-8.1,5.26A1.19,1.19,0,0,1,81,86.91ZM49.93,84.68a1.2,1.2,0,0,1-.65-2.21l11.07-7.14a1.2,1.2,0,1,1,1.3,2L50.58,84.49A1.19,1.19,0,0,1,49.93,84.68Zm-48.73-2a1.2,1.2,0,0,1-.66-2.21c11-7.21,22-14.22,30.8-19.76a1.2,1.2,0,0,1,1.39.08,1.2,1.2,0,0,1,.54-1.29c10-6.26,16.43-10,19-11.12,6-2.65,43-25.81,67.51-41.13L130.56.5a1.2,1.2,0,0,1,1.27,2L121,9.3C96.49,24.66,59.41,47.87,53.22,50.59c-2.41,1.06-8.87,4.85-18.68,11a1.2,1.2,0,0,1-1.39-.09,1.2,1.2,0,0,1-.53,1.29C23.79,68.28,12.87,75.29,1.86,82.49A1.2,1.2,0,0,1,1.2,82.68Zm80.68-.17a1.2,1.2,0,0,1-.65-2.21l9.64-6.14a1.2,1.2,0,1,1,1.29,2l-9.64,6.13A1.2,1.2,0,0,1,81.89,82.51Zm39.51-.74a1.2,1.2,0,0,1-.66-2.2c10-6.58,20-13.06,28.82-18.74a1.2,1.2,0,1,1,1.3,2C142,68.52,132.06,75,122.05,81.57A1.19,1.19,0,0,1,121.39,81.77ZM1.2,79.25A1.2,1.2,0,0,1,.55,77c13-8.32,28-18.1,38.07-24.73a1.2,1.2,0,0,1,1.32,2c-10.1,6.63-25,16.42-38.09,24.75A1.19,1.19,0,0,1,1.2,79.25Zm48.73-.12a1.2,1.2,0,0,1-.65-2.21C53.2,74.39,56.93,72,60.35,69.8a1.2,1.2,0,0,1,1.29,2c-3.42,2.18-7.15,4.58-11.06,7.11A1.19,1.19,0,0,1,49.93,79.13Zm70.91-.44a1.2,1.2,0,0,1-.68-2.19l.93-.64c9-6.18,19.2-13.19,28.44-19.4a1.2,1.2,0,0,1,1.34,2c-9.23,6.2-19.42,13.21-28.42,19.39l-.93.64A1.2,1.2,0,0,1,120.84,78.7ZM1.2,75.28a1.2,1.2,0,0,1-.65-2.21c8.91-5.73,19.35-12.54,32.8-21.41-9.56,6-21.87,13.44-31.54,19.25A1.2,1.2,0,0,1,.58,68.85c9.67-5.81,22-13.24,31.53-19.24a1.2,1.2,0,0,1,1.34,2l.76-.5a1.2,1.2,0,0,1,1.32,2C21.66,62.25,11,69.24,1.85,75.09A1.19,1.19,0,0,1,1.2,75.28Zm118.51-.34a1.2,1.2,0,0,1-.64-2.22c13.36-8.43,23-14.62,30.48-19.46a1.2,1.2,0,0,1,1.31,2c-7.44,4.85-17.14,11-30.51,19.48A1.2,1.2,0,0,1,119.71,74.94Zm-69.78-.42a1.2,1.2,0,0,1-.67-2.2Q54.87,68.56,60.31,65a1.2,1.2,0,0,1,1.32,2q-5.45,3.6-11,7.36A1.2,1.2,0,0,1,49.93,74.52Zm68.26-2.83a1.2,1.2,0,0,1-.65-2.21c13.6-8.73,24.07-15.55,32-20.84a1.2,1.2,0,0,1,1.33,2c-7.94,5.3-18.42,12.12-32,20.86A1.19,1.19,0,0,1,118.19,71.69Zm-68.26-2a1.2,1.2,0,0,1-.67-2.2q5.57-3.73,11-7.31a1.19,1.19,0,0,1,.56-.19,1.2,1.2,0,0,1,.4-.44c6.77-4.45,12.36-8,17.6-11.21s19.91-11.57,35.39-20.41c11.34-6.47,23.06-13.16,31.31-18A1.2,1.2,0,0,1,146.71,12c-8.26,4.8-20,11.49-31.33,18C99.92,38.83,85.32,47.16,80.06,50.37S69.27,57.1,62.53,61.54a1.2,1.2,0,0,1-.56.19,1.2,1.2,0,0,1-.4.44q-5.42,3.57-11,7.3A1.2,1.2,0,0,1,49.93,69.67ZM81,68.81a1.2,1.2,0,0,1-.64-2.22l1.76-1.1a1.2,1.2,0,0,1,1.27,2l-1.76,1.1A1.19,1.19,0,0,1,81,68.81Zm35-.26a1.2,1.2,0,0,1-.65-2.21c11.31-7.34,24.18-15.69,34.18-22.16a1.2,1.2,0,1,1,1.3,2C140.86,52.67,128,61,116.68,68.36A1.19,1.19,0,0,1,116,68.55ZM1.2,67.08a1.2,1.2,0,0,1-.61-2.23c12-7.09,21.9-13.11,29.52-17.87a1.2,1.2,0,1,1,1.27,2c-7.64,4.77-17.58,10.8-29.57,17.9A1.2,1.2,0,0,1,1.2,67.08Zm111.93-1.36a1.2,1.2,0,0,1-.66-2.2l5.69-3.72L111.49,64a1.2,1.2,0,0,1-1.28-2c16.2-10.18,30.18-18.85,39.37-24.41a1.2,1.2,0,0,1,1.4,1.94,1.21,1.21,0,0,1,.23.26,1.2,1.2,0,0,1-.35,1.66c-6.31,4.09-22.57,14.64-37.07,24.13A1.19,1.19,0,0,1,113.13,65.72ZM81,64.65a1.2,1.2,0,0,1-.63-2.22c3-1.86,10.6-6.34,20.22-12,15.3-9,36.26-21.4,48.87-29.21a1.2,1.2,0,1,1,1.26,2c-12.63,7.83-33.6,20.2-48.92,29.23-9.6,5.67-17.19,10.14-20.17,12A1.19,1.19,0,0,1,81,64.65Zm-31.12-.39A1.2,1.2,0,0,1,49.29,62c1.71-1.09,3.11-2,4.1-2.56,2.24-1.36,7.5-4.4,14.76-8.61,21.51-12.46,61.54-35.64,73.93-44.64a1.2,1.2,0,0,1,1.41,1.94C131,17.24,92.41,39.59,69.35,52.95c-7,4-12.5,7.24-14.72,8.59-1,.6-2.37,1.46-4.06,2.54A1.2,1.2,0,0,1,49.93,64.26ZM1.2,63.67a1.2,1.2,0,0,1-.61-2.23C13,54,22.62,48.09,29.07,43.71a1.2,1.2,0,0,1,1.35,2C23.93,50.1,14.3,56.09,1.81,63.5A1.2,1.2,0,0,1,1.2,63.67ZM106.9,62.4a1.2,1.2,0,0,1-.63-2.22c15.62-9.64,32.21-19.94,43.3-26.87a1.2,1.2,0,0,1,1.27,2c-11.09,6.94-27.69,17.23-43.31,26.88A1.19,1.19,0,0,1,106.9,62.4Zm-15.18-.19A1.2,1.2,0,0,1,91.1,60C110,48.37,135.48,33.2,149.63,25.52a1.2,1.2,0,1,1,1.14,2.11c-14.11,7.66-39.51,22.8-58.43,34.4A1.2,1.2,0,0,1,91.72,62.21Zm-13.93-.47a1.2,1.2,0,0,1-.57-2.26c.56-.3,1-.54,1.39-.69,7.55-3.31,50-28.38,70.15-41.69a1.2,1.2,0,1,1,1.33,2C129.92,32.45,87.19,57.64,79.58,61c-.31.14-.73.35-1.22.61A1.2,1.2,0,0,1,77.79,61.74Zm-38.21,0a1.2,1.2,0,0,1-.64-2.21c7-4.45,11.41-7,13.48-8,6.26-2.75,46.19-27.54,70-42.35l12.26-7.6a1.2,1.2,0,0,1,1.26,2l-12.26,7.6C98.26,27.06,59.79,50.95,53.37,53.76c-1.93.85-6.35,3.47-13.15,7.79A1.2,1.2,0,0,1,39.58,61.74Zm6.78,0a1.2,1.2,0,0,1-.65-2.21c2.86-1.83,5-3.18,6.37-4,2.24-1.36,7.5-4.4,14.77-8.62C88.44,34.4,124.58,13.46,138.77,3.68a1.2,1.2,0,1,1,1.36,2C125.86,15.49,89.67,36.46,68,49c-7,4-12.51,7.25-14.73,8.59-1.35.82-3.47,2.15-6.31,4A1.2,1.2,0,0,1,46.35,61.74Zm22.92,0a1.2,1.2,0,0,1-.65-2.21c4.19-2.7,8-5.07,11.51-7.24,5.29-3.23,19.88-11.56,35.33-20.38,11.69-6.67,23.78-13.58,32.08-18.41a1.2,1.2,0,1,1,1.21,2.07c-8.3,4.83-20.4,11.74-32.09,18.42-15.44,8.81-30,17.14-35.27,20.34-3.54,2.16-7.29,4.52-11.46,7.21A1.19,1.19,0,0,1,69.27,61.74Zm31-.52A1.2,1.2,0,0,1,99.67,59c15.75-9.8,37.14-22.83,49.95-30a1.2,1.2,0,0,1,1.17,2.1C140.1,37.08,121,48.55,100.94,61A1.19,1.19,0,0,1,100.31,61.22ZM1.2,59.32A1.2,1.2,0,0,1,.56,57.1c12.14-7.68,23.53-15,29.25-18.69a1.2,1.2,0,1,1,1.3,2c-5.71,3.69-17.12,11-29.26,18.7A1.19,1.19,0,0,1,1.2,59.32Zm0-3.14A1.2,1.2,0,0,1,.57,54C15.36,44.81,25.62,38.1,28.72,35.54,33.18,31.85,60.6,14.28,83.42.18a1.2,1.2,0,0,1,1.26,2C59.15,18,34.22,34.1,30.25,37.39,25.9,41,10.58,50.59,1.83,56A1.2,1.2,0,0,1,1.2,56.17Zm0-4.76a1.2,1.2,0,0,1-.63-2.22C14.65,40.45,24.43,34,27.4,31.58c4.19-3.46,28-18.76,48.31-31.4a1.2,1.2,0,0,1,1.27,2c-23.4,14.57-44.5,28.28-48,31.21-4.17,3.44-18.76,12.63-27.09,17.8A1.19,1.19,0,0,1,1.2,51.41Zm50-4.77a1.2,1.2,0,0,1-.66-2.2C60.81,37.72,67.13,33.56,68.77,32.6c4.9-2.88,35-20.37,56.09-32.44a1.2,1.2,0,1,1,1.19,2.08C104.94,14.3,74.88,31.78,70,34.66c-1.71,1-9.3,6-18.08,11.78A1.19,1.19,0,0,1,51.25,46.64Zm-50-.49a1.2,1.2,0,0,1-.65-2.21l5.91-3.79C26.28,27.43,45,15.41,48.33,13.44,51,11.87,59.73,6.66,70.56.17a1.2,1.2,0,0,1,1.23,2.06C61,8.72,52.2,13.94,49.55,15.5c-3.3,2-22,14-41.8,26.66L1.85,46A1.2,1.2,0,0,1,1.2,46.15Zm50-3.65a1.2,1.2,0,0,1-.66-2.2c8.85-5.85,15.25-10.07,16.9-11l6-3.53C83.16,20,101.27,9.22,116.82.16A1.2,1.2,0,0,1,118,2.24C102.48,11.29,84.38,22,74.65,27.78l-6,3.54c-1.6.94-8.26,5.34-16.79,11A1.2,1.2,0,0,1,51.21,42.5Zm-50-.68A1.2,1.2,0,0,1,.56,39.6C26.31,23.31,43.64,12.17,46.92,9.81,49,8.32,54.28,4.9,61.82.18a1.2,1.2,0,1,1,1.27,2c-7.5,4.69-12.74,8.08-14.77,9.54C43.41,15.3,11.5,35.52,1.84,41.63A1.19,1.19,0,0,1,1.2,41.81Zm49-2.1a1.2,1.2,0,0,1-.72-2.16C58.17,31.07,86.55,14,110.21.17a1.2,1.2,0,0,1,1.21,2.07C87.82,16,59.53,33.05,50.91,39.48A1.19,1.19,0,0,1,50.19,39.72Zm-2-2.51a1.2,1.2,0,0,1-.74-2.14C54.8,29.28,80.73,13.25,102.54.17a1.2,1.2,0,1,1,1.23,2.06C83,14.68,56.2,31.23,48.91,36.95A1.19,1.19,0,0,1,48.17,37.2Zm-47-.72a1.2,1.2,0,0,1-.63-2.22c9.69-6,19.25-11.94,27.16-16.86C36.61,11.88,43.63,7.52,46.18,6L55.69.18a1.2,1.2,0,0,1,1.25,2.05L47.43,8C44.89,9.56,37.88,13.92,29,19.44,21.08,24.36,11.53,30.3,1.83,36.3A1.19,1.19,0,0,1,1.2,36.48Zm42.93-1.41a1.2,1.2,0,0,1-.68-2.19c10.91-7.41,32.38-20.11,54-32.72a1.2,1.2,0,0,1,1.21,2.07c-21.54,12.59-43,25.26-53.82,32.63A1.2,1.2,0,0,1,44.13,35.07Zm-4.43-.42a1.2,1.2,0,0,1-.64-2.21C45.13,28.59,62.17,18.1,80.21,7l11-6.8a1.2,1.2,0,0,1,1.26,2L81.47,9c-18,11.11-35.07,21.6-41.13,25.44A1.19,1.19,0,0,1,39.7,34.65ZM1.2,32.26A1.2,1.2,0,0,1,.58,30C18.19,19.34,35.2,8.95,42.72,4.36l3-1.81L49.52.18a1.2,1.2,0,1,1,1.27,2L46.93,4.6,44,6.4C36.45,11,19.44,21.39,1.82,32.08A1.2,1.2,0,0,1,1.2,32.26Zm0-3.33a1.2,1.2,0,0,1-.6-2.24L5.17,24c6.18-3.59,11.05-6.43,13.58-8C22,14.12,32,7.89,44.16.19a1.2,1.2,0,1,1,1.28,2C33.24,9.93,23.22,16.17,20,18.12c-2.54,1.54-7.43,4.38-13.61,8L1.8,28.76A1.19,1.19,0,0,1,1.2,28.93Zm0-3.64A1.2,1.2,0,0,1,.62,23C8.65,18.56,15,15,18,13.21c2.82-1.71,10.64-6.7,20.42-13a1.2,1.2,0,1,1,1.3,2C29.9,8.54,22.06,13.54,19.22,15.26c-3,1.84-9.38,5.38-17.41,9.87A1.2,1.2,0,0,1,1.21,25.28Zm.53-5A1.2,1.2,0,0,1,1.15,18c8.61-4.81,14.76-8.08,17.31-9.2C20.17,8.08,24.86,5.17,32.4.2a1.2,1.2,0,0,1,1.32,2C26,7.32,21.28,10.21,19.42,11c-2.45,1.07-8.68,4.39-17.1,9.1A1.2,1.2,0,0,1,1.74,20.28ZM3.14,16a1.2,1.2,0,0,1-.56-2.26c6.82-3.62,12-6.26,14.29-7.26A101.53,101.53,0,0,0,27.06.2a1.2,1.2,0,0,1,1.33,2A99.89,99.89,0,0,1,17.83,8.71c-2.21,1-7.37,3.59-14.13,7.18A1.2,1.2,0,0,1,3.14,16Zm4-6.11A1.2,1.2,0,0,1,6.5,7.69c4.1-2.42,8-4.74,11.58-6.89a1.2,1.2,0,0,1,1.24,2.06C15.73,5,11.83,7.33,7.72,9.75A1.2,1.2,0,0,1,7.11,9.92Z"/></g></g></svg>