<svg xmlns="http://www.w3.org/2000/svg" viewBox="0 0 151.41 151.41"><defs><style>.cls-1{fill:#4dace1;}</style></defs><title>twitter</title><g id="Vrstva_2" data-name="Vrstva 2"><g id="Objects"><path class="cls-1" d="M26.69,151.41a1.2,1.2,0,0,1-.63-2.22c13.45-8.3,34.31-21.42,48.86-31.09a1.2,1.2,0,1,1,1.33,2c-14.58,9.69-35.47,22.83-48.93,31.14A1.2,1.2,0,0,1,26.69,151.41Zm56.49,0a1.2,1.2,0,0,1-.65-2.21c12.84-8.31,34.94-22.54,38.67-24.49,2.57-1.34,12.63-8.07,28.32-18.94a1.2,1.2,0,1,1,1.37,2c-11.16,7.73-25.17,17.32-28.58,19.09-2.67,1.39-16.69,10.28-38.48,24.37A1.2,1.2,0,0,1,83.18,151.41Zm-7.89,0a1.2,1.2,0,0,1-.66-2.2c7-4.63,16.22-10.53,19.92-12.33,4.61-2.24,30.3-18.72,55-35.26a1.2,1.2,0,1,1,1.34,2c-22.44,15-50,32.86-55.27,35.42C92.77,140.42,86,144.63,76,151.21A1.19,1.19,0,0,1,75.3,151.41Zm-35.51,0a1.2,1.2,0,0,1-.66-2.2c17-11.15,39-25,55-35.09,10.26-6.46,17.68-11.13,19.32-12.28,3.77-2.65,20.31-14.37,36-25.6a1.2,1.2,0,1,1,1.4,2c-15.71,11.23-32.25,23-36,25.61-1.69,1.18-9.13,5.87-19.42,12.34-16,10.1-38,23.93-55,35.07A1.2,1.2,0,0,1,39.79,151.41Zm74.05,0a1.2,1.2,0,0,1-.66-2.21c6.89-4.49,20.55-13.27,36.38-23.26a1.2,1.2,0,0,1,1.28,2c-15.83,10-29.47,18.76-36.35,23.25A1.2,1.2,0,0,1,113.84,151.41Zm-23.18,0A1.2,1.2,0,0,1,90,149.2c16.91-11,28.51-18.4,31-19.92s10.68-7.28,21-14.57l7.47-5.26a1.2,1.2,0,1,1,1.38,2l-7.47,5.26c-10.37,7.31-18.56,13.09-21.16,14.66s-14.07,8.94-31,19.88A1.19,1.19,0,0,1,90.66,151.41Zm-32.3,0a1.2,1.2,0,0,1-.66-2.2C78.5,135.41,91,127.2,95,124.8c1.33-.81,4.18-2.65,8.06-5.18a29.52,29.52,0,0,1-3,1.57c-5.17,2.15-27.55,17.17-46.48,30a1.2,1.2,0,0,1-1.35-2c19-12.9,41.53-28,46.9-30.24,4.48-1.87,22.4-13.83,50.45-33.71a1.2,1.2,0,0,1,1.39,2c-4.23,3-9.27,6.55-14.52,10.21,4.43-3,8.87-6,13.15-8.91a1.2,1.2,0,1,1,1.35,2C128,106.1,101.43,123.65,96.21,126.85c-3.84,2.35-16.7,10.77-37.18,24.36A1.19,1.19,0,0,1,58.36,151.41Zm60.56,0a1.2,1.2,0,0,1-.66-2.2c5.76-3.77,15.61-9.83,31-19.07a1.2,1.2,0,1,1,1.23,2.06c-9.67,5.8-23.4,14.09-30.93,19A1.19,1.19,0,0,1,118.93,151.41Zm-72.62,0a1.2,1.2,0,0,1-.66-2.2C67,135.08,92.32,118.55,98.12,116.13c4.44-1.85,21.72-13.73,51.38-35.31a1.2,1.2,0,1,1,1.41,1.94c-30.22,22-47.19,33.64-51.87,35.59C93.36,120.71,66.6,138.23,47,151.21A1.19,1.19,0,0,1,46.31,151.41Zm-13.84,0a1.2,1.2,0,0,1-.67-2.2c17.46-11.62,43.72-28.15,61.09-39.08,10.24-6.45,17.64-11.1,19.28-12.25,3.43-2.4,20.26-14.33,37.33-26.54a1.2,1.2,0,0,1,1.4,2C133.83,85.49,117,97.43,113.56,99.84c-1.69,1.18-9.11,5.85-19.38,12.32-17.37,10.93-43.61,27.45-61,39A1.2,1.2,0,0,1,32.47,151.41Zm31.34,0a1.2,1.2,0,0,1-.67-2.2c26.52-17.87,51.65-34,56-36,3-1.34,14.55-9.52,27.93-19l2.42-1.71a1.2,1.2,0,0,1,1.39,2l-2.42,1.71c-14,9.94-25.13,17.79-28.34,19.23-4.2,1.88-29.69,18.25-55.67,35.75A1.2,1.2,0,0,1,63.81,151.41Zm33.72,0a1.2,1.2,0,0,1-.67-2.2L116,136.31l12.06-8.13c2.35-1.59,6.7-4.52,12.18-8.2l9.28-6.24a1.2,1.2,0,1,1,1.34,2L141.6,122c-5.47,3.68-9.82,6.6-12.17,8.19l-12.07,8.13L98.19,151.2A1.2,1.2,0,0,1,97.52,151.41Zm6.66,0a1.2,1.2,0,0,1-.67-2.19l21.85-14.82,2.9-2c2.92-2,9-6,16.59-11.05l4.69-3.12a1.2,1.2,0,0,1,1.33,2l-4.69,3.12c-7.63,5.06-13.66,9.06-16.57,11l-2.9,2L104.85,151.2A1.2,1.2,0,0,1,104.18,151.41Zm4.33,0a1.2,1.2,0,0,1-.68-2.19c4.37-3,22-14.67,41.71-27.38a1.2,1.2,0,1,1,1.3,2c-19.66,12.7-37.31,24.38-41.67,27.35A1.2,1.2,0,0,1,108.52,151.41Zm-38.33,0a1.2,1.2,0,0,1-.68-2.19c10.44-7.2,20.11-13.81,23.73-15.57,4.7-2.29,30.48-19,56.29-36.59a1.2,1.2,0,1,1,1.35,2c-23.07,15.68-51.31,34.19-56.59,36.76-3.47,1.69-13.06,8.24-23.42,15.39A1.2,1.2,0,0,1,70.19,151.41Zm58.1,0a1.2,1.2,0,0,1-.62-2.23c5-3.05,11.25-6.88,19-11.71a1.2,1.2,0,1,1,1.27,2c-7.79,4.83-14,8.67-19.05,11.73A1.2,1.2,0,0,1,128.28,151.39ZM19.68,151a1.2,1.2,0,0,1-.62-2.23c15-9.05,31.73-19.37,40.46-24.88.93-.59,2.71-1.75,5.29-3.46a1.2,1.2,0,0,1,1.32,2c-2.59,1.71-4.38,2.89-5.33,3.49-8.74,5.52-25.46,15.84-40.5,24.91A1.2,1.2,0,0,1,19.68,151Zm-4.88-1.53a1.2,1.2,0,0,1-.62-2.23c5.07-3.09,10.26-6.29,15.18-9.34,10.83-6.7,20.18-12.48,24.65-14.73.54-.27,1.66-.95,3.34-2a1.2,1.2,0,1,1,1.29,2c-1.8,1.14-2.92,1.82-3.55,2.13-4.38,2.2-13.69,8-24.47,14.63-4.93,3-10.12,6.26-15.19,9.35A1.2,1.2,0,0,1,14.8,149.46Zm-4-2.3a1.2,1.2,0,0,1-1.19-1.39,1.2,1.2,0,0,1-1.17-2.08c10.62-7.75,21.65-15.16,34.69-23.32a1.2,1.2,0,1,1,1.27,2C33.09,129.47,23.32,136,14,142.62c11.5-6.91,25.65-15.56,34.64-21.56a1.2,1.2,0,0,1,1.33,2C39.93,129.77,23.45,139.78,11.39,147A1.2,1.2,0,0,1,10.78,147.16ZM6.33,143a1.2,1.2,0,0,1-.71-2.17c9.78-7.19,20.17-14.27,31.77-21.62a1.2,1.2,0,0,1,1.29,2C27.13,128.55,16.78,135.59,7,142.75A1.2,1.2,0,0,1,6.33,143Zm-2.78-4.32a1.2,1.2,0,0,1-.65-2.21C8.16,133.09,16.85,128,26,122.51l7.5-4.44a1.2,1.2,0,0,1,1.22,2.06l-7.5,4.45C18.09,130,9.42,135.14,4.2,138.48A1.2,1.2,0,0,1,3.55,138.67Zm-1.16-2.8a1.2,1.2,0,0,1-.66-2.2c5-3.34,14.58-9.51,26.85-17.37a1.2,1.2,0,0,1,1.29,2c-12.26,7.86-21.78,14-26.82,17.35A1.2,1.2,0,0,1,2.39,135.87Zm-.86-3.42a1.2,1.2,0,0,1-.68-2.19c6.27-4.32,12.49-8.18,18-11.59,2.21-1.37,4.31-2.68,6.27-3.92a1.2,1.2,0,1,1,1.29,2c-2,1.25-4.07,2.56-6.29,3.94C14.63,124.1,8.43,128,2.21,132.24A1.19,1.19,0,0,1,1.53,132.45Zm-.33-4.67a1.2,1.2,0,0,1-.68-2.19c6.82-4.71,13.74-9.11,20.2-13.15a1.2,1.2,0,0,1,1.27,2c-6.43,4-13.32,8.4-20.11,13.09A1.2,1.2,0,0,1,1.2,127.78Zm0-4.37a1.2,1.2,0,0,1-.68-2.19c8.27-5.62,20.82-13.79,38.36-25a1.2,1.2,0,1,1,1.29,2c-17.52,11.19-30.05,19.35-38.3,24.95A1.19,1.19,0,0,1,1.2,123.41Zm0-5.29a1.2,1.2,0,0,1-.66-2.2c10.58-7,25.21-16.15,35.29-22.45a1.2,1.2,0,0,1,1.27,2C27,101.8,12.42,111,1.86,117.93A1.2,1.2,0,0,1,1.2,118.13Zm0-4.85A1.2,1.2,0,0,1,.59,111c9.07-5.37,20.87-12.48,33.25-20a1.2,1.2,0,0,1,1.25,2c-12.38,7.56-24.2,14.69-33.28,20.06A1.2,1.2,0,0,1,1.2,113.28Zm22.46-.06A1.2,1.2,0,0,1,23,111l.17-.11c5.88-3.67,10.52-6.57,13.11-8.54.74-.56,2.64-1.83,6-4a1.2,1.2,0,0,1,1.31,2c-3.18,2.06-5.13,3.37-5.81,3.88-2.68,2-7.37,5-13.29,8.66l-.17.11A1.19,1.19,0,0,1,23.66,113.22Zm8.83-.75a1.2,1.2,0,0,1-.7-2.18,41.85,41.85,0,0,0,4.38-3.51c1.05-1,4.17-3.19,9.8-6.89a1.2,1.2,0,1,1,1.32,2,104.92,104.92,0,0,0-9.46,6.63,44,44,0,0,1-4.63,3.72A1.19,1.19,0,0,1,32.5,112.46ZM1.2,109.8a1.2,1.2,0,0,1-.64-2.22c9.71-6.08,21.2-13.52,31.21-20a1.2,1.2,0,1,1,1.31,2c-10,6.5-21.52,14-31.25,20A1.19,1.19,0,0,1,1.2,109.8ZM45.6,108a1.2,1.2,0,0,1-.65-2.21l7.47-4.76a1.2,1.2,0,0,1,1.29,2l-7.47,4.76A1.19,1.19,0,0,1,45.6,108Zm-44.4-2.1a1.2,1.2,0,0,1-.62-2.23C10.36,97.81,21.35,91,30.75,85A1.23,1.23,0,0,1,31,84.9a1.2,1.2,0,0,1,.21-.17l4-2.59a1.2,1.2,0,1,1,1.3,2l-4,2.59a1.19,1.19,0,0,1-.24.12A1.23,1.23,0,0,1,32,87c-9.42,6-20.43,12.81-30.22,18.72A1.19,1.19,0,0,1,1.2,105.93Zm0-4.76a1.2,1.2,0,0,1-.62-2.23c10.23-6.18,21.49-13.18,30.9-19.2a1.2,1.2,0,0,1,1.29,2c-9.42,6-20.71,13-31,19.23A1.2,1.2,0,0,1,1.2,101.17ZM107.07,98a1.2,1.2,0,0,1-.67-2.2c12-8.11,27.92-18.51,43.15-28.47a1.2,1.2,0,0,1,1.31,2c-15.22,10-31.09,20.35-43.12,28.45A1.2,1.2,0,0,1,107.07,98ZM1.2,96.81A1.2,1.2,0,0,1,.55,94.6C8.93,89.24,18.71,82.95,28.3,76.77a1.2,1.2,0,1,1,1.3,2C20,85,10.22,91.26,1.85,96.62A1.2,1.2,0,0,1,1.2,96.81Zm110.05-4.91a1.2,1.2,0,0,1-.67-2.19c14.17-9.57,28-19,39-26.41a1.2,1.2,0,0,1,1.35,2c-10.95,7.46-24.78,16.84-39,26.42A1.19,1.19,0,0,1,111.25,91.89ZM1.2,91.7a1.2,1.2,0,0,1-.66-2.2l7.85-5.15L25.6,73.07a1.2,1.2,0,0,1,1.31,2L9.71,86.35,1.86,91.5A1.2,1.2,0,0,1,1.2,91.7Zm35.1-4.45A1.2,1.2,0,0,1,35.64,85l2.54-1.65a1.2,1.2,0,1,1,1.31,2L37,87.06A1.19,1.19,0,0,1,36.3,87.25ZM1.2,87a1.2,1.2,0,0,1-.63-2.22c7.18-4.44,14.62-9.22,23.42-15a1.2,1.2,0,0,1,1.32,2C16.49,77.6,9,82.39,1.83,86.85A1.19,1.19,0,0,1,1.2,87Zm113.65-1.88a1.2,1.2,0,0,1-.67-2.19c9.71-6.56,23.94-16.15,35.37-23.65a1.2,1.2,0,1,1,1.32,2c-11.42,7.49-25.64,17.07-35.35,23.63A1.2,1.2,0,0,1,114.85,85.15ZM1.2,82.25A1.2,1.2,0,0,1,.57,80c6.82-4.24,13.89-8.79,22.24-14.31a1.2,1.2,0,1,1,1.32,2C15.76,73.26,8.68,77.81,1.83,82.07A1.2,1.2,0,0,1,1.2,82.25Zm116.7-4.84a1.2,1.2,0,0,1-.66-2.2l.37-.24-.07-.1a1.2,1.2,0,0,1,.32-1.67c8.38-5.66,20.78-14,31.67-21.48a1.2,1.2,0,0,1,1.35,2l-.45.31a1.2,1.2,0,0,1,.42,2.19c-8.43,5.37-19.29,12.44-32.29,21A1.19,1.19,0,0,1,117.9,77.41ZM1.2,76.84a1.2,1.2,0,0,1-.67-2.2c9-6,18.23-12.06,26.07-17.18a1.2,1.2,0,0,1,1.31,2c-7.84,5.12-17.1,11.22-26.06,17.17A1.19,1.19,0,0,1,1.2,76.84ZM1.2,72a1.2,1.2,0,0,1-.67-2.2c8.19-5.43,16.74-11.07,24.1-15.87a1.2,1.2,0,0,1,1.31,2C18.6,60.74,10,66.37,1.86,71.8A1.2,1.2,0,0,1,1.2,72ZM120,69.56a1.2,1.2,0,0,1-.67-2.19C131.69,59,141.58,52.3,149.53,46.86a1.2,1.2,0,0,1,1.36,2c-8,5.44-17.84,12.15-30.23,20.51A1.2,1.2,0,0,1,120,69.56ZM1.2,67.65a1.2,1.2,0,0,1-.67-2.2c8.76-5.88,16.44-11,22.83-15.12a1.2,1.2,0,0,1,1.31,2c-6.37,4.14-14,9.22-22.79,15.1A1.19,1.19,0,0,1,1.2,67.65ZM33.61,66a1.19,1.19,0,0,1-1-.53,1.18,1.18,0,0,1,.32-1.65l0,0a1.2,1.2,0,0,1,1.32,2A1.24,1.24,0,0,1,33.61,66Zm-5.85-.93a1.2,1.2,0,0,1-.67-2.2l2.6-1.73a1.2,1.2,0,1,1,1.33,2l-2.6,1.73A1.2,1.2,0,0,1,27.75,65.08ZM1.2,63.41A1.2,1.2,0,0,1,.55,61.2C8.63,56,16.31,51.07,22.75,47a1.2,1.2,0,1,1,1.27,2C17.59,53.1,9.93,58,1.85,63.22A1.2,1.2,0,0,1,1.2,63.41ZM121,62.71a1.2,1.2,0,0,1-.66-2.21c10.74-7,21.11-13.71,29.2-18.85a1.2,1.2,0,1,1,1.29,2c-8.08,5.14-18.45,11.83-29.18,18.84A1.2,1.2,0,0,1,121,62.71ZM1.2,60.06a1.2,1.2,0,0,1-.65-2.21c6.39-4.12,13.6-8.81,22-14.33a1.2,1.2,0,1,1,1.31,2C15.46,51,8.25,55.74,1.85,59.86A1.19,1.19,0,0,1,1.2,60.06Zm72.13-.94a1.2,1.2,0,0,1-.65-2.21L74,56.07a1.2,1.2,0,0,1,1.29,2L74,58.93A1.2,1.2,0,0,1,73.33,59.12Zm47.94-.3a1.2,1.2,0,0,1-.68-2.19c8.72-6,19.9-13.61,29-19.58a1.2,1.2,0,1,1,1.32,2c-9,6-20.2,13.58-28.91,19.55A1.19,1.19,0,0,1,121.27,58.82Zm-54-.42a1.2,1.2,0,0,1-.64-2.21c2.17-1.37,4.52-2.84,7-4.38a1.2,1.2,0,0,1,1.27,2c-2.47,1.54-4.81,3-7,4.37A1.19,1.19,0,0,1,67.25,58.4Zm-4.84-1a1.2,1.2,0,0,1-.65-2.21c4.85-3.13,8.27-5.33,9.47-6.09.59-.37,1.53-1,2.76-1.69a1.2,1.2,0,0,1,1.24,2.06c-1.21.73-2.13,1.29-2.71,1.66-1.2.76-4.61,3-9.45,6.08A1.2,1.2,0,0,1,62.41,57.41ZM1.2,56a1.2,1.2,0,0,1-.65-2.21c6.62-4.3,14-9.14,22.6-14.8a1.2,1.2,0,0,1,1.32,2c-8.59,5.66-16,10.51-22.61,14.8A1.19,1.19,0,0,1,1.2,56Zm55.35-.35a1.2,1.2,0,0,1-.64-2.21c7.7-4.86,12.33-7.61,14.16-8.41,1.1-.48,3-1.43,5.53-2.83a1.2,1.2,0,0,1,1.14,2.11c-2.63,1.43-4.55,2.41-5.71,2.92-1.69.74-6.35,3.52-13.84,8.25A1.2,1.2,0,0,1,56.56,55.7Zm64.74-.88a1.2,1.2,0,0,1-.64-2.21c13-8.25,22.45-14.37,28.88-18.7a1.2,1.2,0,0,1,1.34,2c-6.45,4.34-15.91,10.47-28.94,18.73A1.19,1.19,0,0,1,121.3,54.82Zm-69.5-1a1.2,1.2,0,0,1-.66-2.2c8.16-5.4,14.47-9.44,20.45-13.09C76.87,35.35,91.47,27,106.93,18.19,117,12.43,127.44,6.48,135.42,1.86a1.2,1.2,0,1,1,1.2,2.08c-8,4.62-18.41,10.57-28.5,16.33-15.45,8.82-30,17.15-35.29,20.35-6,3.63-12.23,7.65-20.37,13A1.19,1.19,0,0,1,51.8,53.86ZM1.2,52.22A1.2,1.2,0,0,1,.58,50c10-6.06,17.79-10.82,23.71-14.56a1.2,1.2,0,0,1,1.28,2C19.64,41.21,11.87,46,1.82,52A1.19,1.19,0,0,1,1.2,52.22Zm46.34-.37a1.2,1.2,0,0,1-.67-2.2c6.89-4.58,15.06-10,23.38-15,5.29-3.23,19.9-11.57,35.37-20.4,8.41-4.8,17-9.69,24.21-13.85A1.2,1.2,0,1,1,131,2.44c-7.23,4.16-15.8,9.06-24.21,13.86-15.45,8.82-30,17.15-35.3,20.36-8.29,5.06-16.43,10.41-23.3,15A1.2,1.2,0,0,1,47.55,51.85Zm-4.34-2.46a1.2,1.2,0,0,1-.64-2.22l2.27-1.41c2.25-1.36,7.5-4.4,14.78-8.62C76.48,27.38,104.7,11,121.95.19a1.2,1.2,0,0,1,1.28,2c-17.28,10.88-45.52,27.24-62.4,37-7,4-12.51,7.25-14.74,8.59l-2.24,1.39A1.2,1.2,0,0,1,43.21,49.39Zm-42-1.11A1.2,1.2,0,0,1,.58,46C21.88,33.3,34.66,25.15,37.53,22.48,41.25,19,58,8.45,71.42.18a1.2,1.2,0,0,1,1.26,2C53.85,13.83,42,21.65,39.17,24.24c-3,2.83-15.6,10.86-37.35,23.87A1.2,1.2,0,0,1,1.2,48.28Zm38.31-1.34a1.2,1.2,0,0,1-.64-2.21c2-1.25,3.56-2.25,4.66-2.92,2.24-1.36,7.49-4.4,14.76-8.61,15.46-9,38.83-22.49,56-33a1.2,1.2,0,0,1,1.26,2C98.34,12.77,75,26.32,59.49,35.28c-7,4-12.5,7.24-14.72,8.58-1.09.66-2.67,1.65-4.62,2.89A1.19,1.19,0,0,1,39.51,46.94ZM1.2,44.84a1.2,1.2,0,0,1-.62-2.23C16,33.3,25.43,27,28.74,23.81S43.74,13.16,65.57.17a1.2,1.2,0,1,1,1.23,2.06C45.42,14.95,33.52,22.57,30.4,25.55,27,28.83,17.34,35.26,1.82,44.66A1.19,1.19,0,0,1,1.2,44.84Zm35.25-.21a1.2,1.2,0,0,1-.63-2.22,82,82,0,0,1,8-4.55C50,35.16,89.5,10.65,106.37.18a1.2,1.2,0,0,1,1.27,2c-28,17.34-57.27,35.4-62.81,37.83a82,82,0,0,0-7.75,4.4A1.19,1.19,0,0,1,36.46,44.63Zm87.11-.22a1.2,1.2,0,0,1-.65-2.21l26.64-17.25a1.2,1.2,0,1,1,1.3,2L124.22,44.22A1.2,1.2,0,0,1,123.57,44.41Zm7.37-.21a1.2,1.2,0,0,1-.66-2.2c8.11-5.3,14.58-9.62,19.24-12.84a1.2,1.2,0,0,1,1.37,2c-4.67,3.23-11.16,7.56-19.29,12.87A1.2,1.2,0,0,1,130.94,44.2ZM34.1,42.65a1.2,1.2,0,0,1-.62-2.23c5.08-3.06,8.52-5,10.22-5.74,5.14-2.26,33.11-19.62,56.91-34.5a1.2,1.2,0,1,1,1.27,2c-25.34,15.85-52,32.36-57.21,34.66-1.6.7-4.95,2.59-9.95,5.6A1.19,1.19,0,0,1,34.1,42.65Zm-2.57-2.38a1.2,1.2,0,0,1-.66-2.2L41,31.44c10.15-6.68,17.49-11.51,19.26-12.55C63.29,17.08,77.07,9.06,92.47.16a1.2,1.2,0,0,1,1.2,2.08C78.28,11.13,64.51,19.15,61.44,21c-1.72,1-9,5.83-19.16,12.49L32.2,40.08A1.2,1.2,0,0,1,31.54,40.27ZM1.2,40.18A1.2,1.2,0,0,1,.56,38C14,29.4,25.63,21.89,29,19.71c3.11-2,14.83-9.27,31.48-19.54a1.2,1.2,0,0,1,1.26,2C47.32,11.1,33.55,19.6,30.28,21.73S15.31,31.42,1.85,40A1.19,1.19,0,0,1,1.2,40.18ZM29.1,37.76a1.2,1.2,0,0,1-1-1.92,1.2,1.2,0,0,1-1.25-2c6.5-4.15,10.53-6.93,12-8.27,4-3.76,23.77-15.86,39.62-25.35A1.2,1.2,0,0,1,79.7,2.23c-22.26,13.33-36.19,22.23-39.22,25a26.74,26.74,0,0,1-2.22,1.78l1-.69c10.34-6.84,17.81-11.78,19.6-12.83l5.86-3.47C69.68,9.16,76.91,4.88,84.9.17a1.2,1.2,0,0,1,1.22,2.07c-8,4.71-15.21,9-20.13,11.9l-5.86,3.47c-1.74,1-9.19,6-19.5,12.77L29.76,37.56A1.19,1.19,0,0,1,29.1,37.76Zm87.49-.35a1.2,1.2,0,0,1-.63-2.22c13.83-8.57,25.86-16.07,32.2-20.07a1.2,1.2,0,0,1,1.28,2c-6.35,4-18.39,11.51-32.22,20.08A1.19,1.19,0,0,1,116.59,37.41ZM1.2,37.13a1.2,1.2,0,0,1-.64-2.22c10.37-6.53,17.15-11.05,19.61-13.09,3.33-2.76,19.12-13,32.78-21.64a1.2,1.2,0,0,1,1.29,2C37.15,13,24.38,21.47,21.7,23.68,18.49,26.33,9.13,32.36,1.84,36.95A1.2,1.2,0,0,1,1.2,37.13ZM127.56,37a1.2,1.2,0,0,1-.66-2.21l1.92-1.24a1.2,1.2,0,0,1-.21-2.14c9.25-5.71,16.19-9.92,20.63-12.49a1.2,1.2,0,0,1,1.7,1.52l.1.14a1.2,1.2,0,0,1-.36,1.66c-5.5,3.55-13.65,8.84-22.48,14.58A1.2,1.2,0,0,1,127.56,37Zm-15.65-1.92a1.2,1.2,0,0,1-.62-2.23c16.63-10.11,29.28-17.47,35.64-20.73a1.2,1.2,0,0,1,1.1,2.14c-6.31,3.24-18.91,10.57-35.49,20.65A1.19,1.19,0,0,1,111.91,35.11Zm-3.2-2a1.2,1.2,0,0,1-.61-2.23c17.1-10.17,30.31-17.73,37.21-21.27a1.2,1.2,0,0,1,1.1,2.14c-6.85,3.52-20,11-37.08,21.19A1.2,1.2,0,0,1,108.71,33.07ZM1.2,32.35a1.2,1.2,0,0,1-.64-2.21c9.64-6.1,16-10.34,18.29-12.27S31,9.4,45.4.19a1.2,1.2,0,1,1,1.29,2c-14.14,9-24,15.57-26.31,17.5-3,2.52-11.76,8.16-18.54,12.45A1.19,1.19,0,0,1,1.2,32.35Zm104-.78a1.2,1.2,0,0,1-.61-2.23C117,22,132.62,12.7,142.52,6.53a1.2,1.2,0,1,1,1.27,2c-9.92,6.19-25.51,15.45-38,22.83A1.19,1.19,0,0,1,105.19,31.56Zm-4.67-1a1.2,1.2,0,0,1-.61-2.23C115.27,19.2,130,10.11,139.3,4a1.2,1.2,0,1,1,1.32,2c-9.34,6.14-24.1,15.25-39.48,24.36A1.2,1.2,0,0,1,100.52,30.52ZM1.2,27a1.2,1.2,0,0,1-.65-2.21C19.69,12.46,34.67,2.86,39,.18a1.2,1.2,0,0,1,1.25,2C35.94,4.89,21,14.49,1.85,26.76A1.2,1.2,0,0,1,1.2,27Zm.15-4.36a1.2,1.2,0,0,1-.64-2.21C10.58,14.12,24.06,5.54,32.25.2a1.2,1.2,0,0,1,1.31,2C25.36,7.56,11.87,16.15,2,22.41A1.19,1.19,0,0,1,1.35,22.6ZM3,16.36a1.2,1.2,0,0,1-.63-2.22L19,3.78,24.82.18a1.2,1.2,0,1,1,1.27,2L20.31,5.82,3.62,16.18A1.19,1.19,0,0,1,3,16.36ZM7.46,9.55a1.2,1.2,0,0,1-.62-2.23L17.12,1.05a1.2,1.2,0,0,1,1.25,2L8.08,9.37A1.2,1.2,0,0,1,7.46,9.55Z"/></g></g></svg>