<svg xmlns="http://www.w3.org/2000/svg" viewBox="0 0 98.9 68.8"><defs><style>.cls-1{fill:#c4314d;}</style></defs><title>hat</title><g id="Vrstva_2" data-name="Vrstva 2"><g id="Vrstva_1-2" data-name="Vrstva 1"><path class="cls-1" d="M98.43,3.73c-3.63-6.67-24.87-2.29-49-2.62-24.11.33-45.35-4-49,2.62C-2.41,8.35,8.18,19.43,26.65,25l-4.4,15a2.92,2.92,0,0,0,.6,2.53l24.29,25.9c.56.6,1,.42,1-.41v-21a1.19,1.19,0,0,0-.26-.74,12.77,12.77,0,0,0-3.5-3,.32.32,0,0,1,0-.53,12.71,12.71,0,0,0,4.77-4.77.32.32,0,0,1,.53,0,12.7,12.7,0,0,0,4.77,4.77.32.32,0,0,1,0,.53,12.79,12.79,0,0,0-3.5,3,1.19,1.19,0,0,0-.26.74V68c0,.83.46,1,1,.41L76,42.54a2.92,2.92,0,0,0,.6-2.53l-3-10.09a91.85,91.85,0,0,1-13,1A88,88,0,0,1,31.3,26.2a80.13,80.13,0,0,0,18.15,2C81.36,28.28,102.34,10,98.43,3.73ZM26,12.51c.62-2.9,11.05-3.11,23.44-3.15s22.81.25,23.44,3.15S63.11,20,49.45,20,25.36,15.34,26,12.51Z"/></g></g></svg>