<svg xmlns="http://www.w3.org/2000/svg" viewBox="0 0 446.14 70.37"><defs><style>.cls-1{fill:#fff;}</style></defs><title>logo</title><g id="Vrstva_2" data-name="Vrstva 2"><g id="Vrstva_1-2" data-name="Vrstva 1"><path class="cls-1" d="M98.43,4.3C94.8-2.37,73.57,2,49.45,1.68,25.33,2,4.1-2.37.47,4.3-2.41,8.92,8.18,20,26.65,25.55l-4.4,15a2.92,2.92,0,0,0,.6,2.53L47.15,69c.56.6,1,.42,1-.41v-21a1.19,1.19,0,0,0-.26-.74,12.77,12.77,0,0,0-3.5-3,.32.32,0,0,1,0-.53,12.71,12.71,0,0,0,4.77-4.77.32.32,0,0,1,.53,0,12.7,12.7,0,0,0,4.77,4.77.32.32,0,0,1,0,.53,12.79,12.79,0,0,0-3.5,3,1.19,1.19,0,0,0-.26.74v21c0,.83.46,1,1,.41L76,43.12a2.92,2.92,0,0,0,.6-2.53l-3-10.09a91.85,91.85,0,0,1-13,1A88,88,0,0,1,31.3,26.78a80.13,80.13,0,0,0,18.15,2C81.36,28.85,102.34,10.59,98.43,4.3ZM26,13.09c.62-2.9,11.05-3.11,23.44-3.15s22.81.25,23.44,3.15-9.77,7.5-23.44,7.48S25.36,15.91,26,13.09Z"/><path class="cls-1" d="M124.83,66.18a.33.33,0,0,1,0,.15.28.28,0,0,1-.14.11,1.3,1.3,0,0,1-.29.07,3.41,3.41,0,0,1-.47,0,4.85,4.85,0,0,1-.61,0,.8.8,0,0,1-.35-.12.85.85,0,0,1-.19-.19l-5.08-6.91V66.2a.25.25,0,0,1-.19.25l-.29.06a3.07,3.07,0,0,1-.44,0,3.12,3.12,0,0,1-.44,0,1.41,1.41,0,0,1-.28-.06.26.26,0,0,1-.15-.11.29.29,0,0,1,0-.15V52.94a.26.26,0,0,1,.2-.25l.28-.06a3.15,3.15,0,0,1,.44,0,3.1,3.1,0,0,1,.44,0l.29.06a.29.29,0,0,1,.15.1.27.27,0,0,1,0,.15v6.14l4.9-6.14a.55.55,0,0,1,.15-.16.67.67,0,0,1,.21-.1,1.64,1.64,0,0,1,.3-.06l.45,0a3.11,3.11,0,0,1,.45,0,1.11,1.11,0,0,1,.27.07.26.26,0,0,1,.14.11.25.25,0,0,1,0,.14.59.59,0,0,1-.07.28,2.29,2.29,0,0,1-.26.38l-4.58,5.48,4.93,6.56a2.9,2.9,0,0,1,.22.38A.54.54,0,0,1,124.83,66.18Z"/><path class="cls-1" d="M136.62,61.3a7.23,7.23,0,0,1-.31,2.17,4.76,4.76,0,0,1-.92,1.7,4.21,4.21,0,0,1-1.54,1.12,5.37,5.37,0,0,1-2.15.4,5.5,5.5,0,0,1-2.06-.35,3.8,3.8,0,0,1-1.47-1,4.37,4.37,0,0,1-.88-1.63,7.7,7.7,0,0,1-.29-2.18,7.24,7.24,0,0,1,.31-2.16,4.77,4.77,0,0,1,.92-1.7,4.16,4.16,0,0,1,1.54-1.11,5.39,5.39,0,0,1,2.15-.39,5.58,5.58,0,0,1,2.07.35,3.76,3.76,0,0,1,1.47,1,4.44,4.44,0,0,1,.88,1.63A7.53,7.53,0,0,1,136.62,61.3Zm-1.83.12a7,7,0,0,0-.15-1.47,3.52,3.52,0,0,0-.48-1.22,2.37,2.37,0,0,0-.91-.83,3,3,0,0,0-1.42-.3,3,3,0,0,0-1.35.28,2.45,2.45,0,0,0-.93.79,3.41,3.41,0,0,0-.55,1.2,6,6,0,0,0-.18,1.52,7.26,7.26,0,0,0,.14,1.48,3.55,3.55,0,0,0,.49,1.21,2.44,2.44,0,0,0,.91.82,3,3,0,0,0,1.42.3,3,3,0,0,0,1.35-.28,2.47,2.47,0,0,0,.94-.78,3.39,3.39,0,0,0,.54-1.2A6.44,6.44,0,0,0,134.79,61.42Z"/><path class="cls-1" d="M148.42,66.21a.24.24,0,0,1,0,.14.3.3,0,0,1-.13.1,1,1,0,0,1-.25.06l-.38,0-.4,0a1,1,0,0,1-.25-.06.26.26,0,0,1-.12-.1.29.29,0,0,1,0-.14V64.94a5.92,5.92,0,0,1-1.62,1.32,3.46,3.46,0,0,1-1.62.42,3.69,3.69,0,0,1-1.62-.32,2.83,2.83,0,0,1-1.06-.87,3.45,3.45,0,0,1-.59-1.28,8,8,0,0,1-.18-1.78V56.6a.28.28,0,0,1,0-.14.31.31,0,0,1,.14-.11.85.85,0,0,1,.28-.06l.43,0,.43,0a.78.78,0,0,1,.27.06.34.34,0,0,1,.14.11.24.24,0,0,1,0,.14v5.6a5.7,5.7,0,0,0,.13,1.35,2.52,2.52,0,0,0,.37.87A1.74,1.74,0,0,0,143,65a1.92,1.92,0,0,0,.9.2,2.25,2.25,0,0,0,1.32-.47,7.45,7.45,0,0,0,1.39-1.38V56.6a.25.25,0,0,1,0-.14.31.31,0,0,1,.14-.11.81.81,0,0,1,.27-.06l.43,0,.43,0a.71.71,0,0,1,.27.06.41.41,0,0,1,.14.11.21.21,0,0,1,0,.14Z"/><path class="cls-1" d="M158.57,65.73a2,2,0,0,1,0,.35,1.47,1.47,0,0,1-.08.24.26.26,0,0,1-.12.13.35.35,0,0,1-.16,0h-5.92a.49.49,0,0,1-.37-.15.72.72,0,0,1-.14-.5v-.36a1.3,1.3,0,0,1,0-.27,1.44,1.44,0,0,1,.06-.23,2.3,2.3,0,0,1,.12-.25l.18-.3,4.24-6.6h-4.11a.31.31,0,0,1-.27-.18,1.23,1.23,0,0,1-.1-.57,2,2,0,0,1,0-.34.76.76,0,0,1,.07-.23.31.31,0,0,1,.12-.13.34.34,0,0,1,.17,0h5.51a.6.6,0,0,1,.21,0,.33.33,0,0,1,.16.11.51.51,0,0,1,.1.19.93.93,0,0,1,0,.3v.34a1.42,1.42,0,0,1,0,.28,2.08,2.08,0,0,1-.06.25,1.92,1.92,0,0,1-.12.26l-.18.31L153.68,65h4.51a.32.32,0,0,1,.15,0,.28.28,0,0,1,.11.12,1,1,0,0,1,.09.23A2,2,0,0,1,158.57,65.73Z"/><path class="cls-1" d="M163.63,66.21a.22.22,0,0,1,0,.14.32.32,0,0,1-.14.1,1,1,0,0,1-.27.06l-.44,0-.43,0a1.06,1.06,0,0,1-.27-.06.3.3,0,0,1-.14-.1.26.26,0,0,1,0-.14V51.94a.3.3,0,0,1,0-.15.28.28,0,0,1,.14-.11,1,1,0,0,1,.27-.07l.43,0,.44,0a1,1,0,0,1,.27.07.3.3,0,0,1,.14.11.24.24,0,0,1,0,.15Z"/><path class="cls-1" d="M169.38,51.9a.64.64,0,0,1,.15-.19.61.61,0,0,1,.21-.12,1.33,1.33,0,0,1,.31-.06l.44,0a2.56,2.56,0,0,1,.49,0,.52.52,0,0,1,.26.11.18.18,0,0,1,.07.16.36.36,0,0,1-.1.19l-1.94,2.49a1.34,1.34,0,0,1-.15.17.52.52,0,0,1-.16.1.8.8,0,0,1-.23.05l-.36,0a1.77,1.77,0,0,1-.37,0,.47.47,0,0,1-.2-.09.15.15,0,0,1,0-.14.64.64,0,0,1,.09-.2Zm.18,14.32a.24.24,0,0,1,0,.14.32.32,0,0,1-.14.1,1,1,0,0,1-.27.06l-.44,0-.43,0a1.06,1.06,0,0,1-.27-.06.33.33,0,0,1-.14-.1.29.29,0,0,1,0-.14V56.6a.31.31,0,0,1,0-.14.35.35,0,0,1,.14-.11.76.76,0,0,1,.27-.06l.43,0,.44,0a.74.74,0,0,1,.27.06.34.34,0,0,1,.14.11.25.25,0,0,1,0,.14Z"/><path class="cls-1" d="M188,66.21a.24.24,0,0,1,0,.14.33.33,0,0,1-.14.1,1,1,0,0,1-.27.06l-.43,0-.44,0a1.06,1.06,0,0,1-.27-.06.33.33,0,0,1-.14-.1.24.24,0,0,1,0-.14V60.37a5.54,5.54,0,0,0-.11-1.11,2.63,2.63,0,0,0-.34-.87,1.62,1.62,0,0,0-.6-.56,1.79,1.79,0,0,0-.85-.19,2,2,0,0,0-1.23.47,8.51,8.51,0,0,0-1.35,1.38v6.72a.27.27,0,0,1,0,.14.37.37,0,0,1-.15.1,1.1,1.1,0,0,1-.27.06l-.43,0-.42,0a1.15,1.15,0,0,1-.28-.06.31.31,0,0,1-.14-.1.26.26,0,0,1,0-.14V60.37a4.83,4.83,0,0,0-.12-1.11,2.64,2.64,0,0,0-.35-.87,1.59,1.59,0,0,0-.59-.56,1.77,1.77,0,0,0-.85-.19,2,2,0,0,0-1.23.47,8.11,8.11,0,0,0-1.35,1.38v6.72a.22.22,0,0,1,0,.14.32.32,0,0,1-.14.1,1,1,0,0,1-.26.06l-.44,0-.43,0a1,1,0,0,1-.27-.06.3.3,0,0,1-.14-.1.26.26,0,0,1,0-.14V56.6a.27.27,0,0,1,0-.14.25.25,0,0,1,.13-.11.66.66,0,0,1,.25-.06l.39,0,.39,0a.6.6,0,0,1,.24.06.35.35,0,0,1,.12.11.31.31,0,0,1,0,.14v1.27a6.26,6.26,0,0,1,1.58-1.33,3.16,3.16,0,0,1,1.54-.42,3.83,3.83,0,0,1,1.07.14,3,3,0,0,1,.84.39,2.57,2.57,0,0,1,.62.6,3.37,3.37,0,0,1,.43.77,10.22,10.22,0,0,1,.91-.89,5.6,5.6,0,0,1,.84-.59,3.46,3.46,0,0,1,.78-.33,3,3,0,0,1,.77-.1,3.33,3.33,0,0,1,1.56.33,2.79,2.79,0,0,1,1,.87,3.41,3.41,0,0,1,.56,1.28,6.8,6.8,0,0,1,.17,1.54Z"/><path class="cls-1" d="M202,51.76a20.54,20.54,0,0,0-1.51,4.41,21,21,0,0,0-.5,4.55,20.75,20.75,0,0,0,.5,4.55A23.62,23.62,0,0,0,202,69.69a.63.63,0,0,1,.06.22.17.17,0,0,1-.07.15.49.49,0,0,1-.23.09,2.54,2.54,0,0,1-.42,0H201l-.24,0-.17-.08a.29.29,0,0,1-.1-.1,21,21,0,0,1-1.75-4.48,19.41,19.41,0,0,1-.45-2.33,19,19,0,0,1-.15-2.39,16.63,16.63,0,0,1,.17-2.38,18.91,18.91,0,0,1,.47-2.33,20.58,20.58,0,0,1,.74-2.28c.29-.75.62-1.49,1-2.22a.13.13,0,0,1,.05-.08l.13-.06a.93.93,0,0,1,.24,0l.38,0a1.93,1.93,0,0,1,.4,0,.7.7,0,0,1,.23.09.2.2,0,0,1,.1.14A.4.4,0,0,1,202,51.76Z"/><path class="cls-1" d="M211.3,63.6a3.08,3.08,0,0,1-.27,1.31,2.69,2.69,0,0,1-.78,1,3.51,3.51,0,0,1-1.2.6,5.42,5.42,0,0,1-1.53.2,5.68,5.68,0,0,1-1-.08,6,6,0,0,1-.83-.2,4.38,4.38,0,0,1-.62-.26,1.9,1.9,0,0,1-.37-.24.66.66,0,0,1-.17-.3,2,2,0,0,1-.05-.52,2.39,2.39,0,0,1,0-.34,1.39,1.39,0,0,1,.05-.22.29.29,0,0,1,.09-.13.27.27,0,0,1,.13,0,.79.79,0,0,1,.35.14q.23.15.57.32a5.24,5.24,0,0,0,.79.32,3.62,3.62,0,0,0,1.06.14,3.11,3.11,0,0,0,.81-.1,2,2,0,0,0,.63-.28,1.21,1.21,0,0,0,.41-.48,1.47,1.47,0,0,0,.15-.68,1.13,1.13,0,0,0-.21-.68,2,2,0,0,0-.56-.49,4.53,4.53,0,0,0-.77-.38l-.88-.35a9.12,9.12,0,0,1-.89-.41,3.36,3.36,0,0,1-.78-.56,2.63,2.63,0,0,1-.55-.79,2.87,2.87,0,0,1,0-2.19,2.49,2.49,0,0,1,.65-.91,3.33,3.33,0,0,1,1.1-.62,4.54,4.54,0,0,1,1.53-.24,4.68,4.68,0,0,1,.77.06,5.62,5.62,0,0,1,.69.16,3.48,3.48,0,0,1,.53.21,2.86,2.86,0,0,1,.33.2.45.45,0,0,1,.2.29c0,.06,0,.12,0,.2a1.42,1.42,0,0,1,0,.29,1.77,1.77,0,0,1,0,.32.61.61,0,0,1-.05.22.28.28,0,0,1-.09.13.19.19,0,0,1-.12,0,.6.6,0,0,1-.28-.12,4.07,4.07,0,0,0-.47-.25,5.17,5.17,0,0,0-.68-.25,3.07,3.07,0,0,0-.89-.12,2.71,2.71,0,0,0-.79.1,1.53,1.53,0,0,0-.56.29,1.16,1.16,0,0,0-.33.44,1.35,1.35,0,0,0-.11.56,1.11,1.11,0,0,0,.21.7,2.12,2.12,0,0,0,.55.5,5.21,5.21,0,0,0,.78.38l.89.35q.45.18.9.41a3.3,3.3,0,0,1,.79.54,2.41,2.41,0,0,1,.76,1.84Z"/><path class="cls-1" d="M223.06,61a.75.75,0,0,1-.21.6.73.73,0,0,1-.48.17H216a6.17,6.17,0,0,0,.16,1.44,2.83,2.83,0,0,0,.54,1.1,2.43,2.43,0,0,0,1,.7,3.93,3.93,0,0,0,1.47.25,6,6,0,0,0,1.23-.11,7.14,7.14,0,0,0,.93-.25l.65-.25a1.05,1.05,0,0,1,.38-.11.25.25,0,0,1,.14,0,.22.22,0,0,1,.09.11.6.6,0,0,1,0,.21,2.79,2.79,0,0,1,0,.33c0,.09,0,.17,0,.24s0,.13,0,.18a.51.51,0,0,1-.15.27,1.62,1.62,0,0,1-.35.19,5,5,0,0,1-.75.26,10.43,10.43,0,0,1-1.06.23,7.6,7.6,0,0,1-1.29.1,6,6,0,0,1-2.08-.33,3.85,3.85,0,0,1-1.5-1,4.18,4.18,0,0,1-.92-1.63,7.63,7.63,0,0,1-.31-2.29,7.23,7.23,0,0,1,.32-2.23,4.7,4.7,0,0,1,.92-1.68,4,4,0,0,1,1.46-1.06,4.76,4.76,0,0,1,1.91-.37,4.6,4.6,0,0,1,1.93.36,3.6,3.6,0,0,1,1.31,1,3.84,3.84,0,0,1,.75,1.44,6.3,6.3,0,0,1,.24,1.77Zm-1.77-.52a3.21,3.21,0,0,0-.61-2.18,2.36,2.36,0,0,0-1.93-.79,2.54,2.54,0,0,0-1.15.25,2.48,2.48,0,0,0-.83.65,3,3,0,0,0-.51.95,4.09,4.09,0,0,0-.21,1.13Z"/><path class="cls-1" d="M229.52,60.75a18.37,18.37,0,0,1-.15,2.39,18.68,18.68,0,0,1-.45,2.33,21,21,0,0,1-1.74,4.48.3.3,0,0,1-.1.1l-.16.08-.24,0h-.33a2.65,2.65,0,0,1-.44,0,.48.48,0,0,1-.22-.09.18.18,0,0,1-.07-.15.73.73,0,0,1,.06-.22,22.19,22.19,0,0,0,1.49-4.42,20.92,20.92,0,0,0,0-9.1,21.33,21.33,0,0,0-1.51-4.41.35.35,0,0,1,0-.18.19.19,0,0,1,.09-.14.79.79,0,0,1,.24-.09,1.9,1.9,0,0,1,.39,0l.38,0,.24,0,.13.06a.22.22,0,0,1,.07.08A24.17,24.17,0,0,1,228.9,56,18,18,0,0,1,229.52,60.75Z"/><path class="cls-1" d="M245.76,63.6a3,3,0,0,1-.27,1.31,2.68,2.68,0,0,1-.77,1,3.54,3.54,0,0,1-1.2.6,5.43,5.43,0,0,1-1.53.2,5.7,5.7,0,0,1-1-.08,5.79,5.79,0,0,1-.83-.2,4.3,4.3,0,0,1-.63-.26,1.85,1.85,0,0,1-.37-.24.63.63,0,0,1-.17-.3,2.1,2.1,0,0,1-.05-.52,2.35,2.35,0,0,1,0-.34.93.93,0,0,1,.05-.22.27.27,0,0,1,.09-.13.25.25,0,0,1,.13,0,.77.77,0,0,1,.35.14q.23.15.57.32a5.27,5.27,0,0,0,.8.32,3.6,3.6,0,0,0,1.06.14,3.12,3.12,0,0,0,.81-.1,2,2,0,0,0,.63-.28,1.31,1.31,0,0,0,.41-.48,1.56,1.56,0,0,0,.14-.68,1.11,1.11,0,0,0-.21-.68,2,2,0,0,0-.55-.49,4.57,4.57,0,0,0-.77-.38l-.88-.35a9.13,9.13,0,0,1-.89-.41,3.41,3.41,0,0,1-.77-.56,2.64,2.64,0,0,1-.55-.79,2.68,2.68,0,0,1-.21-1.1,2.73,2.73,0,0,1,.22-1.08,2.5,2.5,0,0,1,.66-.91,3.31,3.31,0,0,1,1.1-.62,4.56,4.56,0,0,1,1.53-.24,4.69,4.69,0,0,1,.77.06,5.42,5.42,0,0,1,.69.16,3.56,3.56,0,0,1,.53.21,2.5,2.5,0,0,1,.33.2.49.49,0,0,1,.15.15.47.47,0,0,1,.06.14c0,.06,0,.12,0,.2a1.75,1.75,0,0,1,0,.29,2.18,2.18,0,0,1,0,.32.81.81,0,0,1-.05.22.28.28,0,0,1-.09.13.19.19,0,0,1-.11,0,.59.59,0,0,1-.28-.12,4.15,4.15,0,0,0-.47-.25,4.93,4.93,0,0,0-.68-.25,3.07,3.07,0,0,0-.9-.12,2.74,2.74,0,0,0-.79.1,1.53,1.53,0,0,0-.56.29,1.24,1.24,0,0,0-.33.44,1.42,1.42,0,0,0-.11.56,1.13,1.13,0,0,0,.21.7,2.08,2.08,0,0,0,.56.5,5.06,5.06,0,0,0,.78.38l.89.35a9.84,9.84,0,0,1,.9.41,3.23,3.23,0,0,1,.79.54,2.4,2.4,0,0,1,.76,1.84Z"/><path class="cls-1" d="M251,66.21a.24.24,0,0,1,0,.14.31.31,0,0,1-.14.1,1,1,0,0,1-.26.06l-.44,0-.43,0a1.06,1.06,0,0,1-.27-.06.28.28,0,0,1-.14-.1.24.24,0,0,1,0-.14V51.94a.27.27,0,0,1,0-.15.26.26,0,0,1,.14-.11,1,1,0,0,1,.27-.07l.43,0,.44,0a1,1,0,0,1,.26.07.29.29,0,0,1,.14.11.27.27,0,0,1,0,.15Z"/><path class="cls-1" d="M264.14,61.3a7.12,7.12,0,0,1-.31,2.17,4.61,4.61,0,0,1-.92,1.7,4.16,4.16,0,0,1-1.54,1.12,5.34,5.34,0,0,1-2.14.4,5.51,5.51,0,0,1-2.07-.35,3.72,3.72,0,0,1-1.47-1,4.36,4.36,0,0,1-.88-1.63,7.59,7.59,0,0,1-.29-2.18,7.47,7.47,0,0,1,.3-2.16,4.77,4.77,0,0,1,.92-1.7,4.15,4.15,0,0,1,1.53-1.11,5.42,5.42,0,0,1,2.15-.39,5.55,5.55,0,0,1,2.07.35,3.78,3.78,0,0,1,1.47,1,4.39,4.39,0,0,1,.88,1.63A7.41,7.41,0,0,1,264.14,61.3Zm-1.83.12a7.43,7.43,0,0,0-.14-1.47,3.58,3.58,0,0,0-.48-1.22,2.37,2.37,0,0,0-.91-.83,3,3,0,0,0-1.42-.3,3,3,0,0,0-1.35.28,2.52,2.52,0,0,0-.93.79,3.53,3.53,0,0,0-.54,1.2,6,6,0,0,0-.18,1.52,7.06,7.06,0,0,0,.15,1.48,3.49,3.49,0,0,0,.48,1.21,2.47,2.47,0,0,0,.91.82,3,3,0,0,0,1.42.3,3,3,0,0,0,1.35-.28,2.51,2.51,0,0,0,.94-.78,3.38,3.38,0,0,0,.54-1.2A6.44,6.44,0,0,0,262.32,61.42Z"/><path class="cls-1" d="M275.52,56.58a.91.91,0,0,1,0,.09.53.53,0,0,1,0,.1s0,.08,0,.12l0,.14-3.28,9.13a.52.52,0,0,1-.11.19.44.44,0,0,1-.21.12,1.6,1.6,0,0,1-.35.06l-.54,0-.54,0a1.76,1.76,0,0,1-.34-.06.51.51,0,0,1-.21-.12.54.54,0,0,1-.12-.18L266.47,57l-.07-.23c0-.06,0-.11,0-.14a.7.7,0,0,1,0-.08.26.26,0,0,1,0-.15.27.27,0,0,1,.14-.1,1,1,0,0,1,.27,0h.41l.5,0a.9.9,0,0,1,.29.06.37.37,0,0,1,.15.11,1.1,1.1,0,0,1,.09.16L271,64.54l0,.13,0-.13,2.69-7.93a.32.32,0,0,1,.08-.16.39.39,0,0,1,.15-.11.87.87,0,0,1,.28-.06l.47,0h.4a.72.72,0,0,1,.25.05.33.33,0,0,1,.13.1A.31.31,0,0,1,275.52,56.58Z"/><path class="cls-1" d="M283.58,66.48,282.3,70a.49.49,0,0,1-.33.26,2.57,2.57,0,0,1-.8.09,3.08,3.08,0,0,1-.45,0,.63.63,0,0,1-.26-.09.24.24,0,0,1-.1-.17.57.57,0,0,1,.06-.26l1.33-3.34a.59.59,0,0,1-.3-.34L278,57a1.13,1.13,0,0,1-.09-.35.26.26,0,0,1,.09-.2.55.55,0,0,1,.28-.1,4.37,4.37,0,0,1,.51,0l.5,0a.94.94,0,0,1,.29.06.3.3,0,0,1,.15.12,1.44,1.44,0,0,1,.1.22l2.75,7.71h0l2.65-7.75a.5.5,0,0,1,.15-.26.78.78,0,0,1,.27-.09,4.29,4.29,0,0,1,.53,0,4.09,4.09,0,0,1,.49,0,.56.56,0,0,1,.28.1.25.25,0,0,1,.09.2,1,1,0,0,1-.07.32Z"/><path class="cls-1" d="M115.81,39.48V5.13A1.93,1.93,0,0,1,118,2.94h10.64q13.57,0,13.58,10.25a8.53,8.53,0,0,1-1.72,5.32,10.07,10.07,0,0,1-4.66,3.35v.22A5.13,5.13,0,0,1,138,23.91a13.92,13.92,0,0,1,1.8,3.19l4.8,12a3.33,3.33,0,0,1,.27,1c0,.73-1.1,1.09-3.27,1.09h-2.24q-2.72,0-3.16-1.14l-4.31-10.63a6.83,6.83,0,0,0-2-2.54,6.36,6.36,0,0,0-3.52-.74h-2.12V39.48c0,1.16-1.1,1.74-3.28,1.74h-1.85Q115.81,41.22,115.81,39.48Zm8.4-20.56h5.18a3.88,3.88,0,0,0,2.94-1.36,4.7,4.7,0,0,0,1.25-3.3,3.94,3.94,0,0,0-1.22-3.05A4.8,4.8,0,0,0,129,10.09h-4.8Z"/><path class="cls-1" d="M150.62,37.76q-3.38-3.79-3.38-10.93t3.38-10.91q3.38-3.76,9.87-3.76t9.84,3.76q3.35,3.76,3.35,10.91t-3.35,10.93q-3.36,3.79-9.84,3.79T150.62,37.76Zm4.8-10.9q0,8.32,5,8.32t5-8.32q0-8.32-5-8.32T155.42,26.86Z"/><path class="cls-1" d="M179,39.48V22.19a34,34,0,0,0-.33-5.73,15.73,15.73,0,0,1-.33-2q0-.87,2.21-1.31a18.9,18.9,0,0,1,3.3-.44,3.14,3.14,0,0,1,1.44.22,1.53,1.53,0,0,1,.57.68c.14.31.25.57.33.76a7.85,7.85,0,0,1,.24,1c.09.47.15.76.19.87a10.92,10.92,0,0,1,3.46-2.95,9.34,9.34,0,0,1,4.61-1.2q5.61,0,7.2,4.15a11.23,11.23,0,0,1,3.6-2.95,10,10,0,0,1,4.8-1.2q4.09,0,6,2.16T218.3,21V39.48q0,1.75-3.27,1.74H213.5q-3.28,0-3.27-1.74V22.19q0-3.38-3.22-3.38-2.67,0-4.31,3.16v17.5q0,1.75-3.27,1.74h-1.52q-3.28,0-3.28-1.74V22.19q0-3.38-3.21-3.38-2.67,0-4.31,3.16v17.5q0,1.75-3.27,1.74h-1.53Q179,41.22,179,39.48Z"/><path class="cls-1" d="M223.55,33.59a13.08,13.08,0,0,1,.27-2.78,7.79,7.79,0,0,1,1.25-2.7,7.7,7.7,0,0,1,2.62-2.37q3.87-2.29,11.51-2.29v-1.8q0-3.11-4.25-3.11a13.78,13.78,0,0,0-5.84,1.31,5.54,5.54,0,0,1-1.14.44c-.55,0-1.16-.56-1.83-1.69a5.73,5.73,0,0,1-1-2.67q0-1.47,3-2.62a21,21,0,0,1,7.39-1.15q11.72,0,11.72,9.11V31.52a41.4,41.4,0,0,0,.33,5.67l.33,2.24q0,.87-2.21,1.31a18.62,18.62,0,0,1-3.3.43A3.12,3.12,0,0,1,241,41a1.48,1.48,0,0,1-.57-.74c-.14-.34-.25-.62-.33-.82a7.69,7.69,0,0,1-.24-1.06c-.09-.51-.15-.82-.19-.93a7.63,7.63,0,0,1-3.38,2.95,10.39,10.39,0,0,1-4.64,1.2q-4.2,0-6.13-2.18A8.37,8.37,0,0,1,223.55,33.59Zm8-.82a2.25,2.25,0,0,0,.71,1.74,3,3,0,0,0,2.13.65,4.7,4.7,0,0,0,2.78-1,6,6,0,0,0,2-2.45v-3Q231.56,28.74,231.56,32.77Z"/><path class="cls-1" d="M254,39.48V22.19a33.51,33.51,0,0,0-.33-5.73,16.57,16.57,0,0,1-.33-2c0-.58.74-1,2.21-1.31a18.94,18.94,0,0,1,3.3-.44,3.16,3.16,0,0,1,1.45.22,1.55,1.55,0,0,1,.57.68c.14.31.25.57.33.76a7.29,7.29,0,0,1,.24,1c.09.47.16.76.19.87a10.79,10.79,0,0,1,3.49-2.95,9.49,9.49,0,0,1,4.64-1.2q4.09,0,6.05,2.16t2,6.68V39.48c0,1.16-1.1,1.74-3.28,1.74h-1.52q-3.28,0-3.28-1.74V22.19q0-3.38-3.27-3.38-2.73,0-4.36,3.16v17.5q0,1.75-3.27,1.74h-1.53Q254,41.22,254,39.48Z"/><path class="cls-1" d="M286.21,4q0-1.2,3.32-1.2h1.8q2.72,0,3.22,1.58l8,25.52h.22l8.18-25.52q.54-1.58,3.22-1.58h1.69q3.27,0,3.27,1.2a3.54,3.54,0,0,1-.16,1L307.15,40.08q-.39,1.14-3.05,1.14h-2.84q-2.68,0-3.06-1.14L286.42,5A4.68,4.68,0,0,1,286.21,4Z"/><path class="cls-1" d="M323.11,37.71q-3.52-3.85-3.52-11.1t3.52-10.85q3.51-3.6,9.65-3.6t9,3.93a16.82,16.82,0,0,1,2.86,10.14,3.67,3.67,0,0,1-1.12,1.94c-.75.85-1.3,1.28-1.66,1.28H327.93a6.18,6.18,0,0,0,1.85,4.42,6.13,6.13,0,0,0,4,1.31,13.12,13.12,0,0,0,4.69-.85c1.49-.56,2.26-.84,2.29-.84q.82,0,1.82,1.61a5.32,5.32,0,0,1,1,2.54q0,1.8-3.41,2.86a21.49,21.49,0,0,1-6.41,1.07Q326.62,41.55,323.11,37.71ZM336.76,24a7.25,7.25,0,0,0-1-4,3.29,3.29,0,0,0-2.95-1.5q-4,0-4.91,5.51Z"/><path class="cls-1" d="M349.51,41.11q-.49,0-1-1.5a7.42,7.42,0,0,1-.55-2.35,2.1,2.1,0,0,1,.17-1.06L360.58,19H350.44q-1.64,0-1.64-2.73v-.93q0-2.73,1.64-2.73h19.3q.44,0,1,1.53a7.29,7.29,0,0,1,.57,2.37,2.48,2.48,0,0,1-.16,1.12L358.73,34.74h11.18q1.64,0,1.64,2.73v.93q0,2.73-1.64,2.73ZM359.76,9.38c-1.78,0-2.89-.34-3.33-1L352.9,2.78a1.56,1.56,0,0,1-.33-.82c0-.36.36-.54,1.09-.54h1.2q2.67,0,3.65,1.36L360,4.91l1.53-2.18q.87-1.31,3.7-1.31h1.2c.73,0,1.09.18,1.09.54a1.59,1.59,0,0,1-.33.82l-3.54,5.56q-.65,1-3.33,1Zm-28,0c-1.78,0-2.89-.34-3.33-1l-3.54-5.56A1.56,1.56,0,0,1,324.6,2c0-.36.36-.54,1.09-.54h1.2q2.67,0,3.65,1.36l1.53,2.13,1.53-2.18q.87-1.31,3.71-1.31h1.2c.73,0,1.09.18,1.09.54a1.59,1.59,0,0,1-.33.82l-3.54,5.56q-.65,1-3.33,1Z"/><path class="cls-1" d="M376.39,39.48V22.19a33.51,33.51,0,0,0-.33-5.73,16.59,16.59,0,0,1-.33-2c0-.58.74-1,2.21-1.31a18.91,18.91,0,0,1,3.3-.44,3.16,3.16,0,0,1,1.45.22,1.56,1.56,0,0,1,.57.68c.15.31.25.57.33.76a7.54,7.54,0,0,1,.25,1c.09.47.16.76.19.87a10.78,10.78,0,0,1,3.49-2.95,9.49,9.49,0,0,1,4.64-1.2q4.09,0,6.05,2.16t2,6.68V39.48c0,1.16-1.09,1.74-3.27,1.74h-1.53q-3.28,0-3.27-1.74V22.19q0-3.38-3.27-3.38-2.73,0-4.36,3.16v17.5q0,1.75-3.27,1.74h-1.53Q376.39,41.22,376.39,39.48Z"/><path class="cls-1" d="M408.09,8.67c-1.13,0-1.69-.27-1.69-.82a3.9,3.9,0,0,1,.79-1.74q.8-1.2,1.45-2.34l1.31-2.29Q410.76,0,414.3,0t3.54.76a1.34,1.34,0,0,1-.33.76A17.67,17.67,0,0,1,416.21,3q-1,1-1.36,1.42L413.7,5.64,412.18,7.3A5.32,5.32,0,0,1,408.09,8.67Zm-1.58,30.81V14.23q0-1.74,3.27-1.74h1.53q3.28,0,3.27,1.74V39.48q0,1.75-3.27,1.74h-1.53Q406.51,41.22,406.51,39.48Z"/><path class="cls-1" d="M421.61,39.48V1.74q0-1.74,3.27-1.74h1.53q3.27,0,3.27,1.74V23.34l.22.05,6.6-9.87c.47-.69,1.58-1,3.33-1h2c2,0,3.05.27,3.05.82a2,2,0,0,1-.49,1.09l-7.58,10.8,8.89,14.07a2.69,2.69,0,0,1,.44,1.14q0,.82-3.11.82h-2.29c-1.78,0-2.87-.34-3.27-1L429.9,27.65l-.22.05V39.48q0,1.75-3.27,1.74h-1.53Q421.6,41.22,421.61,39.48Z"/></g></g></svg>