<?xml version="1.0" standalone="no"?>
<!DOCTYPE svg PUBLIC "-//W3C//DTD SVG 20010904//EN"
 "http://www.w3.org/TR/2001/REC-SVG-20010904/DTD/svg10.dtd">
<svg version="1.0" xmlns="http://www.w3.org/2000/svg"
 width="16.000000pt" height="16.000000pt" viewBox="0 0 16.000000 16.000000"
 preserveAspectRatio="xMidYMid meet">
<metadata>
Created by potrace 1.11, written by Peter Selinger 2001-2013
</metadata>
<g transform="translate(0.000000,16.000000) scale(0.003125,-0.003125)"
fill="#000000" stroke="none">
<path d="M489 4336 c-2 -2 -35 -7 -72 -11 -80 -8 -83 -8 -166 -30 -36 -9 -86
-27 -112 -40 -58 -30 -126 -106 -135 -152 -27 -142 100 -345 335 -533 24 -19
48 -40 55 -45 24 -21 164 -115 237 -158 181 -106 445 -224 662 -294 60 -19 86
-32 82 -41 -3 -7 -32 -106 -66 -220 -173 -592 -174 -595 -147 -645 6 -12 35
-47 64 -77 28 -30 66 -71 84 -90 28 -31 177 -189 287 -306 86 -91 283 -301
313 -334 41 -44 263 -281 310 -330 19 -20 80 -85 134 -143 93 -100 128 -124
138 -94 4 10 3 1084 -1 1127 -1 21 -81 102 -138 141 -26 18 -51 37 -55 43 -4
5 16 25 44 44 64 43 157 138 183 186 17 32 55 51 55 27 0 -24 107 -144 174
-194 42 -32 76 -59 76 -61 0 -2 -21 -18 -47 -35 -59 -38 -125 -98 -145 -131
-13 -21 -14 -103 -13 -575 2 -302 3 -558 4 -567 3 -40 42 -13 152 104 63 68
146 157 186 198 39 41 80 84 90 96 10 12 72 78 138 149 66 70 140 149 165 175
25 26 95 101 155 165 61 65 128 137 150 160 312 330 317 336 304 413 -5 26
-15 70 -24 97 -9 28 -18 57 -20 65 -2 8 -27 94 -54 190 -28 96 -51 177 -51
179 0 3 -34 -1 -135 -14 -271 -36 -818 -41 -1050 -10 -16 2 -55 7 -85 10 -55
5 -128 15 -165 21 -10 2 -37 6 -60 10 -66 9 -306 62 -406 88 -119 32 -226 68
-179 60 19 -3 46 -7 60 -9 14 -2 50 -8 80 -14 30 -5 78 -12 105 -16 28 -3 68
-8 90 -10 96 -13 126 -15 235 -21 197 -11 529 -5 655 11 17 2 57 7 90 10 57 6
107 12 150 20 77 12 111 19 195 36 81 16 122 26 230 53 8 2 35 10 60 17 25 7
50 13 55 15 8 1 141 44 183 59 7 2 13 4 15 4 17 -2 374 160 462 210 22 13 60
35 85 49 260 149 505 374 588 540 32 67 37 85 37 148 0 65 -3 76 -31 111 -72
90 -193 139 -394 161 -80 9 -643 8 -800 -1 -63 -4 -169 -9 -235 -12 -66 -3
-151 -8 -190 -10 -210 -13 -502 -19 -935 -19 -427 0 -598 4 -875 19 -38 2
-131 7 -205 10 -74 4 -166 9 -205 11 -107 7 -750 15 -756 10z m2566 -490 c121
-4 238 -8 260 -11 22 -2 67 -7 100 -10 179 -17 302 -55 342 -105 59 -73 -67
-183 -321 -280 -73 -27 -311 -85 -395 -96 -25 -3 -53 -7 -61 -9 -14 -4 -86
-11 -194 -21 -63 -5 -416 -6 -461 0 -22 3 -67 7 -100 11 -324 32 -665 139
-807 252 -101 82 -90 149 30 196 26 11 58 21 72 23 14 3 48 9 75 14 102 20
221 29 475 36 113 3 206 7 207 8 4 3 579 -3 778 -8z"/>
</g>
</svg>
