<svg xmlns="http://www.w3.org/2000/svg" viewBox="0 0 722.28 163.97"><defs><style>.cls-1,.cls-2{fill:#d7b56d;}.cls-2,.cls-3,.cls-4,.cls-5{fill-rule:evenodd;}.cls-3{fill:#fbd33d;}.cls-4{fill:#f55b58;}.cls-5{fill:#7dc431;}</style></defs><title>cerstva-svaca-logo</title><g id="Vrstva_2" data-name="Vrstva 2"><g id="Vrstva_1-2" data-name="Vrstva 1"><path class="cls-1" d="M600.14,133.7,599,120.63h-1.6l-1.23,13.07Zm-97.57,0-1.09-13.07h-1.6l-1.23,13.07Zm-74.26-24.83q0-.87,1.89-2.07a20,20,0,0,1,5.34-2.14,28.42,28.42,0,0,1,7.51-.94q4.06,0,6,1.16a3.66,3.66,0,0,1,2,2.54l2.54,26.42h1l2.25-25.77q.22-2,4.94-3.19a36.88,36.88,0,0,1,8.78-1.16,19.46,19.46,0,0,1,6,.69,5.53,5.53,0,0,1,2.51,1.42,2.3,2.3,0,0,1,.54,1.34,15.63,15.63,0,0,1-1.05,3.41q-1.05,2.79-2.21,6-3.85,10.16-13,36.44-.8,2.25-12.49,2.25a14.35,14.35,0,0,1-4.79-.51,2.85,2.85,0,0,1-1.6-1.74q-4.28-12.34-10.24-28T428.31,108.87ZM420,152.21a18.49,18.49,0,0,1-6.06,2.65,39.29,39.29,0,0,1-10,1.05,64.26,64.26,0,0,1-11.65-1,31,31,0,0,1-7.91-2.25q-2.4-1.23-2.4-2.4a33.06,33.06,0,0,1,1.16-8.46q1.16-4.39,2.76-4.39.29,0,6,2a29.71,29.71,0,0,0,8.64,2q2.9,0,3.78-.62a2,2,0,0,0,.87-1.78q0-1.16-1.6-2.07a18.45,18.45,0,0,0-4-1.6,35.74,35.74,0,0,1-5.19-2,39.58,39.58,0,0,1-5.19-2.9,12.46,12.46,0,0,1-4-4.54,13.84,13.84,0,0,1-1.6-6.71q0-16.12,19.24-16.12a73.67,73.67,0,0,1,12.41.91,27.46,27.46,0,0,1,7.37,2q2.14,1.13,2.14,2.21a21.59,21.59,0,0,1-1.78,8.13q-1.78,4.36-3.45,4.36a9.13,9.13,0,0,1-1.89-.65,20.78,20.78,0,0,0-7.95-2.11,10.57,10.57,0,0,0-4.28.58,1.89,1.89,0,0,0-1.13,1.78q0,1.2,1.6,2a22.53,22.53,0,0,0,4,1.38,32.41,32.41,0,0,1,5.15,1.89,31.1,31.1,0,0,1,5.19,3,13.09,13.09,0,0,1,4,4.83,15.73,15.73,0,0,1,1.6,7.26,14.5,14.5,0,0,1-2.25,7.91A13.86,13.86,0,0,1,420,152.21Zm143-54q0,.87-5.15,3.34-1.84.88-3.35,1.45,7,.18,10.26,1.42a8.7,8.7,0,0,1,3.12,2,5.41,5.41,0,0,1,1.38,4,22.72,22.72,0,0,1-1.27,6.61q-1.27,4-3.67,4a42.51,42.51,0,0,1-5.37-1.16,32.16,32.16,0,0,0-6.32-1.16q-2.54,0-4.32,2.83t-1.78,8.06a17.39,17.39,0,0,0,1.56,8.13q1.56,2.9,4.1,2.9a26.82,26.82,0,0,0,6.57-1.49,34.67,34.67,0,0,1,5.55-1.49q2.25,0,3.52,4.14a24,24,0,0,1,1.27,6.68,5.3,5.3,0,0,1-1.56,4,9.53,9.53,0,0,1-4.46,2.18,40.15,40.15,0,0,1-5.92.94q-3,.25-5.88.25t-4.43-.15a33.07,33.07,0,0,1-4.1-.73,21.88,21.88,0,0,1-4.65-1.6,22.33,22.33,0,0,1-4.46-3,17.87,17.87,0,0,1-4-4.65q-3.7-6.24-3.7-16.12A30.8,30.8,0,0,1,528,118a21.92,21.92,0,0,1,5-7.84,23.82,23.82,0,0,1,6.72-4.43,31.23,31.23,0,0,1,7.2-2.29,38,38,0,0,1-4.78-1.92q-5.34-2.51-5.34-3.3a12.11,12.11,0,0,1,.8-4.54q.8-2,2.1-2,.94,0,10.16,2.83Q559,91.7,560,91.7q1.31,0,2.11,2A12.13,12.13,0,0,1,563,98.23Zm-54-5.79q1.67,0,3.38,2.76A12.74,12.74,0,0,1,514,102q0,1-5.42,1.8,3.86.38,4.36,2.06,13.72,45.59,13.72,46.32a2,2,0,0,1-.87,1.45q-2,1.6-8.06,1.6-12.85,0-13.14-3l-.51-4.72h-7l-.36,4.07a3.16,3.16,0,0,1-2.21,2.9q-2.07.8-7.44.8a34.69,34.69,0,0,1-9-1q-3.59-1-3.59-2.5,0-1.74,6.46-22.25t7.4-23.63q.36-.94,5.84-1.56l1.51-.16a5,5,0,0,1-1-1.13,7.26,7.26,0,0,1-1.13-4q0-2.29,5.41-4.43A27,27,0,0,1,508.92,92.44Zm85.41,59.11a3.16,3.16,0,0,1-2.21,2.9q-2.07.8-7.44.8a34.69,34.69,0,0,1-9-1q-3.59-1-3.59-2.5,0-1.74,6.46-22.25t7.4-23.63q.36-.94,5.84-1.56a105.36,105.36,0,0,1,11.76-.62q6.28,0,6.93,2.18,13.72,45.59,13.72,46.32a2,2,0,0,1-.87,1.45q-2,1.6-8.06,1.6-12.85,0-13.14-3l-.51-4.72h-7Z"/><path class="cls-1" d="M698.18,50.35l-1.09-13.07h-1.6l-1.23,13.07ZM622.71,25.52q0-.87,1.89-2.07a20.06,20.06,0,0,1,5.34-2.14,28.4,28.4,0,0,1,7.51-.94q4.07,0,6,1.16a3.66,3.66,0,0,1,2,2.54L648,50.5h1l2.25-25.77q.22-2,4.94-3.19A36.87,36.87,0,0,1,665,20.37a19.45,19.45,0,0,1,6,.69,5.52,5.52,0,0,1,2.5,1.42,2.3,2.3,0,0,1,.54,1.34A15.65,15.65,0,0,1,673,27.23q-1.05,2.79-2.21,6-3.85,10.16-13,36.44-.8,2.25-12.49,2.25a14.33,14.33,0,0,1-4.79-.51,2.85,2.85,0,0,1-1.6-1.74q-4.28-12.34-10.24-28T622.71,25.52ZM608.48,70.17q0,.8-4.46,1.27a84.87,84.87,0,0,1-8.93.47,23.66,23.66,0,0,1-5.66-.4q-1.2-.4-1.2-1.34V39H578.13q-.8,0-1.38-2a23.63,23.63,0,0,1-.58-6.06A27.9,27.9,0,0,1,577,23.6q.87-3.23,2.32-3.23h39.27q1.09,0,1.49,2a32.67,32.67,0,0,1,.4,5.88,31.79,31.79,0,0,1-.8,7.26q-.8,3.41-2.18,3.41h-9.07ZM567.1,68.86A18.48,18.48,0,0,1,561,71.51a39.29,39.29,0,0,1-10,1.05,64.26,64.26,0,0,1-11.65-1,31,31,0,0,1-7.91-2.25q-2.39-1.23-2.4-2.4a33.05,33.05,0,0,1,1.16-8.46q1.16-4.39,2.76-4.39.29,0,6,2a29.7,29.7,0,0,0,8.64,2q2.9,0,3.77-.62a2,2,0,0,0,.87-1.78q0-1.16-1.6-2.07a18.45,18.45,0,0,0-4-1.6,35.71,35.71,0,0,1-5.19-2,39.49,39.49,0,0,1-5.19-2.9,12.45,12.45,0,0,1-4-4.54,13.84,13.84,0,0,1-1.6-6.72q0-16.12,19.24-16.12a73.68,73.68,0,0,1,12.41.91,27.44,27.44,0,0,1,7.37,2q2.14,1.12,2.14,2.21a21.6,21.6,0,0,1-1.78,8.13q-1.78,4.35-3.45,4.36a9.13,9.13,0,0,1-1.89-.65,20.77,20.77,0,0,0-7.95-2.11,10.58,10.58,0,0,0-4.28.58,1.89,1.89,0,0,0-1.13,1.78q0,1.2,1.6,2a22.55,22.55,0,0,0,4,1.38,32.4,32.4,0,0,1,5.15,1.89,31.11,31.11,0,0,1,5.19,3,13.09,13.09,0,0,1,4,4.83,15.73,15.73,0,0,1,1.6,7.26,14.5,14.5,0,0,1-2.25,7.91A13.86,13.86,0,0,1,567.1,68.86ZM497.29,43.75h1.89q4.21,0,4.21-6.53,0-3.34-1.12-4.72a3.28,3.28,0,0,0-2.58-1.38h-2.4Zm0,26.06q0,.94-4.43,1.52a68.39,68.39,0,0,1-8.89.58,19.62,19.62,0,0,1-5.74-.51c-.85-.34-2.5-.87-2.48-1.6L477,23.13c0-1.26,1.58-2.15,4.75-2.69a74.62,74.62,0,0,1,12-.8q7.26,0,9.4,0t5,.25a22.77,22.77,0,0,1,4.61.73q1.71.51,3.78,1.31A8.37,8.37,0,0,1,519.8,24,20.76,20.76,0,0,1,522,27q2,3.12,2,8.89a22.12,22.12,0,0,1-1.92,9.73,14.26,14.26,0,0,1-5.12,6q8.35,13.14,8.35,16.7T511,71.91a30.18,30.18,0,0,1-5.74-.36,2.55,2.55,0,0,1-2-1.6l-4.72-15-1.23-.07Zm-29,2.11H437.5a14.76,14.76,0,0,1-4.79-.51,1.69,1.69,0,0,1-1.23-1.6v-46a2.76,2.76,0,0,1,1.71-2.69q1.7-.8,6.13-.8H468.5q1.52,0,1.52,5a34.24,34.24,0,0,1-.65,7.69q-.65,2.65-1.74,2.65-4.72,0-15.9-.94v4.86q10.74-.44,14-.44,2,0,2,4.57a23.94,23.94,0,0,1-.76,6.93q-.76,2.36-2.07,2.36l-13.14-.29v4.65q12.63-.94,17.42-.94,1.52,0,1.52,5.08a34,34,0,0,1-.65,7.7Q469.37,71.91,468.28,71.91ZM418.64,14.6q0,.87-5.15,3.34a38.26,38.26,0,0,1-4.11,1.72q7.77.11,11.31,1.44a8.71,8.71,0,0,1,3.12,2,5.41,5.41,0,0,1,1.38,4,22.76,22.76,0,0,1-1.27,6.61q-1.27,4-3.67,4a42.63,42.63,0,0,1-5.37-1.16,32.28,32.28,0,0,0-6.32-1.16q-2.54,0-4.32,2.83t-1.78,8.06A17.4,17.4,0,0,0,404,54.42q1.56,2.9,4.1,2.9a26.81,26.81,0,0,0,6.57-1.49,34.67,34.67,0,0,1,5.55-1.49q2.25,0,3.52,4.14A24,24,0,0,1,425,65.16a5.3,5.3,0,0,1-1.56,4A9.53,9.53,0,0,1,419,71.37a40.17,40.17,0,0,1-5.92.94q-3,.25-5.88.25t-4.43-.15a33,33,0,0,1-4.1-.73A21.88,21.88,0,0,1,394,70.1a22.32,22.32,0,0,1-4.46-3,17.86,17.86,0,0,1-4-4.65q-3.7-6.24-3.7-16.12A30.82,30.82,0,0,1,384,34.67a21.92,21.92,0,0,1,5-7.84,23.82,23.82,0,0,1,6.71-4.43A31.05,31.05,0,0,1,403.36,20a34.16,34.16,0,0,1-5.52-2.13q-5.34-2.51-5.34-3.3a12.15,12.15,0,0,1,.8-4.54q.8-2,2.11-2,.94,0,10.16,2.83,9.15-2.83,10.16-2.83,1.31,0,2.11,2A12.13,12.13,0,0,1,418.64,14.6ZM692.37,68.21a3.16,3.16,0,0,1-2.21,2.9q-2.07.8-7.44.8a34.7,34.7,0,0,1-9-1q-3.59-1-3.59-2.51,0-1.74,6.46-22.25T684,22.55q.36-.94,5.84-1.56l1.33-.14a4.78,4.78,0,0,1-1.09-1.23,7.27,7.27,0,0,1-1.13-4q0-2.29,5.41-4.43A27,27,0,0,1,704.23,9q1.67,0,3.38,2.76a12.75,12.75,0,0,1,1.71,6.82q0,1-5.66,1.84,4.37.31,4.91,2.11,13.72,45.59,13.72,46.32a2,2,0,0,1-.87,1.45q-2,1.6-8.06,1.6-12.85,0-13.14-3l-.51-4.72h-7Z"/><path class="cls-2" d="M153.31,148.55C98.46,146,63.16,131.93,48.86,111.3c-1.21-3.38.54-5.32,3.52-4.1,28.41,11.71,64.32,17.21,97.49,19.21a59.92,59.92,0,0,0,3.51,5.8,22.89,22.89,0,0,1,2.36,4c.17,1.53-.67,5-1.48,8.33-.33,1.36-.66,2.71-.94,4m149.63-36.29c-16.67,18.68-48.57,30.37-90.88,34.74a38,38,0,0,1,3.86-2.78c6.24-4.15,12.39-8.24,10.9-17.68a13.83,13.83,0,0,0-.34-1.59c25.66-2.74,51.95-8,73.61-16.62C303.49,107,305.92,108,302.94,112.26ZM48,86A62.25,62.25,0,0,1,64,69.54c11.65-8.4,25.21-12.92,33.63-13.62a63,63,0,0,1,7.27-.21q.79.54,1.57,1c-6.32,11.64.12,20.59,3,20,2.38-.49,2.89-2.9,3.62-6a36,36,0,0,1,7.06-13.78c.78-.45,1.57-1,2.41-1.5.58,1.38,1.15,3,1.72,4.69a51,51,0,0,0,4.26,10c2.72,4.4,5.95,8,10.27,8.85,5.66,1.11,10.5-1.61,13.75-10.87,1.52-4.34,2.78-14.09,3.18-23.23q.05-1.14.08-2.27a63,63,0,0,1,17,2.08,32.79,32.79,0,0,1,7.63,2.86q-.42.58-.79,1.19c-5.62,9.35-5.4,22.48-2.37,23.4s4.51-3.26,6.76-8.36c3.23-7.33,9-16.06,17.37-17.84,6.16-1.3,14-1,21.47.24,7.92,1.36,15.68,3.91,20.72,7,1.5.92,2.75,1.75,3.82,2.52a12.81,12.81,0,0,0-3.68,2.94c-5.38,6.61-6.4,16.19-3.39,17.1,1.87.57,3.26-.45,4.69-2.12a50.52,50.52,0,0,1,9.63-8.74,52.33,52.33,0,0,0,6.94,15.88c3.46,5.1,7.83,8.84,12.81,10.07a18.2,18.2,0,0,0,4,.49c7.32.17,17.6-3.88,26.35-10l1.29-.93a33.61,33.61,0,0,1,4.43,7c2.24,17.08-53.81,25.94-93.14,29.76a60.87,60.87,0,0,0-6.84-1.24c-2.3-.33-4.57-.65-4.73-.77s0-2.72-.38-5.58c-.82-7-1.62-13.89-8.58-16.45-8.9-3.28-12.73,2-17.36,8.48-1.82,2.54-3.91,5.44-6.23,6.57-.26.13-2-.41-4.35-.7-6.64-.83-13.63-1.7-18,4.08a13.55,13.55,0,0,0-2.82,6.24C105.32,114.32,39.64,105.52,48,86Z"/><path class="cls-2" d="M42.14,32.61c-3.21,10.71,18.63,19.27,11.7,5.56-5.17-10.22-9.62-11.31-11.7-5.56"/><path class="cls-2" d="M219.07,14.91c11.46-12.84-11.58-18.65-11.68-4.23-.08,10.75,5.06,11.19,11.68,4.23"/><path class="cls-2" d="M331.79,67.62c-15.62,15.45,22.38,12,19.53-.65-2.12-9.41-10.41-7.89-19.53.65"/><path class="cls-3" d="M194.25,100.08c-6.54-2.41-8.87,10.4-17.71,14.73-4.16,2-16.58-2.9-19.7,1.2-4.48,5.87,5.71,13.54,6.36,19.34.7,6.28-5.19,19.18-2.57,22.45,5.18,6.46,16.79-5.25,23-3.9,5.22,1.13,13.16,13.91,20,8.92,3.63-2.67-1.77-13.79,1.22-18.75,3.69-6.13,15.86-8.6,14.64-16.39-.81-5.17-13.94-3.55-18.05-6.56-4.82-3.53-2-19.16-7.11-21"/><path class="cls-4" d="M290.78,40.21c-6.64-2.69-7-13.71-21.38-10.2-12.55,3.07-10.19,21.41-7.62,32.12,2.44,10.2,8.14,19.83,14.5,21.41,11.27,2.79,40.13-15,40.5-31.21.16-7.31-2.67-12.11-6.45-13.47-9.43-3.4-16.94,2.41-19.54,1.36"/><path class="cls-2" d="M19.69,70.63C35.31,84.26-2.69,88.2.15,73.9c2.12-10.66,10.41-10.7,19.53-3.27"/><path class="cls-5" d="M139.07,22.16c3.18,0,6.44-.28,8.17,4.44,2.44,6.66.73,32-1.73,39-3.35,9.54-7.08,6.17-10.56.55-4.37-7.07-5.84-23.39-13.36-19-4.27,2.49-6.46,4.93-9.86,3.74C102.83,47.81,86,23.55,85.53,12.13c-.28-6.53,32.56-18.4,36.69-8.06,1.44,3.6.62,5.12,1.67,10.49,3.3,16.79,5.1,7.73,15.18,7.6"/></g></g></svg>