<svg xmlns="http://www.w3.org/2000/svg" viewBox="0 0 1282.44 316.05"><defs><style>.cls-1,.cls-3{fill:#0c592e;}.cls-2{fill:#ffdf00;}.cls-2,.cls-3{fill-rule:evenodd;}</style></defs><title>litobal-logo</title><g id="Vrstva_2" data-name="Vrstva 2"><g id="Vrstva_1-2" data-name="Vrstva 1"><path class="cls-1" d="M91.89,82.13,185,0h90.85l-6.94,17.64L254.16,54.7,316.39,0h80.23L377.5,47.17,431,0h80.23L491.28,50.1h1.28L549.31,0H830.56L810.87,50.1H857a28.39,28.39,0,0,1,10.5,2A36.2,36.2,0,0,1,884.67,67.2a43.37,43.37,0,0,1,4.75,11.11l32-28.21h126.5c.69,0,1.36,0,2,.07L1106.82,0h105.26L1144,171.54h25.19q-9.32,24.59-18.65,49.18l-44.39,22.36h176.3l-18.93,48.15-70.4,24.81H0Z"/><polygon class="cls-2" points="193.75 12.94 256.85 12.94 161.23 256.03 1263.47 256.03 1254.71 278.29 89.38 278.29 193.75 12.94"/><polygon class="cls-2" points="439.75 12.94 419.82 63.04 395.02 63.04 386.18 86.34 410.55 86.34 362.22 207.78 414.62 207.78 462.94 86.34 488.91 86.34 497.74 63.04 472.21 63.04 492.15 12.94 439.75 12.94"/><path class="cls-2" d="M563.05,63c-14,0-30.37,11.91-36.24,26.5l-34,84.56c-5.87,14.59,6.16,33.68,20.18,33.68h91.83c14,0,30.44-11.87,36.24-26.49l33.22-83.76C680.07,82.91,668.91,63,654.89,63Z"/><path class="cls-3" d="M595,86.34c-8,0-17.17,6.53-20.41,14.52l-28,69.1c-3.24,8,3.84,14.52,11.82,14.52h14.43c8,0,17.17-6.54,20.41-14.52l28-69.1c3.24-8-3.84-14.52-11.83-14.52Z"/><polygon class="cls-2" points="357.18 63.04 304.79 63.04 247.19 207.78 299.58 207.78 357.18 63.04"/><path class="cls-2" d="M791.92,63l19.68-50.1H558.1l-8.81,22.26H750.34L709.18,138.6,694.9,174.1a20.42,20.42,0,0,0-.77,2.31l-12.49,31.38H806.91c14,0,30.44-11.87,36.24-26.49l33.22-83.76C882.17,82.91,871,63,857,63Z"/><path class="cls-2" d="M1002.49,86.34c8,0,15.1,6.55,11.82,14.52L1004.82,124l-73.13.08c-14,0-30.38,11.9-36.24,26.49l-9.64,23.52c-6,14.55,6.16,33.68,20.18,33.68h117.76L1067.3,97.52c5.78-14.62-5.36-34.49-19.38-34.49H930.31l-8.83,23.3Z"/><path class="cls-3" d="M979.93,184.48l15.42-37.61-31.5-.09c-8,0-16.92,6.63-20.4,14.51L939.61,170c-3.48,7.88,3.84,14.52,11.82,14.52h28.49Z"/><path class="cls-3" d="M770.16,117l-27,67.43h31.75c8,0,17.17-6.54,20.41-14.52l28-69.1c3.24-8-3.84-14.52-11.82-14.52l-28.92-.08Z"/><polygon class="cls-2" points="377.48 12.94 325.09 12.94 316.12 35.21 368.51 35.21 377.48 12.94"/><polygon class="cls-2" points="1193.02 12.94 1115.71 12.94 1106.88 36.24 1131.24 36.24 1063.09 207.78 1141.63 207.78 1150.46 184.48 1124.93 184.48 1193.02 12.94"/><path class="cls-3" d="M1240,148.78a36.39,36.39,0,0,0-4.61-6.18,8.4,8.4,0,0,0-2.65-1.65,9.66,9.66,0,0,0,6.47-2.84,8.3,8.3,0,0,0,2.44-5.95,8,8,0,0,0-1.46-4.56,7.72,7.72,0,0,0-3.91-3,26.32,26.32,0,0,0-7.94-.85h-10.7v31.13h5V141.64h2.94a6.47,6.47,0,0,1,4,1.07c1.34,1,3.08,3.4,5.25,7.24l2.76,4.91h6.15Zm-11.23-11.43h-6.1V128h5.71a15.52,15.52,0,0,1,5.05.54,4.59,4.59,0,0,1,2.12,1.62,4.47,4.47,0,0,1-.82,5.93C1233.68,136.9,1231.69,137.35,1228.78,137.35Z"/><path class="cls-1" d="M1229.35,115.36a24.59,24.59,0,0,1,11.85,3.13,21.54,21.54,0,0,1,8.83,8.75,24.32,24.32,0,0,1,3.24,12.09,24.06,24.06,0,0,1-3.2,12,21.76,21.76,0,0,1-8.75,8.77,24.05,24.05,0,0,1-24,0,21.84,21.84,0,0,1-8.78-8.79,24,24,0,0,1-3.2-11.93,24.23,24.23,0,0,1,3.25-12.08,21.62,21.62,0,0,1,8.84-8.74,24.88,24.88,0,0,1,11.86-3.13m0-5a29.71,29.71,0,0,0-14.23,3.73,26.72,26.72,0,0,0-10.84,10.71,29,29,0,0,0-.05,28.89,26.94,26.94,0,0,0,10.72,10.73,29.05,29.05,0,0,0,28.8,0,26.87,26.87,0,0,0,10.7-10.73,29,29,0,0,0-.06-28.89,26.62,26.62,0,0,0-10.81-10.71,29.74,29.74,0,0,0-14.23-3.73Z"/></g></g></svg>