<svg xmlns="http://www.w3.org/2000/svg" viewBox="0 0 183.01 41.74"><defs><style>.cls-1{fill:#ef4136;}.cls-2{fill:#6d6e71;}</style></defs><title>obleczech-logo</title><g id="Vrstva_2" data-name="Vrstva 2"><g id="seda-cervena"><path class="cls-1" d="M166.93,41.74h-3.42a1.36,1.36,0,0,1,0-2.72h3.42a1.36,1.36,0,1,1,0,2.72Zm-10.26,0h-3.42a1.36,1.36,0,1,1,0-2.72h3.42a1.36,1.36,0,1,1,0,2.72Zm-10.27,0H143A1.36,1.36,0,1,1,143,39h3.42a1.36,1.36,0,1,1,0,2.72Zm-10.26,0h-3.42a1.36,1.36,0,1,1,0-2.72h3.42a1.36,1.36,0,1,1,0,2.72Zm-10.27,0h-3.42a1.36,1.36,0,0,1,0-2.72h3.42a1.36,1.36,0,1,1,0,2.72Zm-10.27,0h-3.42a1.36,1.36,0,0,1,0-2.72h3.42a1.36,1.36,0,0,1,0,2.72Zm-10.27,0h-3.42a1.36,1.36,0,1,1,0-2.72h3.42a1.36,1.36,0,1,1,0,2.72Zm-10.27,0H91.64a1.36,1.36,0,1,1,0-2.72h3.42a1.36,1.36,0,1,1,0,2.72Zm-10.27,0H81.38a1.36,1.36,0,1,1,0-2.72H84.8a1.36,1.36,0,1,1,0,2.72Zm-10.27,0H71.11a1.36,1.36,0,1,1,0-2.72h3.42a1.36,1.36,0,1,1,0,2.72Zm-10.27,0H60.84a1.36,1.36,0,0,1,0-2.72h3.42a1.36,1.36,0,1,1,0,2.72ZM54,41.74H50.58a1.36,1.36,0,1,1,0-2.72H54a1.36,1.36,0,0,1,0,2.72Zm-10.27,0H40.31a1.36,1.36,0,1,1,0-2.72h3.42a1.36,1.36,0,0,1,0,2.72Zm-10.27,0H30A1.36,1.36,0,1,1,30,39h3.42a1.36,1.36,0,1,1,0,2.72Zm-10.27,0H19.78a1.36,1.36,0,1,1,0-2.72H23.2a1.36,1.36,0,1,1,0,2.72Zm-10.27,0H11.57a11.5,11.5,0,0,1-2.32-.24,1.36,1.36,0,0,1,.55-2.67,8.64,8.64,0,0,0,1.77.18h1.36a1.36,1.36,0,1,1,0,2.72Zm160.83-.27a1.36,1.36,0,0,1-.31-2.69,8.81,8.81,0,0,0,2.72-1.15,1.36,1.36,0,1,1,1.46,2.29,11.39,11.39,0,0,1-3.56,1.5A1.28,1.28,0,0,1,173.76,41.48Zm-170-3.39a1.36,1.36,0,0,1-1-.49,11.59,11.59,0,0,1-2-3.32,1.36,1.36,0,1,1,2.54-1,8.82,8.82,0,0,0,1.5,2.54,1.36,1.36,0,0,1-1,2.24Zm177.32-3.2a1.31,1.31,0,0,1-.45-.08,1.36,1.36,0,0,1-.84-1.73,8.78,8.78,0,0,0,.49-2.91,1.41,1.41,0,0,1,1.36-1.42,1.31,1.31,0,0,1,1.36,1.3v.12a11.51,11.51,0,0,1-.65,3.81A1.36,1.36,0,0,1,181.08,34.89ZM1.36,28.39A1.36,1.36,0,0,1,0,27V23.61a1.36,1.36,0,1,1,2.72,0V27A1.36,1.36,0,0,1,1.36,28.39Zm180.28-3.82a1.36,1.36,0,0,1-1.36-1.36V19.79a1.36,1.36,0,0,1,2.72,0v3.42A1.36,1.36,0,0,1,181.65,24.57ZM1.36,18.13A1.36,1.36,0,0,1,0,16.76V13.34a1.36,1.36,0,1,1,2.72,0v3.42A1.36,1.36,0,0,1,1.36,18.13ZM181.65,14.3a1.36,1.36,0,0,1-1.36-1.36V11.57a8.87,8.87,0,0,0-.18-1.77,1.36,1.36,0,1,1,2.67-.54,11.94,11.94,0,0,1,.23,2.3v1.38A1.36,1.36,0,0,1,181.65,14.3ZM2.6,8.07A1.34,1.34,0,0,1,2,7.9a1.36,1.36,0,0,1-.54-1.85A11.6,11.6,0,0,1,3.79,3,1.36,1.36,0,0,1,5.63,5,8.84,8.84,0,0,0,3.8,7.36,1.36,1.36,0,0,1,2.6,8.07ZM178,5.13a1.37,1.37,0,0,1-.88-.32,8.86,8.86,0,0,0-2.54-1.51,1.36,1.36,0,0,1,1-2.54,11.52,11.52,0,0,1,3.32,2,1.36,1.36,0,0,1-.88,2.4ZM10.88,2.75A1.36,1.36,0,0,1,10.78,0c.26,0,.52,0,.79,0H14.3a1.36,1.36,0,0,1,0,2.72H11.57l-.59,0Zm157.43,0h-3.42a1.36,1.36,0,0,1,0-2.72h3.42a1.36,1.36,0,0,1,0,2.72ZM158,2.72h-3.43a1.36,1.36,0,0,1,0-2.72H158a1.36,1.36,0,1,1,0,2.72Zm-10.27,0h-3.42a1.36,1.36,0,1,1,0-2.72h3.42a1.36,1.36,0,1,1,0,2.72Zm-10.27,0h-3.42a1.36,1.36,0,1,1,0-2.72h3.42a1.36,1.36,0,0,1,0,2.72Zm-10.27,0h-3.42a1.36,1.36,0,0,1,0-2.72h3.42a1.36,1.36,0,0,1,0,2.72ZM117,2.72h-3.42a1.36,1.36,0,0,1,0-2.72H117a1.36,1.36,0,0,1,0,2.72Zm-10.27,0h-3.42a1.36,1.36,0,0,1,0-2.72h3.42a1.36,1.36,0,0,1,0,2.72Zm-10.27,0H93A1.36,1.36,0,0,1,93,0h3.42a1.36,1.36,0,0,1,0,2.72Zm-10.27,0H82.75a1.36,1.36,0,0,1,0-2.72h3.42a1.36,1.36,0,0,1,0,2.72Zm-10.27,0H72.48a1.36,1.36,0,0,1,0-2.72H75.9a1.36,1.36,0,0,1,0,2.72Zm-10.27,0H62.22a1.36,1.36,0,0,1,0-2.72h3.42a1.36,1.36,0,0,1,0,2.72Zm-10.26,0H51.95a1.36,1.36,0,0,1,0-2.72h3.42a1.36,1.36,0,0,1,0,2.72Zm-10.27,0H41.68a1.36,1.36,0,0,1,0-2.72H45.1a1.36,1.36,0,0,1,0,2.72Zm-10.27,0H31.41a1.36,1.36,0,0,1,0-2.72h3.42a1.36,1.36,0,0,1,0,2.72Zm-10.27,0H21.15a1.36,1.36,0,0,1,0-2.72h3.42a1.36,1.36,0,0,1,0,2.72Z"/><path class="cls-2" d="M20.14,31.12a11.45,11.45,0,0,1-3.27-.43,5.51,5.51,0,0,1-2.42-1.45,6.54,6.54,0,0,1-1.5-2.7,14.55,14.55,0,0,1-.51-4.19V20.49A14.38,14.38,0,0,1,13,16.33a6.49,6.49,0,0,1,1.5-2.69,5.59,5.59,0,0,1,2.42-1.45,11.26,11.26,0,0,1,3.27-.44,11.48,11.48,0,0,1,3.27.43,5.42,5.42,0,0,1,2.41,1.45,6.64,6.64,0,0,1,1.49,2.7,14.58,14.58,0,0,1,.51,4.18v1.86a14.51,14.51,0,0,1-.51,4.17,6.67,6.67,0,0,1-1.49,2.69,5.44,5.44,0,0,1-2.41,1.45A11.56,11.56,0,0,1,20.14,31.12Zm0-16a6.26,6.26,0,0,0-1.87.25,3.05,3.05,0,0,0-1.35.86,3.9,3.9,0,0,0-.83,1.62,9.77,9.77,0,0,0-.28,2.53v2.12A9.88,9.88,0,0,0,16.09,25a3.92,3.92,0,0,0,.83,1.63,3.09,3.09,0,0,0,1.35.87,6.82,6.82,0,0,0,3.73,0,3.08,3.08,0,0,0,1.36-.87A3.9,3.9,0,0,0,24.19,25a9.79,9.79,0,0,0,.28-2.54V20.39a9.85,9.85,0,0,0-.28-2.54,3.94,3.94,0,0,0-.83-1.63A3.05,3.05,0,0,0,22,15.35,6.08,6.08,0,0,0,20.14,15.09Z"/><path class="cls-2" d="M36.9,31.12c-.88,0-1.78,0-2.69-.09s-1.84-.16-2.78-.29a.34.34,0,0,1-.19-.07.31.31,0,0,1,0-.19V10.72c0-.16.08-.25.23-.25l2.73-.38c.15,0,.23.06.23.2v6.85c.44-.07.9-.12,1.39-.18s1-.08,1.65-.08a10.31,10.31,0,0,1,2.79.33,4,4,0,0,1,1.84,1.06,4.28,4.28,0,0,1,1,1.92,11.61,11.61,0,0,1,.31,2.9v1.83a11.47,11.47,0,0,1-.32,2.92A4.08,4.08,0,0,1,42,29.76a4.34,4.34,0,0,1-2,1A12.88,12.88,0,0,1,36.9,31.12ZM37,19.65l-.66,0-.7,0-.66.05a5.58,5.58,0,0,0-.56.08v8.4c.36,0,.77.07,1.23.09s.9,0,1.33,0a6.05,6.05,0,0,0,1.69-.19,2,2,0,0,0,1-.65,2.63,2.63,0,0,0,.5-1.21,11.18,11.18,0,0,0,.13-1.87v-1a10.77,10.77,0,0,0-.13-1.81,2.45,2.45,0,0,0-.49-1.16,2,2,0,0,0-1-.62A6.47,6.47,0,0,0,37,19.65Z"/><path class="cls-2" d="M46.87,30.77a.2.2,0,0,1-.23-.22V10.71c0-.16.08-.25.23-.25l2.74-.38c.15,0,.23.06.23.2V30.54a.2.2,0,0,1-.23.22Z"/><path class="cls-2" d="M59.35,31.12a10.21,10.21,0,0,1-2.91-.36,4.35,4.35,0,0,1-2-1.14,4.63,4.63,0,0,1-1.1-2,11.24,11.24,0,0,1-.34-3V23.34a10.93,10.93,0,0,1,.33-2.89,4.71,4.71,0,0,1,1.08-2,4.45,4.45,0,0,1,1.92-1.18,9.28,9.28,0,0,1,2.87-.39,9.57,9.57,0,0,1,2.88.38,4.51,4.51,0,0,1,1.93,1.16,4.66,4.66,0,0,1,1.08,2,10.25,10.25,0,0,1,.34,2.82,8.22,8.22,0,0,1-.08,1.25c-.06.37-.1.64-.14.81a.28.28,0,0,1-.08.15.23.23,0,0,1-.16,0l-8.8,0a5.28,5.28,0,0,0,.27,1.43,2,2,0,0,0,.61.88,2.32,2.32,0,0,0,1,.44,7.7,7.7,0,0,0,1.47.12c.76,0,1.5,0,2.24,0s1.51-.08,2.35-.16a.2.2,0,0,1,.24.2l.18,2.13a.23.23,0,0,1-.21.27c-.8.12-1.61.21-2.41.27S60.27,31.12,59.35,31.12Zm3.24-8.2a7.55,7.55,0,0,0-.29-1.55,2.54,2.54,0,0,0-.58-1,2.13,2.13,0,0,0-1-.56,5.47,5.47,0,0,0-1.49-.17,4.87,4.87,0,0,0-1.46.19,2,2,0,0,0-.94.6,2.55,2.55,0,0,0-.5,1.08,7.91,7.91,0,0,0-.16,1.62Z"/><path class="cls-1" d="M76.25,31.12a12.45,12.45,0,0,1-3.4-.43,5.81,5.81,0,0,1-2.53-1.45,6.54,6.54,0,0,1-1.58-2.7,13.8,13.8,0,0,1-.54-4.19V20.49a13.64,13.64,0,0,1,.54-4.16,6.52,6.52,0,0,1,1.58-2.7,5.79,5.79,0,0,1,2.53-1.45,12.41,12.41,0,0,1,3.4-.43c.43,0,.86,0,1.29,0s.83.06,1.22.11.76.11,1.1.19a9,9,0,0,1,.93.23.23.23,0,0,1,.18.29l-.42,2.54a.2.2,0,0,1-.27.18,15.94,15.94,0,0,0-1.94-.26q-1-.08-2-.08a7.34,7.34,0,0,0-2.06.26,3.35,3.35,0,0,0-1.5.89,4.06,4.06,0,0,0-.92,1.66,8.84,8.84,0,0,0-.32,2.56v2.12a9.11,9.11,0,0,0,.31,2.58,4,4,0,0,0,.92,1.67,3.32,3.32,0,0,0,1.51.89,7.52,7.52,0,0,0,2.06.26c.74,0,1.44,0,2.11-.07s1.32-.11,1.94-.2a.2.2,0,0,1,.27.19l.37,2.59a.29.29,0,0,1,0,.2.32.32,0,0,1-.17.09c-.28.07-.6.13-.95.19s-.73.1-1.13.14-.81.07-1.25.09S76.69,31.12,76.25,31.12Z"/><path class="cls-1" d="M83.92,20.07a.2.2,0,0,1-.23-.23v-2.4a.2.2,0,0,1,.23-.23H94.37a.2.2,0,0,1,.23.23v2a.94.94,0,0,1-.08.4,1.15,1.15,0,0,1-.2.3l-6.75,7.73h6.9a.2.2,0,0,1,.23.23v2.43a.2.2,0,0,1-.23.22H83.83a.2.2,0,0,1-.23-.22V28.4a.7.7,0,0,1,0-.27,1,1,0,0,1,.14-.24l6.8-7.83H83.92Z"/><path class="cls-1" d="M103.48,31.12a10.23,10.23,0,0,1-2.91-.36,4.36,4.36,0,0,1-2-1.14,4.63,4.63,0,0,1-1.1-2,11.28,11.28,0,0,1-.34-3V23.34a10.88,10.88,0,0,1,.33-2.89,4.73,4.73,0,0,1,1.08-2,4.45,4.45,0,0,1,1.92-1.18,9.28,9.28,0,0,1,2.88-.39,9.56,9.56,0,0,1,2.87.38,4.5,4.5,0,0,1,1.93,1.16,4.65,4.65,0,0,1,1.08,2,10.25,10.25,0,0,1,.34,2.82,8.37,8.37,0,0,1-.08,1.25c-.06.37-.1.64-.15.81a.27.27,0,0,1-.07.15.24.24,0,0,1-.17,0l-8.8,0a5.27,5.27,0,0,0,.27,1.43,2,2,0,0,0,.61.88,2.32,2.32,0,0,0,1,.44,7.71,7.71,0,0,0,1.47.12c.76,0,1.51,0,2.24,0s1.51-.08,2.35-.16a.2.2,0,0,1,.24.2l.18,2.13a.23.23,0,0,1-.21.27c-.8.12-1.61.21-2.41.27S104.4,31.12,103.48,31.12Zm3.24-8.2a7.55,7.55,0,0,0-.29-1.55,2.54,2.54,0,0,0-.58-1,2.13,2.13,0,0,0-1-.56,5.47,5.47,0,0,0-1.49-.17,4.87,4.87,0,0,0-1.46.19,2,2,0,0,0-.94.6,2.55,2.55,0,0,0-.5,1.08,7.83,7.83,0,0,0-.17,1.62Z"/><path class="cls-1" d="M118.73,31.12a11.83,11.83,0,0,1-3.13-.35,4.44,4.44,0,0,1-2-1.12,4.28,4.28,0,0,1-1.07-2,12,12,0,0,1-.32-3V23.27a11.71,11.71,0,0,1,.31-2.89,4.33,4.33,0,0,1,1.06-2,4.46,4.46,0,0,1,2-1.15,11.44,11.44,0,0,1,3.16-.37,16.87,16.87,0,0,1,1.72.08c.53.05,1,.12,1.46.21a.33.33,0,0,1,.18.08.24.24,0,0,1,0,.19l-.19,2.23c0,.14-.08.21-.24.2-.45-.06-.92-.1-1.39-.12s-1,0-1.47,0a6.67,6.67,0,0,0-1.76.19,2.05,2.05,0,0,0-1,.64,2.47,2.47,0,0,0-.5,1.18,10.83,10.83,0,0,0-.13,1.82v.9a10.9,10.9,0,0,0,.13,1.84,2.47,2.47,0,0,0,.49,1.18,2,2,0,0,0,1,.62,7,7,0,0,0,1.76.18c.52,0,1,0,1.5,0s.93-.07,1.38-.12a.2.2,0,0,1,.24.2l.18,2.23a.25.25,0,0,1,0,.19.29.29,0,0,1-.18.09l-.7.12-.8.09-.84.06C119.28,31.12,119,31.12,118.73,31.12Z"/><path class="cls-1" d="M134.11,30.77a.2.2,0,0,1-.23-.22V23.35a10.47,10.47,0,0,0-.1-1.58,2.28,2.28,0,0,0-.41-1,1.7,1.7,0,0,0-.85-.58,4.64,4.64,0,0,0-1.44-.18,8.2,8.2,0,0,0-1.55.16,5.68,5.68,0,0,0-1.42.46v10a.2.2,0,0,1-.23.22h-2.73a.2.2,0,0,1-.23-.22V10.71a.22.22,0,0,1,.23-.25l2.73-.38c.15,0,.23.06.23.2V18a7.33,7.33,0,0,1,1.89-.78,8.39,8.39,0,0,1,2.23-.29,7,7,0,0,1,2.18.3,3.32,3.32,0,0,1,1.5,1,4.42,4.42,0,0,1,.86,1.83,11.84,11.84,0,0,1,.28,2.81v7.73a.2.2,0,0,1-.23.22h-2.73Z"/><path class="cls-2" d="M140.75,30.77a.2.2,0,0,1-.23-.22V27.2a.22.22,0,0,1,.23-.25l2.79-.38c.15,0,.23.06.23.2v3.78a.2.2,0,0,1-.23.22h-2.79Z"/><path class="cls-2" d="M153.28,31.12a11.87,11.87,0,0,1-3.13-.35,4.45,4.45,0,0,1-2-1.12,4.29,4.29,0,0,1-1.07-2,12,12,0,0,1-.32-3V23.27a11.82,11.82,0,0,1,.31-2.89,4.35,4.35,0,0,1,1.06-2,4.49,4.49,0,0,1,2-1.15,11.38,11.38,0,0,1,3.15-.37A16.76,16.76,0,0,1,155,17c.54.05,1,.12,1.46.21a.33.33,0,0,1,.18.08.23.23,0,0,1,0,.19l-.19,2.23c0,.14-.09.21-.24.2-.46-.06-.92-.1-1.4-.12s-1,0-1.47,0a6.64,6.64,0,0,0-1.75.19,2.05,2.05,0,0,0-1,.64,2.47,2.47,0,0,0-.5,1.18,11.19,11.19,0,0,0-.13,1.82v.9a11.27,11.27,0,0,0,.13,1.84,2.52,2.52,0,0,0,.49,1.18,2,2,0,0,0,1,.62,7,7,0,0,0,1.76.18c.53,0,1,0,1.5,0s.93-.07,1.38-.12a.2.2,0,0,1,.24.2l.18,2.23a.25.25,0,0,1,0,.19.29.29,0,0,1-.18.09l-.7.12L155,31l-.84.06C153.83,31.12,153.56,31.12,153.28,31.12Z"/><path class="cls-2" d="M159.49,20.07a.2.2,0,0,1-.23-.23v-2.4a.2.2,0,0,1,.23-.23h10.45a.2.2,0,0,1,.23.23v2a1,1,0,0,1-.08.4,1.16,1.16,0,0,1-.21.3l-6.75,7.73H170a.2.2,0,0,1,.22.23v2.43a.2.2,0,0,1-.22.22H159.4a.2.2,0,0,1-.23-.22V28.4a.76.76,0,0,1,0-.27,1.26,1.26,0,0,1,.14-.24l6.8-7.83h-6.67Z"/></g></g></svg>