<svg xmlns="http://www.w3.org/2000/svg" viewBox="0 0 280.66 73.04"><defs><style>.cls-1{fill:#00365f;}</style></defs><title>pragon-consulting-logo</title><g id="Vrstva_2" data-name="Vrstva 2"><g id="Vrstva_1-2" data-name="Vrstva 1"><path class="cls-1" d="M97.92,25.39v11.2H92.08V.58h13.2c8.2,0,12.25,4,12.25,12.09s-4,12.72-12.25,12.72Zm7.31-5c4.36,0,6.31-2.68,6.31-7.67s-1.95-7-6.31-7H97.92V20.34Z"/><path class="cls-1" d="M129,23.76V36.59h-5.84V.58h13.67C144.76.58,149,4,149,12c0,5.1-2.05,8.62-5.89,10.41l5.94,14.14h-6.41l-5.2-12.83Zm7.83-18.14H129V18.71h7.94c4.42,0,6.1-2.89,6.1-6.62,0-4.1-2-6.47-6.2-6.47"/><path class="cls-1" d="M161.06.58h11.62l8.94,36h-5.89l-1.94-7.73H160L158,36.59h-5.83Zm.05,23.13h11.51L168.21,5.47h-2.63Z"/><path class="cls-1" d="M200.86,17.66h10.25V36a93.34,93.34,0,0,1-12,1.21c-11.46,0-14.4-6.62-14.4-18.56C184.67,6,188.13,0,198.86,0a71.06,71.06,0,0,1,12.25,1.42L210.9,6a103.87,103.87,0,0,0-11.14-.84c-7.2,0-9,3.26-9,13.4,0,9.78,1.53,13.46,8.88,13.46a34.93,34.93,0,0,0,5.73-.47V22.81h-4.47Z"/><path class="cls-1" d="M216.84,18.77c0-12,3.42-18.77,14.67-18.77s14.61,6.68,14.61,18.77c0,12.25-3.36,18.4-14.61,18.4s-14.67-6.25-14.67-18.4m23.23,0c0-8.94-1.63-13.67-8.57-13.67s-8.62,4.73-8.62,13.67,1.63,13.3,8.62,13.3,8.57-4.15,8.57-13.3"/><polygon class="cls-1" points="252.9 0.58 263.1 0.58 274.04 31.43 274.82 31.43 274.82 0.58 280.66 0.58 280.66 36.59 270.67 36.59 259.48 5.68 258.74 5.68 258.74 36.59 252.9 36.59 252.9 0.58"/><path class="cls-1" d="M107.74,72.28A37.52,37.52,0,0,1,101,73c-7.24,0-8.9-4.12-8.9-12.23,0-8.56,1.8-12.26,8.9-12.26a33.19,33.19,0,0,1,6.79.87l-.14,3.12a43.87,43.87,0,0,0-6.13-.55c-4.37,0-5.44,2.11-5.44,8.83,0,6.51.87,8.8,5.54,8.8a46.07,46.07,0,0,0,6-.52Z"/><path class="cls-1" d="M110.55,60.92c0-7.93,2.25-12.37,9.66-12.37s9.63,4.4,9.63,12.37S127.62,73,120.21,73s-9.66-4.12-9.66-12.12m15.31,0c0-5.89-1.07-9-5.65-9s-5.68,3.12-5.68,9,1.07,8.76,5.68,8.76,5.65-2.74,5.65-8.76"/><polygon class="cls-1" points="134.31 48.93 141.03 48.93 148.23 69.27 148.75 69.27 148.75 48.93 152.6 48.93 152.6 72.66 146.02 72.66 138.64 52.29 138.15 52.29 138.15 72.66 134.31 72.66 134.31 48.93"/><path class="cls-1" d="M171.89,52.46s-4.85-.55-6.86-.55c-2.91,0-4.4,1-4.4,3.08,0,2.22,1.25,2.74,5.3,3.85,5,1.39,6.79,2.7,6.79,6.76,0,5.2-3.26,7.45-7.93,7.45a50.48,50.48,0,0,1-7.76-.94l.38-3.08s4.68.62,7.14.62c2.95,0,4.3-1.32,4.3-3.81,0-2-1.07-2.7-4.71-3.57-5.13-1.32-7.34-2.87-7.34-7,0-4.78,3.15-6.76,7.9-6.76a52.5,52.5,0,0,1,7.52.83Z"/><path class="cls-1" d="M185.37,69.68c3.19,0,4.88-1.42,4.88-4.61V48.93h3.88V65c0,5.71-3.08,8-8.76,8s-8.7-2.32-8.7-8V48.93h3.88V65.07c0,3.22,1.66,4.61,4.82,4.61"/><polygon class="cls-1" points="199.4 72.66 199.4 48.93 203.24 48.93 203.24 69.23 212.7 69.23 212.7 72.66 199.4 72.66"/><polygon class="cls-1" points="210.65 48.93 227.97 48.93 227.97 52.36 221.29 52.36 221.29 72.66 217.41 72.66 217.41 52.36 210.65 52.36 210.65 48.93"/><rect class="cls-1" x="231.16" y="48.93" width="3.85" height="23.73"/><polygon class="cls-1" points="240.48 48.93 247.2 48.93 254.4 69.27 254.92 69.27 254.92 48.93 258.77 48.93 258.77 72.66 252.19 72.66 244.81 52.29 244.32 52.29 244.32 72.66 240.48 72.66 240.48 48.93"/><path class="cls-1" d="M273.91,60.19h6.75V72.24a61.58,61.58,0,0,1-7.93.8c-7.55,0-9.49-4.36-9.49-12.23,0-8.31,2.29-12.26,9.35-12.26a46.83,46.83,0,0,1,8.07.93l-.14,3a68.47,68.47,0,0,0-7.34-.55c-4.74,0-6,2.15-6,8.83,0,6.44,1,8.87,5.85,8.87a23,23,0,0,0,3.77-.31V63.58h-2.94Z"/><path class="cls-1" d="M0,73H72.46V.58H0ZM56.16,59A2.7,2.7,0,0,1,55,60.65a27.94,27.94,0,0,1-14.92,4.25,26.7,26.7,0,0,1-10.77-2.2A28.22,28.22,0,0,1,14.54,47.93a27.48,27.48,0,0,1,0-21.53A28.21,28.21,0,0,1,29.32,11.62a26.71,26.71,0,0,1,10.77-2.2A27.58,27.58,0,0,1,53.9,13.09a2.28,2.28,0,0,1,1.23,1.49,2.54,2.54,0,0,1-.27,2,2.26,2.26,0,0,1-1.53,1.22,2.59,2.59,0,0,1-2-.25,20.49,20.49,0,0,0-5.41-2.25,23.87,23.87,0,0,0-5.86-.72,21.92,21.92,0,0,0-8.84,1.8,22.62,22.62,0,0,0-12,12,22.48,22.48,0,0,0,0,17.63,23.59,23.59,0,0,0,4.83,7.18,22.79,22.79,0,0,0,7.15,4.87,21.94,21.94,0,0,0,8.84,1.8,22.17,22.17,0,0,0,6.36-.92,24.19,24.19,0,0,0,5.81-2.61,2.37,2.37,0,0,1,1.94-.41,2.64,2.64,0,0,1,2,3.09M48.54,30.12a6,6,0,0,0-3.22-3.23A5.93,5.93,0,0,0,43,26.43H34.63V51.15A2.24,2.24,0,0,1,34,52.79a2.31,2.31,0,0,1-3.26,0,2.25,2.25,0,0,1-.66-1.64V24.08a2.26,2.26,0,0,1,.66-1.61,2.2,2.2,0,0,1,1.65-.7H43a10.32,10.32,0,0,1,4.17.85,10.74,10.74,0,0,1,5.66,5.68,10.47,10.47,0,0,1,.85,4.19,10.32,10.32,0,0,1-.85,4.17,10.8,10.8,0,0,1-5.66,5.66,10.33,10.33,0,0,1-4.17.85,2.32,2.32,0,0,1-1.66-.66,2.3,2.3,0,0,1,0-3.29A2.32,2.32,0,0,1,43,38.55a5.68,5.68,0,0,0,2.34-.49,6.36,6.36,0,0,0,1.92-1.31,6,6,0,0,0,1.29-1.92A5.91,5.91,0,0,0,49,32.49a6.05,6.05,0,0,0-.47-2.37"/></g></g></svg>