<svg xmlns="http://www.w3.org/2000/svg" viewBox="0 0 244 120.53"><defs><style>.cls-1{fill:#ededed;}.cls-2{fill:#fff;}.cls-3{fill:#373739;}.cls-4{fill:#3c3c3b;}.cls-5{fill:#575756;}.cls-6{fill:#9d9d9c;}.cls-7{fill:#3f3f3f;}</style></defs><title>richard-motors-logo</title><g id="Vrstva_2" data-name="Vrstva 2"><g id="Vrstva_1-2" data-name="Vrstva 1"><path class="cls-1" d="M242.92,60.26h0c-1.1-14.5-4.4-29-11-42C207.63,11.59,151,2.26,122,1.06v59.2h0v59.2c29-1.2,85.64-10.53,109.93-17.2,6.59-13,9.88-27.5,11-42Z"/><path class="cls-2" d="M11.13,18.26c-6.64,13-10,27.5-11.08,42H0c1.11,14.5,4.43,29,11.08,42,24.5,6.67,81.6,16,110.88,17.2V60.26h0V1.07C92.68,2.26,35.63,11.6,11.13,18.26Z"/><path class="cls-3" d="M122,120.53c-29.61-1.22-86.29-10.66-110.26-17.24l-.45-.12-.21-.42C5,90.61,1.22,76.35,0,60.35v-.16c1.24-16,5-30.3,11.11-42.4l.21-.42.45-.12C35.75,10.66,92.42,1.22,122,0H122c29.52,1.22,86.2,10.66,110.17,17.24l.45.12.21.42c6.16,12.13,9.9,26.4,11.11,42.4v.16c-1.24,16-5,30.3-11.11,42.4l-.21.42-.45.13C208.25,109.87,151.57,119.31,122,120.53ZM12.81,101.36c24.12,6.55,80,15.83,109.24,17,29.13-1.21,85-10.49,109.15-17,5.87-11.74,9.46-25.57,10.67-41.1-1.19-15.5-4.77-29.33-10.67-41.1-24.11-6.54-80-15.82-109.19-17-29.23,1.22-85.09,10.49-109.19,17C6.93,30.91,3.35,44.73,2.14,60.27,3.32,75.77,6.91,89.59,12.81,101.36Z"/><path class="cls-4" d="M51.52,55.83a1.53,1.53,0,0,0,.59-.43,1.85,1.85,0,0,0,.31-.69,2.52,2.52,0,0,0-.06-1.17L49,39.28a.48.48,0,0,1,.13-.52,1.93,1.93,0,0,1,.37-.25c4.79-1.12,7.2-1.63,12-2.56l.55-.07a7.79,7.79,0,0,1,1.26,0,8.94,8.94,0,0,1,1.64.26,8.57,8.57,0,0,1,1.69.73,1.67,1.67,0,0,1,.27.15l.23.16A5.33,5.33,0,0,1,69,40.64l1.59,9.23a2.45,2.45,0,0,1-.1,1.53,5.75,5.75,0,0,1-.61.77.75.75,0,0,0,.23.1.8.8,0,0,1,.23.1,2.62,2.62,0,0,1,1,1.65l1.52,8.84a.54.54,0,0,1-.13.52.79.79,0,0,1-.39.21c-1.85.32-2.77.49-4.62.84h-.08a.85.85,0,0,1-.55-.1.34.34,0,0,1-.13-.12l-.08-.12a.35.35,0,0,1-.07-.15l-1.41-7.11a.84.84,0,0,0-.31-.51.39.39,0,0,0-.27-.09.81.81,0,0,1-.25,0c-1.82.36-2.73.54-4.54.93l-.15.11a.28.28,0,0,0-.1.31l1.6,7.49a.87.87,0,0,1,0,.43.59.59,0,0,1-.5.33c-1.82.39-2.74.6-4.55,1h-.19a.64.64,0,0,1-.52-.09.47.47,0,0,1-.19-.26v-.17l-2-8.62A2.35,2.35,0,0,0,53,56.62l-.16-.15a.53.53,0,0,0-.16-.14h-.1a1.53,1.53,0,0,0-.6-.18h-.26ZM58.41,51a.34.34,0,0,0,.12.18.26.26,0,0,0,.22,0c1.8-.38,2.7-.57,4.51-.92a2.41,2.41,0,0,0,.43-.19.66.66,0,0,0,.25-.27.75.75,0,0,0,0-.49l-1.26-6.56h0a.67.67,0,0,0-.31-.47.55.55,0,0,0-.23-.08h-.23a.61.61,0,0,0-.22,0c-1.84.36-2.76.55-4.59.94a1,1,0,0,0-.22.09.24.24,0,0,0-.09.3Z"/><path class="cls-4" d="M74.47,52.08l-.1-.1a1.87,1.87,0,0,0-.59-.23h-.25l-.05-.31a1.5,1.5,0,0,0,.6-.36,1.82,1.82,0,0,0,.34-.62,2.64,2.64,0,0,0,.08-1.12L72.19,34.76a.48.48,0,0,1,.17-.51,1.93,1.93,0,0,1,.39-.22c2.11-.33,3.17-.49,5.28-.78h.22a.65.65,0,0,1,.33.15l.18.14a.45.45,0,0,1,.1.27v.12l2,14.39a2.26,2.26,0,0,0,.76,1.54,1.18,1.18,0,0,0,.79.25v.32h0a1,1,0,0,0-.28.12,1.27,1.27,0,0,0-.37.33,1.73,1.73,0,0,0-.29.64,2.85,2.85,0,0,0,0,1.08l1.2,8.77a.54.54,0,0,1-.15.54.88.88,0,0,1-.4.18c-1.92.27-2.88.41-4.8.71h-.18a.56.56,0,0,1-.32-.13.64.64,0,0,1-.23-.44l-1.42-8.94-.16-.5a1.29,1.29,0,0,0-.19-.41,1.1,1.1,0,0,1-.15-.16A.55.55,0,0,0,74.47,52.08Z"/><path class="cls-4" d="M85.13,50.49a1.86,1.86,0,0,0-.58-.25H84.3v-.31a2,2,0,0,0,.57-.29,1.24,1.24,0,0,0,.36-.52,2.76,2.76,0,0,0,.15-1l-.13-1.06L84.2,38.43a5.34,5.34,0,0,1,.38-3.06,5.54,5.54,0,0,1,1.55-1.94,6.87,6.87,0,0,1,1.93-1.07,9.34,9.34,0,0,1,1.51-.44H90c2.52-.26,3.79-.37,6.31-.58h.53a9.19,9.19,0,0,1,1.21.1,7.9,7.9,0,0,1,1.56.4,5.91,5.91,0,0,1,1.61.89,4.33,4.33,0,0,1,.46.41,5.63,5.63,0,0,1,1.53,3.68c.06,1,.09,1.43.15,2.38a.51.51,0,0,1-.22.53,1.06,1.06,0,0,1-.42.15c-2,.13-3,.2-5,.35h-.13a.77.77,0,0,1-.52-.14.61.61,0,0,1-.25-.48l-.19-1.48a.64.64,0,0,0-.26-.54,1.6,1.6,0,0,0-.4-.17h-.21c-1.66.14-2.49.22-4.14.38l-.46.17a.64.64,0,0,0-.35.75L92.44,54a.74.74,0,0,0,.26.53.49.49,0,0,0,.21.1l.21.06a.56.56,0,0,0,.21,0l3.92-.36.41-.15a.64.64,0,0,0,.33-.74L97.87,52A.53.53,0,0,1,98,51.5a.82.82,0,0,1,.42-.17c2-.16,3-.23,4.94-.35a.39.39,0,0,1,.17,0h.17a.37.37,0,0,1,.17.09.64.64,0,0,1,.2.46v.12l.18,2.26a6.07,6.07,0,0,1-.29,2.48,5.68,5.68,0,0,1-1,1.73,5,5,0,0,1-1.34,1.13,7.68,7.68,0,0,1-1.37.62,11,11,0,0,1-1.5.36c-2.31.19-3.47.29-5.78.53h-.08a1.58,1.58,0,0,1-.33,0,8.59,8.59,0,0,1-1.6-.13,5.81,5.81,0,0,1-2.17-.82l-.31-.21-.31-.24a5.5,5.5,0,0,1-1.94-3.84l-.45-3.67a2,2,0,0,0-.33-1,.81.81,0,0,1-.15-.18.5.5,0,0,0-.15-.18Z"/><path class="cls-4" d="M106.68,48.68a.1.1,0,0,1,0-.06.1.1,0,0,0,0-.06,1.54,1.54,0,0,0-.56-.29h-.25v-.32a1.5,1.5,0,0,0,.65-.31,1.85,1.85,0,0,0,.43-.62,2.54,2.54,0,0,0,.15-1.16c-.29-5.85-.44-8.78-.74-14.63a.48.48,0,0,1,.22-.49,1.93,1.93,0,0,1,.41-.18c2.13-.1,3.19-.14,5.32-.21h.22a.85.85,0,0,1,.32.19.55.55,0,0,1,.23.43v.12c.16,5.33.24,8,.39,13.33a.27.27,0,0,0,.09.2.36.36,0,0,0,.25.07c2-.06,3-.08,5-.1H119a.25.25,0,0,0,.15-.28c-.06-5.38-.08-8.07-.14-13.46a.48.48,0,0,1,.23-.48,1.91,1.91,0,0,1,.42-.16h5.54a.8.8,0,0,1,.35.2.56.56,0,0,1,.09.42v.12l-.15,14.53a2.16,2.16,0,0,0,.52,1.63,1.46,1.46,0,0,0,.5.28l.21.08h.08v.32h-.16a1,1,0,0,0-.29.07,1.27,1.27,0,0,0-.42.27,1.74,1.74,0,0,0-.38.59,2.84,2.84,0,0,0-.18,1.07l-.09,8.85a.53.53,0,0,1-.22.51.89.89,0,0,1-.42.11h-5a.56.56,0,0,1-.32-.17.65.65,0,0,1-.17-.48c0-3.06,0-4.6-.08-7.66a.26.26,0,0,0-.08-.2.36.36,0,0,0-.25-.12c-2,0-3,0-4.94.1l-.16.1a.28.28,0,0,0-.16.3c.09,3.06.13,4.59.22,7.66a.53.53,0,0,1-.2.52.89.89,0,0,1-.41.13c-1.87.06-2.81.1-4.67.19h-.16a.36.36,0,0,1-.16,0l-.16-.05a.36.36,0,0,1-.17-.09.65.65,0,0,1-.18-.47l-.45-8.84a2.37,2.37,0,0,0-.26-1.14,1.1,1.1,0,0,1-.13-.17A.56.56,0,0,0,106.68,48.68Z"/><path class="cls-4" d="M129.41,48.4a.14.14,0,0,1,0-.06.1.1,0,0,0,0-.06,1.58,1.58,0,0,0-.53-.29l-.25-.08v-.32a1.5,1.5,0,0,0,.67-.26,1.86,1.86,0,0,0,.47-.59A2.53,2.53,0,0,0,130,45.6c.09-3.75.14-5.62.23-9.36a5.64,5.64,0,0,1,.44-2.41,5.17,5.17,0,0,1,1.24-1.63,5.51,5.51,0,0,1,1.59-1,8.43,8.43,0,0,1,1.58-.46,12.63,12.63,0,0,1,1.7-.17c2.55.12,3.82.19,6.37.35l.55.06a6.29,6.29,0,0,1,1.21.28,9.23,9.23,0,0,1,1.49.65A5.94,5.94,0,0,1,147.88,33a5.19,5.19,0,0,1,.36.47,5.48,5.48,0,0,1,1,3.83l-.8,9.33a2.14,2.14,0,0,0,.4,1.67,1.51,1.51,0,0,0,.47.36.67.67,0,0,0,.21.06h.08V49h-.08a1,1,0,0,0-.3.05,1.15,1.15,0,0,0-.44.26,2,2,0,0,0-.43.58,2.68,2.68,0,0,0-.25,1l-.77,8.92a.5.5,0,0,1-.26.46.89.89,0,0,1-.43.08c-1.87-.16-2.8-.23-4.67-.35h-.32a.58.58,0,0,1-.31-.2.59.59,0,0,1-.13-.45l.5-7.68a.27.27,0,0,0-.07-.2.34.34,0,0,0-.24-.1c-2-.13-3-.18-5-.28a.38.38,0,0,0-.17,0,.28.28,0,0,0-.18.27l-.35,7.69a.49.49,0,0,1-.24.47.88.88,0,0,1-.42.1c-1.87-.08-2.8-.12-4.67-.17h-.16a.35.35,0,0,1-.16,0l-.16-.06a.35.35,0,0,1-.16-.1.59.59,0,0,1-.15-.44c.09-3.56.13-5.33.22-8.89a2.61,2.61,0,0,0-.12-1.15A1.78,1.78,0,0,0,129.41,48.4Zm8.27-11.7a1.7,1.7,0,0,0-.48.1.83.83,0,0,0-.31.22.74.74,0,0,0-.15.47c-.13,2.87-.2,4.31-.33,7.18a.28.28,0,0,0,.08.2.33.33,0,0,0,.25.13c2,.09,3,.15,5,.28h.21a.28.28,0,0,0,.19-.29c.19-2.87.28-4.3.47-7.17a.72.72,0,0,0-.18-.57.56.56,0,0,0-.21-.13L142,37a.6.6,0,0,0-.21-.05C140.15,36.83,139.32,36.83,137.68,36.7ZM149.6,49v-.28h-.08a.41.41,0,0,1-.21-.06v-.08l.16.05h.08Z"/><path class="cls-4" d="M151.15,48.83a1.52,1.52,0,0,0,.69-.21,1.83,1.83,0,0,0,.51-.55,2.53,2.53,0,0,0,.32-1.12l1.46-14.57a.48.48,0,0,1,.29-.45,1.93,1.93,0,0,1,.43-.12c4.87.5,7.3.79,12.16,1.48l.54.12a7.74,7.74,0,0,1,1.19.39,9,9,0,0,1,1.46.78,8.56,8.56,0,0,1,1.38,1.25,1.76,1.76,0,0,1,.21.23l.17.23a5.32,5.32,0,0,1,.66,3.88l-1.5,9.25a2.45,2.45,0,0,1-.59,1.41,5.85,5.85,0,0,1-.83.53.76.76,0,0,0,.19.17.8.8,0,0,1,.18.17,2.62,2.62,0,0,1,.37,1.87L169,62.43a.54.54,0,0,1-.3.45.79.79,0,0,1-.44.07c-1.85-.3-2.78-.44-4.64-.7h-.08a.85.85,0,0,1-.49-.27.32.32,0,0,1-.08-.15,1.18,1.18,0,0,0,0-.15.34.34,0,0,1,0-.16l1-7.19a.84.84,0,0,0-.13-.58.38.38,0,0,0-.22-.17.85.85,0,0,1-.24-.09c-1.83-.25-2.75-.37-4.58-.6l-.17.06a.28.28,0,0,0-.2.26c-.37,3-.56,4.57-.92,7.61a.85.85,0,0,1-.17.4.59.59,0,0,1-.58.15c-1.85-.22-2.77-.32-4.62-.51h-.2a.63.63,0,0,1-.46-.25.47.47,0,0,1-.09-.31v-.18c.35-3.52.53-5.29.88-8.81a2.37,2.37,0,0,0-.09-1.17,1.12,1.12,0,0,1-.11-.19.52.52,0,0,0-.11-.19.11.11,0,0,1,0-.06.1.1,0,0,0,0-.06,1.52,1.52,0,0,0-.51-.37l-.24-.06Zm8-2.32a.34.34,0,0,0,.06.21.26.26,0,0,0,.2.1c1.82.22,2.73.34,4.55.59a2.4,2.4,0,0,0,.47,0,.65.65,0,0,0,.32-.18.76.76,0,0,0,.19-.46l.94-6.67h0a.67.67,0,0,0-.14-.54.56.56,0,0,0-.2-.15l-.2-.11a.63.63,0,0,0-.21-.07c-1.85-.25-2.78-.37-4.63-.6h-.24a.25.25,0,0,0-.18.26Z"/><path class="cls-4" d="M174.36,52.83a.16.16,0,0,1,0-.07.1.1,0,0,0,0-.07,1.59,1.59,0,0,0-.49-.36l-.23-.12,0-.38a1.53,1.53,0,0,0,.71-.16,1.84,1.84,0,0,0,.55-.51,2.52,2.52,0,0,0,.41-1.1c1-5.77,1.52-8.65,2.54-14.42a.48.48,0,0,1,.32-.41.89.89,0,0,1,.44-.06c4.83.86,7.24,1.34,12,2.39l.53.16a9.37,9.37,0,0,1,1.17.46,7.86,7.86,0,0,1,1.41.87A5.87,5.87,0,0,1,195,40.38a5,5,0,0,1,.33.52,5.55,5.55,0,0,1,.31,3.93l-4,16.79a6.25,6.25,0,0,1-1,2.29,5.38,5.38,0,0,1-1.45,1.37,5.08,5.08,0,0,1-1.63.68,7.75,7.75,0,0,1-1.51.18,11.4,11.4,0,0,1-1.6-.11c-4.32-.94-6.49-1.37-10.83-2.15h-.2a.63.63,0,0,1-.44-.28.49.49,0,0,1-.06-.33v-.19c.61-3.49.92-5.23,1.53-8.72a2.61,2.61,0,0,0,0-1.13A1.82,1.82,0,0,0,174.36,52.83Zm5.8,5.88a.34.34,0,0,0,0,.21.25.25,0,0,0,.19.12c1.75.35,2.63.53,4.38.91a2.34,2.34,0,0,0,.46,0,.64.64,0,0,0,.33-.15.77.77,0,0,0,.22-.44l3.28-15a.72.72,0,0,0-.09-.59.57.57,0,0,0-.19-.16l-.2-.12a.64.64,0,0,0-.2-.08c-1.83-.39-2.75-.58-4.59-1a.72.72,0,0,0-.25,0,.28.28,0,0,0-.2.26Z"/><path class="cls-5" d="M122,4c28.7,1.2,82.81,10.13,107.48,16.66C235,32,238.39,45.35,239.54,60.23c-1.15,14.92-4.55,28.26-10.09,39.64C204.8,106.4,150.71,115.32,122,116.53,93.3,115.32,39.2,106.4,14.55,99.87,9,88.49,5.61,75.17,4.46,60.29,5.61,45.37,9,32,14.55,20.65,39.21,14.12,93.29,5.19,122,4m0-1C93,4.2,38.45,13.23,13.86,19.81,8.13,31.42,4.63,45,3.46,60.3c1.17,15.2,4.67,28.82,10.4,40.43C38.44,107.31,93,116.33,122,117.54c29-1.22,83.56-10.24,108.14-16.81,5.73-11.61,9.23-25.24,10.4-40.49-1.17-15.2-4.67-28.82-10.4-40.43C205.56,13.23,151,4.21,122,3h0Z"/><path class="cls-2" d="M122,3c29.15,1.22,83.86,10.27,108.42,16.84,5.72,11.58,9.22,25.17,10.39,40.39-1.17,15.25-4.66,28.86-10.39,40.45-24.56,6.59-79.28,15.65-108.37,16.86-29.11-1.22-83.83-10.27-108.39-16.86C7.91,89.09,4.41,75.5,3.24,60.28,4.41,45,7.91,31.42,13.63,19.83,38.18,13.24,92.86,4.19,122,3m0-1c-29.24,1.24-84.3,10.35-108.78,17l-.27.07-.11.21C7,31,3.41,44.77,2.23,60.29c1.18,15.46,4.75,29.26,10.59,41l.11.21.27.07c24.53,6.61,79.54,15.72,108.78,16.94H122c29.23-1.22,84.24-10.33,108.77-16.94l.27-.07.11-.21c5.85-11.76,9.41-25.56,10.59-41.08-1.18-15.46-4.75-29.26-10.59-41l-.11-.21-.27-.07C206.28,12.32,151.27,3.21,122,2h0Z"/><path class="cls-2" d="M121.95,4.67c28.3,1.19,82.08,10,106.54,16.5,5.45,11.24,8.79,24.37,9.93,39-1.14,14.73-4.47,27.89-9.93,39.15-24.45,6.45-78.22,15.3-106.47,16.5-28.28-1.19-82.05-10-106.51-16.5-5.45-11.24-8.79-24.37-9.93-39,1.14-14.73,4.48-27.9,9.93-39.15C40,14.72,93.68,5.83,121.95,4.67m0-1C93.55,4.83,39.41,13.83,15,20.27l-.2.05-.08.16c-5.59,11.44-9,24.83-10.16,39.84,1.15,14.94,4.57,28.31,10.16,39.74l.08.16.2.05c24.38,6.47,78.54,15.4,107,16.6h0c28.44-1.2,82.59-10.13,107-16.6l.2-.05.08-.16c5.59-11.44,9-24.83,10.16-39.84-1.15-14.94-4.57-28.31-10.16-39.74l-.08-.16-.2-.05C204.6,13.8,150.43,4.87,122,3.67h-.06Z"/><path class="cls-6" d="M121.95,5.09C150,6.27,203.53,15.09,228,21.49c5.38,11.17,8.68,24.19,9.81,38.72C236.68,74.83,233.42,87.83,228,99c-24.46,6.41-78,15.21-106,16.4C94,114.25,40.46,105.44,16,99,10.65,87.87,7.35,74.85,6.22,60.32,7.35,45.73,10.64,32.67,16,21.49,40.52,15.07,94,6.27,122,5.09m0-.71C93.82,5.57,40,14.44,15.56,20.89,10,32.22,6.68,45.49,5.56,60.32c1.14,14.75,4.51,28,10,39.32,24.42,6.45,78.22,15.31,106.53,16.51,28.3-1.2,82.1-10.06,106.53-16.51,5.51-11.34,8.88-24.6,10-39.43-1.14-14.75-4.51-28-10-39.32C204.08,14.43,150.24,5.57,121.95,4.38H122Z"/><path class="cls-7" d="M80.58,90.18h-.06L75.52,78H74V91.87h.93V81.44A24.06,24.06,0,0,0,74.87,79h.08l5.26,12.81h.62L86,79h.08A22.17,22.17,0,0,0,86,81.27V91.81h1V77.9H85.51Z"/><path class="cls-7" d="M100.25,77.67a5.74,5.74,0,0,0-4.56,1.92A7.68,7.68,0,0,0,94,84.82a7.8,7.8,0,0,0,1.67,5.25,6.36,6.36,0,0,0,9,.13l.13-.13a9.12,9.12,0,0,0,0-10.48A5.68,5.68,0,0,0,100.25,77.67Zm3.85,11.78a5.33,5.33,0,0,1-7.54.12l-.12-.12a7.11,7.11,0,0,1-1.34-4.61,7,7,0,0,1,1.33-4.6,5.34,5.34,0,0,1,7.55-.1l.1.1a7,7,0,0,1,1.34,4.61,7.13,7.13,0,0,1-1.31,4.6Z"/><polygon class="cls-7" points="111.68 78.77 116.2 78.76 116.23 91.75 117.21 91.75 117.18 78.75 121.69 78.74 121.69 77.83 111.67 77.86 111.68 78.77"/><path class="cls-7" d="M133.14,77.58a5.75,5.75,0,0,0-4.55,1.92,7.66,7.66,0,0,0-1.65,5.23A7.79,7.79,0,0,0,128.61,90a6.36,6.36,0,0,0,9,.13l.13-.13a9.14,9.14,0,0,0,0-10.48A5.69,5.69,0,0,0,133.14,77.58ZM137,89.36a5.33,5.33,0,0,1-7.54.12l-.12-.12A7.13,7.13,0,0,1,128,84.74a7,7,0,0,1,1.33-4.6,5.35,5.35,0,0,1,7.57-.08l.08.08a7,7,0,0,1,1.34,4.6A7.15,7.15,0,0,1,137,89.36Z"/><path class="cls-7" d="M154.09,83.94a3.76,3.76,0,0,0,.73-2.36,3.41,3.41,0,0,0-1.25-2.87,6.26,6.26,0,0,0-3.83-.94h-3.31V91.68h1V85.62h3.45l3.61,6.05h1.19l-3.8-6.33A4.09,4.09,0,0,0,154.09,83.94Zm-4,.83h-2.65V78.64h2.24a5.19,5.19,0,0,1,3.1.71,2.72,2.72,0,0,1,1,2.31,2.81,2.81,0,0,1-1,2.32,4.25,4.25,0,0,1-2.7.79Z"/><path class="cls-7" d="M169.24,86.4A3.48,3.48,0,0,0,168,85.21a11.71,11.71,0,0,0-2.45-1.08,12.67,12.67,0,0,1-2.19-.94A2.26,2.26,0,0,1,162.2,81a2.34,2.34,0,0,1,.91-1.94,3.88,3.88,0,0,1,2.45-.72,8.65,8.65,0,0,1,3.31.72l.35-.84a9.22,9.22,0,0,0-3.68-.73,4.87,4.87,0,0,0-3.14,1,3.11,3.11,0,0,0-1.22,2.55,3.15,3.15,0,0,0,.82,2.27,7.56,7.56,0,0,0,3,1.58,13.53,13.53,0,0,1,2.21.92,3,3,0,0,1,1.08.94,2.42,2.42,0,0,1,.34,1.31,2.48,2.48,0,0,1-1,2.06,4.28,4.28,0,0,1-2.71.79,9.9,9.9,0,0,1-3.84-.63v1a10.62,10.62,0,0,0,3.91.55,5.31,5.31,0,0,0,3.4-1,3.34,3.34,0,0,0,1.27-2.76A3.2,3.2,0,0,0,169.24,86.4Z"/><polygon class="cls-7" points="67.5 83.84 50.77 85.22 67.51 86.6 67.5 83.84"/><polygon class="cls-7" points="175.6 86.09 192.33 84.71 175.59 83.33 175.6 86.09"/><path class="cls-7" d="M36.82,54.15c.63-.51,1.71-1.31,2.88-2.15-.09-.15-.19-.3-.29-.45-1.28.91-2.65,1.95-3.25,2.43a3.82,3.82,0,0,0-.92,4l.15.33c.5,1,1.53,3.2.58,4.92-.86,1.56-4.09,1.93-7,1.93-1.42,0-2.75-.09-3.66-.17l.34.24c4.2.51,9.92.68,11.12-1.94.85-1.85-.59-4.48-.9-5.2A3.42,3.42,0,0,1,36.82,54.15Z"/><path class="cls-7" d="M39,51a11.09,11.09,0,0,0-11.86-3.24C22.32,49.44,19.87,55,21.67,60.1a10.27,10.27,0,0,0,2.68,4.12c4.64.56,10.06.4,11-1.28.77-1.4-.15-3.33-.6-4.27l-.17-.36a4.53,4.53,0,0,1,1.12-4.87C36.31,52.95,37.68,51.9,39,51Zm-7.53,7.84-2-.73-1.92.9.08-2.12-1.45-1.55,2-.58,1-1.85,1.18,1.76,2.08.4-1.3,1.67Z"/><path class="cls-7" d="M207.24,54.69c-.63-.51-1.71-1.31-2.88-2.15.09-.15.19-.3.29-.45,1.28.91,2.65,1.95,3.25,2.43a3.82,3.82,0,0,1,.92,4l-.15.33c-.5,1-1.53,3.2-.58,4.92.86,1.56,4.09,1.93,7,1.93,1.42,0,2.75-.09,3.66-.17l-.34.24c-4.2.51-9.92.68-11.12-1.94-.85-1.85.59-4.48.9-5.2A3.42,3.42,0,0,0,207.24,54.69Z"/><path class="cls-7" d="M208.35,54a4.53,4.53,0,0,1,1.12,4.87l-.17.36c-.45.93-1.37,2.87-.6,4.27.94,1.68,6.35,1.84,11,1.28a10.27,10.27,0,0,0,2.68-4.12c1.8-5.13-.64-10.66-5.46-12.35a11.09,11.09,0,0,0-11.86,3.24C206.36,52.44,207.74,53.49,208.35,54Zm4.51,3.32-1.3-1.67,2.08-.4,1.18-1.76,1,1.85,2,.58-1.45,1.55.08,2.12-1.92-.9-2,.73Z"/></g></g></svg>