<svg xmlns="http://www.w3.org/2000/svg" xmlns:xlink="http://www.w3.org/1999/xlink" viewBox="0 0 751.07 241.56"><defs><style>.cls-1{fill:url(#linear-gradient);}.cls-2{fill:url(#linear-gradient-2);}.cls-3{fill:url(#linear-gradient-3);}.cls-4{fill:url(#linear-gradient-4);}.cls-5{fill:url(#linear-gradient-5);}.cls-6{fill:url(#linear-gradient-6);}.cls-7{fill:url(#linear-gradient-7);}.cls-8{fill:url(#linear-gradient-8);}.cls-9{fill:#003a70;}</style><linearGradient id="linear-gradient" x1="119.55" y1="-27.85" x2="200.27" y2="85.4" gradientUnits="userSpaceOnUse"><stop offset="0.1" stop-color="#11294f"/><stop offset="0.78" stop-color="#1d71b8"/></linearGradient><linearGradient id="linear-gradient-2" x1="192.85" y1="91.34" x2="264.9" y2="-10.96" gradientUnits="userSpaceOnUse"><stop offset="0" stop-color="#11294f"/><stop offset="0.72" stop-color="#1d71b8"/></linearGradient><linearGradient id="linear-gradient-3" x1="139.27" y1="132.12" x2="397.17" y2="119.4" gradientUnits="userSpaceOnUse"><stop offset="0" stop-color="#1d71b8"/><stop offset="1" stop-color="#132e58"/></linearGradient><linearGradient id="linear-gradient-4" x1="202.25" y1="193.13" x2="207.94" y2="-32.03" gradientUnits="userSpaceOnUse"><stop offset="0" stop-color="#132e58"/><stop offset="0.72" stop-color="#1d71b8"/></linearGradient><linearGradient id="linear-gradient-5" x1="135.35" y1="295.91" x2="105.03" y2="115.91" gradientUnits="userSpaceOnUse"><stop offset="0.1" stop-color="#3461a2"/><stop offset="0.99" stop-color="#527ebf"/></linearGradient><linearGradient id="linear-gradient-6" x1="20.02" y1="156.93" x2="100.57" y2="179.05" gradientUnits="userSpaceOnUse"><stop offset="0.01" stop-color="#3461a2"/><stop offset="0.72" stop-color="#5d8ac6"/><stop offset="0.86" stop-color="#6592cd"/></linearGradient><linearGradient id="linear-gradient-7" x1="115.93" y1="76.24" x2="35.22" y2="39.82" gradientUnits="userSpaceOnUse"><stop offset="0.01" stop-color="#67a0d7"/><stop offset="0.85" stop-color="#90c3ea"/><stop offset="0.86" stop-color="#90c3ea"/></linearGradient><linearGradient id="linear-gradient-8" x1="27.66" y1="84.67" x2="63.65" y2="138.19" xlink:href="#linear-gradient-7"/></defs><title>spst-logo</title><g id="Vrstva_2" data-name="Vrstva 2"><g id="Vrstva_1-2" data-name="Vrstva 1"><polygon class="cls-1" points="135.67 92.83 73.38 0 212.46 4.45 135.67 92.83"/><polygon class="cls-2" points="212.46 4.45 135.67 92.83 260.78 74.59 212.46 4.45"/><polygon class="cls-3" points="149.84 113.48 260.78 74.59 257.05 177.85 149.84 113.48"/><polygon class="cls-4" points="257.05 177.85 149.84 113.48 181.26 241.56 257.05 177.85"/><polyline class="cls-5" points="179.95 241.56 69.2 230.14 122.38 125.34 181.26 241.56"/><polygon class="cls-6" points="14.07 170.82 122.38 125.34 69.2 230.14 14.07 170.82"/><polygon class="cls-7" points="112.5 104.47 73.38 0 0 80.96 112.5 104.47"/><polygon class="cls-8" points="112.5 104.47 0 80.96 14.07 170.82 112.5 104.47"/><path class="cls-9" d="M311.27,145.84l22.87-2.23q2,11.51,8.37,16.91t17,5.4q11.34,0,17.1-4.81c3.84-3.21,5.76-6.94,5.76-11.23a10.63,10.63,0,0,0-2.42-7q-2.42-2.89-8.45-5c-2.75-.95-9-2.64-18.82-5.08q-18.89-4.69-26.51-11.51-10.72-9.61-10.72-23.42a29.89,29.89,0,0,1,5-16.63A31.5,31.5,0,0,1,335,69.39q9.49-4,22.9-4.05,21.94,0,33,9.61t11.63,25.64l-23.49,1q-1.52-9-6.49-12.91T357.72,84.8q-10.25,0-16,4.2a8.48,8.48,0,0,0-3.73,7.22,9,9,0,0,0,3.49,7.06Q345.9,107,363,111.07t25.36,8.38a32.71,32.71,0,0,1,12.85,11.83q4.66,7.51,4.65,18.54a34.26,34.26,0,0,1-5.56,18.74,33.25,33.25,0,0,1-15.71,13q-10.17,4.24-25.33,4.24-22.07,0-33.9-10.2T311.27,145.84Z"/><path class="cls-9" d="M433.79,183.71V67.33H471.5q21.43,0,27.93,1.75a30.53,30.53,0,0,1,16.76,11.39q6.75,8.77,6.74,22.66,0,10.71-3.88,18a31.85,31.85,0,0,1-9.88,11.47,34,34,0,0,1-12.2,5.52q-8.41,1.67-24.37,1.66H457.29v43.91ZM457.29,87v33h12.86q13.9,0,18.56-1.83a15.29,15.29,0,0,0,10-14.76A15,15,0,0,0,495,93a16.17,16.17,0,0,0-9.45-5.16q-4.21-.79-16.9-.8Z"/><path class="cls-9" d="M544.41,145.84l22.86-2.23q2.07,11.51,8.37,16.91t17,5.4q11.36,0,17.12-4.81c3.83-3.21,5.74-6.94,5.74-11.23a10.62,10.62,0,0,0-2.41-7q-2.44-2.89-8.46-5-4.12-1.42-18.81-5.08-18.91-4.69-26.52-11.51-10.7-9.61-10.72-23.42a29.9,29.9,0,0,1,5-16.63,31.55,31.55,0,0,1,14.53-11.79q9.47-4,22.9-4.05,21.92,0,33,9.61t11.63,25.64l-23.5,1q-1.52-9-6.48-12.91T590.85,84.8q-10.25,0-16,4.2a8.43,8.43,0,0,0-3.75,7.22,8.92,8.92,0,0,0,3.5,7.06q4.43,3.73,21.59,7.78t25.36,8.38a32.74,32.74,0,0,1,12.86,11.83c3.1,5,4.63,11.18,4.63,18.54a34.15,34.15,0,0,1-5.56,18.74,33.13,33.13,0,0,1-15.71,13q-10.17,4.24-25.32,4.24-22.06,0-33.89-10.2T544.41,145.84ZM565,36.77h18l8.59,11.83,9.2-11.83h17.95L602.36,60.18H581.72Z"/><path class="cls-9" d="M693.12,183.71V87H658.59V67.33h92.48V87H716.62v96.7Z"/></g></g></svg>